<svg width="43" height="43" viewBox="0 0 43 43" fill="none" xmlns="http://www.w3.org/2000/svg">
<g clip-path="url(#clip0)">
<path d="M21.5001 0C9.64495 0 0 9.64495 0 21.5001C0 33.3553 9.64495 43.0003 21.5001 43.0003C33.3553 43.0003 43.0003 33.3553 43.0003 21.5001C43.0003 9.64495 33.3551 0 21.5001 0ZM21.5001 39.3145C11.6775 39.3145 3.68577 31.3228 3.68577 21.5001C3.68577 11.6775 11.6775 3.68577 21.5001 3.68577C31.3228 3.68577 39.3145 11.6775 39.3145 21.5001C39.3145 31.3228 31.3225 39.3145 21.5001 39.3145Z" fill="#425C5A"/>
<path d="M29.8192 13.1819C29.0993 12.462 27.932 12.462 27.2134 13.1819L21.5 18.896L15.7866 13.1819C15.0667 12.462 13.9007 12.462 13.1808 13.1819C12.4609 13.9018 12.4609 15.0678 13.1808 15.7877L18.8942 21.5016L13.1805 27.2157C12.4607 27.9356 12.4607 29.1016 13.1805 29.8215C13.5404 30.1813 14.012 30.3615 14.4836 30.3615C14.9552 30.3615 15.4273 30.1816 15.7866 29.8215L21.5 24.1077L27.2134 29.8215C27.5732 30.1813 28.0448 30.3615 28.5164 30.3615C28.988 30.3615 29.4594 30.1816 29.8194 29.8215C30.5393 29.1016 30.5393 27.9356 29.8194 27.2157L24.1058 21.5018L29.8192 15.788C30.5391 15.0681 30.5391 13.9018 29.8192 13.1819Z" fill="#425C5A"/>
</g>
<defs>
<clipPath id="clip0">
<rect width="43" height="43" fill="white"/>
</clipPath>
</defs>
</svg>
