<svg width="29" height="30" viewBox="0 0 29 30" fill="none" xmlns="http://www.w3.org/2000/svg">
<path d="M28.1691 14.4344C27.7076 14.4344 27.3383 14.8036 27.3383 15.2652V22.823C27.3383 24.8786 25.6643 26.5464 23.6148 26.5464H5.38519C3.32958 26.5464 1.66171 24.8724 1.66171 22.823V15.1421C1.66171 14.6805 1.29244 14.3113 0.830857 14.3113C0.36927 14.3113 0 14.6805 0 15.1421V22.823C0 25.7956 2.41872 28.2082 5.38519 28.2082H23.6148C26.5874 28.2082 29 25.7894 29 22.823V15.2652C29 14.8098 28.6307 14.4344 28.1691 14.4344Z" fill="#FBFAFA"/>
<path d="M13.9151 21.6105C14.0752 21.7705 14.2906 21.8567 14.4998 21.8567C14.7091 21.8567 14.9245 21.7767 15.0845 21.6105L20.3651 16.3299C20.6912 16.0037 20.6912 15.4806 20.3651 15.1544C20.0389 14.8282 19.5157 14.8282 19.1896 15.1544L15.3307 19.0194V2.16228C15.3307 1.70069 14.9614 1.33142 14.4998 1.33142C14.0382 1.33142 13.669 1.70069 13.669 2.16228V19.0194L9.80394 15.1544C9.47775 14.8282 8.95462 14.8282 8.62843 15.1544C8.30224 15.4806 8.30224 16.0037 8.62843 16.3299L13.9151 21.6105Z" fill="#FBFAFA"/>
</svg>
