<svg width="51" height="51" viewBox="0 0 51 51" fill="none" xmlns="http://www.w3.org/2000/svg">
<g clip-path="url(#clip0)">
<path d="M47.2172 22.5993V8.70765C47.2172 8.44345 47.1121 8.19015 46.9254 8.00338L39.2138 0.291824C39.027 0.105057 38.7737 0 38.5095 0H13.9438C12.2955 0 10.9551 1.34084 10.9551 2.98867V5.57268H8.37108C6.72324 5.57268 5.38241 6.91351 5.38241 8.56135V21.2549C4.64273 22.3662 4.21044 23.6989 4.21044 25.1307C4.21044 25.3786 4.22406 25.6276 4.25052 25.8763C2.00775 27.0965 0.597656 29.4342 0.597656 32.033C0.597656 35.9014 3.74664 39.0484 7.617 39.0484H18.2616L24.6358 50.4887C24.8117 50.8043 25.1448 51 25.5058 51C25.8673 51 26.2004 50.8043 26.3763 50.4887L32.7501 39.0484H41.013C46.197 39.0484 50.4144 34.8333 50.4144 29.6525C50.4144 26.8455 49.1759 24.3226 47.2172 22.5993ZM39.5056 3.40112L43.8161 7.71156H40.9068C40.134 7.71156 39.5056 7.08316 39.5056 6.31041V3.40112ZM8.37108 7.56487H10.9551V18.1223C9.63643 18.1737 8.41038 18.5892 7.37498 19.2721V8.56135C7.37498 8.01194 7.82167 7.56487 8.37108 7.56487ZM25.5058 47.9569L19.7242 37.5796C19.723 37.5776 19.7223 37.5761 19.7215 37.5745L18.9666 36.2197H21.8724C22.4226 36.2197 22.8685 35.7738 22.8685 35.2236V26.2938H28.1435V35.2236C28.1435 35.7738 28.5894 36.2197 29.1396 36.2197H32.0454L31.291 37.5734C31.2898 37.5757 31.2886 37.5776 31.2875 37.58L25.5058 47.9569ZM41.013 37.0562H33.8602L34.6111 35.7084C34.7831 35.3998 34.7788 35.0236 34.5999 34.7189C34.4209 34.4143 34.094 34.2275 33.7407 34.2275H30.1357V25.2977C30.1357 24.7475 29.6898 24.3016 29.1396 24.3016H21.8724C21.3222 24.3016 20.8759 24.7475 20.8759 25.2977V34.2275H17.2709C16.918 34.2275 16.5908 34.4143 16.4122 34.7189C16.2332 35.0236 16.2289 35.3998 16.4005 35.7084L17.1515 37.0562H7.61662C4.84506 37.0562 2.58984 34.8026 2.58984 32.033C2.58984 29.9781 3.82212 28.1505 5.72871 27.3778C6.18045 27.1945 6.43336 26.7117 6.32636 26.2362C6.24426 25.8708 6.20263 25.4988 6.20263 25.1307C6.20263 22.3607 8.45785 20.1075 11.2298 20.1075C11.401 20.1075 11.5811 20.1176 11.7652 20.137C12.2193 20.1849 12.6477 19.9184 12.8053 19.49C14.2932 15.4402 17.6398 12.2593 21.7565 10.9815C22.2822 10.8185 22.5759 10.2605 22.4125 9.73487C22.2495 9.20959 21.6915 8.91543 21.1658 9.07885C17.8394 10.1111 14.9542 12.2309 12.9473 15.0192V2.98867C12.9473 2.43926 13.394 1.99258 13.9434 1.99258H37.513V6.31041C37.513 8.18159 39.0352 9.70413 40.9068 9.70413H45.2246V21.2538C44.0406 20.6581 42.7145 20.3051 41.3114 20.2612C39.9286 14.9593 35.8979 10.7158 30.6229 9.07885C30.0976 8.91582 29.5392 9.20959 29.3762 9.73487C29.2132 10.2602 29.5069 10.8185 30.0322 10.9815C34.8788 12.4858 38.5251 16.5044 39.548 21.4689C39.6476 21.953 40.0869 22.2911 40.5807 22.2627C40.743 22.2534 40.8842 22.2487 41.0126 22.2487C45.0981 22.2487 48.4218 25.57 48.4218 29.6521C48.4218 33.7345 45.0985 37.0562 41.013 37.0562Z" fill="white"/>
<path d="M25.8945 8.36523C25.6327 8.36523 25.3755 8.47185 25.1903 8.65706C25.0051 8.84227 24.8984 9.09946 24.8984 9.36133C24.8984 9.62319 25.0051 9.88039 25.1903 10.0656C25.3755 10.2508 25.6327 10.3574 25.8945 10.3574C26.1576 10.3574 26.4136 10.2508 26.5988 10.0656C26.7852 9.88039 26.8906 9.62319 26.8906 9.36133C26.8906 9.09946 26.7852 8.84227 26.5988 8.65706C26.4136 8.47185 26.1564 8.36523 25.8945 8.36523Z" fill="white"/>
</g>
<defs>
<clipPath id="clip0">
<rect width="51" height="51" fill="white"/>
</clipPath>
</defs>
</svg>
