<svg width="32" height="33" viewBox="0 0 32 33" fill="none" xmlns="http://www.w3.org/2000/svg">
<g clip-path="url(#clip0)">
<path d="M16 0.269836C7.17764 0.269836 0 7.44747 0 16.2698C0 25.0916 7.17764 32.2698 16 32.2698C24.8217 32.2698 32 25.0916 32 16.2698C32 7.44747 24.823 0.269836 16 0.269836ZM19.9791 16.8331H17.376C17.376 20.992 17.376 26.1111 17.376 26.1111H13.5187C13.5187 26.1111 13.5187 21.0416 13.5187 16.8331H11.6852V13.554H13.5187V11.433C13.5187 9.91392 14.2406 7.54028 17.4114 7.54028L20.2697 7.55123V10.7343C20.2697 10.7343 18.5328 10.7343 18.1951 10.7343C17.8574 10.7343 17.3773 10.9032 17.3773 11.6276V13.5546H20.3161L19.9791 16.8331Z" fill="#425C5A"/>
</g>
<defs>
<clipPath id="clip0">
<rect y="0.269836" width="32" height="32" fill="white"/>
</clipPath>
</defs>
</svg>
