<svg width="25" height="25" viewBox="0 0 25 25" fill="none" xmlns="http://www.w3.org/2000/svg">
<g clip-path="url(#clip0)">
<path d="M12.9468 24.9852C14.8585 24.7136 16.5344 22.7183 17.589 19.7716C16.0645 19.4302 14.5088 19.2469 12.9468 19.2251V24.9852Z" fill="#425C5A"/>
<path d="M16.0012 24.5167C16.1143 24.4839 16.2268 24.451 16.3385 24.4148C16.4328 24.3845 16.5257 24.3517 16.6186 24.3192C16.7286 24.2813 16.8381 24.2422 16.9472 24.2008C17.0401 24.1654 17.1322 24.1279 17.2245 24.0904C17.3309 24.0456 17.4372 24.0011 17.5423 23.9564C17.6342 23.9161 17.7254 23.8737 17.8166 23.8312C17.9198 23.7825 18.0225 23.733 18.1244 23.6815C18.2138 23.6359 18.3031 23.5895 18.3925 23.5417C18.4927 23.488 18.5921 23.4333 18.691 23.377C18.7804 23.3264 18.8666 23.2755 18.9536 23.2232C19.0505 23.1636 19.1469 23.1041 19.2427 23.0445C19.3284 22.99 19.414 22.9345 19.4984 22.8774C19.5926 22.8139 19.6856 22.7478 19.7781 22.6817C19.8612 22.6221 19.9439 22.5628 20.025 22.503C20.1145 22.4341 20.2061 22.3627 20.2958 22.2912C20.3754 22.2277 20.4548 22.1647 20.5331 22.0994C20.6223 22.0252 20.7079 21.9485 20.7945 21.8717C20.8704 21.8043 20.9468 21.7375 21.0209 21.6683C21.1062 21.5887 21.1894 21.5062 21.2725 21.4244C21.3445 21.3533 21.4173 21.2833 21.4878 21.2104C21.5009 21.1969 21.5133 21.1823 21.5268 21.1683C20.5523 20.665 19.5259 20.2699 18.4654 19.9902C17.9139 21.7491 16.9324 23.3429 15.6099 24.627C15.6461 24.6177 15.6823 24.61 15.7185 24.6007C15.8141 24.5738 15.9079 24.5444 16.0012 24.5167Z" fill="#425C5A"/>
<path d="M25 12.957H19.6428C19.6225 15.0488 19.3191 17.1281 18.7407 19.1384C19.9201 19.4535 21.0583 19.9064 22.1316 20.4878C23.8939 18.3637 24.9027 15.7155 25 12.957Z" fill="#425C5A"/>
<path d="M12.9468 12.0635H18.7492C18.7265 10.0458 18.4305 8.04042 17.8696 6.10205C16.2539 6.47053 14.6037 6.66731 12.9468 6.68912V12.0635Z" fill="#425C5A"/>
<path d="M12.9468 0.0354004V5.79553C14.5088 5.77349 16.0645 5.59046 17.589 5.24903C16.5344 2.30232 14.8585 0.307012 12.9468 0.0354004Z" fill="#425C5A"/>
<path d="M12.9468 18.3314C14.6037 18.3535 16.2539 18.5503 17.8696 18.9187C18.4305 16.9804 18.7265 14.9748 18.7492 12.957H12.9468V18.3314Z" fill="#425C5A"/>
<path d="M22.1316 4.53271C21.0583 5.11412 19.9201 5.56702 18.7407 5.88205C19.3191 7.89241 19.6225 9.97171 19.6428 12.0634H25C24.9025 9.30523 23.8937 6.65696 22.1316 4.53271Z" fill="#425C5A"/>
<path d="M21.5279 3.85486C21.5148 3.84156 21.5024 3.82716 21.4895 3.81341C21.4188 3.74055 21.3455 3.6703 21.2735 3.5994C21.1906 3.51759 21.1079 3.4349 21.0224 3.35549C20.9485 3.28655 20.8719 3.22132 20.796 3.1526C20.7094 3.07581 20.6227 2.99836 20.5337 2.92419C20.4565 2.85896 20.3773 2.79656 20.2988 2.73395C20.2093 2.66152 20.1177 2.58953 20.0256 2.52037C19.9449 2.4595 19.8631 2.4006 19.7809 2.34169C19.6875 2.2745 19.5937 2.20752 19.4986 2.1436C19.415 2.08732 19.3301 2.03234 19.2453 1.97845C19.1486 1.91628 19.0522 1.85541 18.9538 1.79651C18.8676 1.7448 18.7806 1.69375 18.6933 1.64423C18.5934 1.58707 18.4933 1.53166 18.3923 1.47755C18.3028 1.43283 18.2136 1.38418 18.1241 1.33946C18.0214 1.28754 17.9178 1.23758 17.8115 1.18849C17.7221 1.14595 17.6313 1.1045 17.5392 1.06414C17.4334 1.01723 17.3265 0.974909 17.2199 0.930186C17.1278 0.892662 17.0362 0.855575 16.9432 0.820233C16.8348 0.778782 16.7248 0.739949 16.6149 0.701989C16.522 0.669265 16.429 0.636759 16.3348 0.606216C16.2231 0.570001 16.1114 0.537059 15.9966 0.503898C15.9037 0.476628 15.8103 0.448921 15.7163 0.424051C15.6803 0.414233 15.6436 0.406598 15.6074 0.397217C16.9299 1.68132 17.9112 3.27499 18.4629 5.03403C19.5245 4.75435 20.5525 4.35904 21.5279 3.85486Z" fill="#425C5A"/>
<path d="M0 12.0634H5.35718C5.37747 9.97171 5.68094 7.89241 6.25907 5.88205C5.0799 5.56724 3.94175 5.11433 2.86839 4.53271C1.10608 6.65674 0.0973002 9.30523 0 12.0634Z" fill="#425C5A"/>
<path d="M12.0534 24.9852V19.2251C10.4914 19.2471 8.93565 19.4302 7.41113 19.7716C8.46551 22.7183 10.1416 24.7136 12.0534 24.9852Z" fill="#425C5A"/>
<path d="M12.0534 12.957H6.25098C6.27367 14.9748 6.56949 16.9804 7.13061 18.9187C8.74631 18.55 10.3963 18.3533 12.0534 18.3314V12.957Z" fill="#425C5A"/>
<path d="M12.0534 0.0354004C10.1416 0.307012 8.46551 2.30232 7.41113 5.24903C8.93565 5.59068 10.4914 5.77371 12.0534 5.79553V0.0354004Z" fill="#425C5A"/>
<path d="M12.0534 6.68912C10.3965 6.66731 8.74631 6.47053 7.13061 6.10205C6.56949 8.04042 6.27367 10.0458 6.25098 12.0635H12.0534V6.68912Z" fill="#425C5A"/>
<path d="M9.38882 0.396729C9.35261 0.406109 9.31639 0.413745 9.28018 0.423126C9.18549 0.448433 9.09212 0.476576 8.99787 0.503846C8.88574 0.53657 8.77448 0.569513 8.6619 0.605291C8.567 0.636052 8.47363 0.668776 8.38026 0.701283C8.27096 0.739897 8.16144 0.778294 8.05323 0.819308C7.95986 0.855087 7.8678 0.892174 7.7753 0.930134C7.66905 0.974858 7.56259 1.01958 7.45765 1.06409C7.36559 1.10445 7.27461 1.14677 7.18342 1.18931C7.08023 1.23796 6.97748 1.28748 6.8756 1.33897C6.78615 1.38457 6.6967 1.43125 6.60748 1.47881C6.50734 1.53248 6.40808 1.58746 6.30947 1.64374C6.22002 1.6937 6.1321 1.74497 6.04593 1.79733C5.94884 1.8558 5.85285 1.91623 5.7573 1.976C5.67134 2.03098 5.58604 2.08639 5.50161 2.14355C5.40737 2.20704 5.31443 2.27314 5.22193 2.33924C5.13881 2.3988 5.05613 2.45814 4.97475 2.51813C4.88334 2.58686 4.79608 2.65841 4.70401 2.72975C4.6246 2.79324 4.54454 2.85629 4.46687 2.92195C4.37743 2.99569 4.29256 3.07205 4.20639 3.1484C4.13003 3.21647 4.05302 3.28257 3.97841 3.35304C3.89354 3.43223 3.81086 3.51448 3.72796 3.59607C3.65596 3.66719 3.58266 3.73744 3.51198 3.81053C3.49911 3.82405 3.48667 3.83889 3.47314 3.85263C4.44746 4.35615 5.47412 4.75124 6.53461 5.03092C7.08612 3.27297 8.06698 1.68018 9.38882 0.396729Z" fill="#425C5A"/>
<path d="M3.72625 21.4211C3.80937 21.5029 3.89206 21.5856 3.97736 21.6652C4.05153 21.7339 4.12789 21.7991 4.20403 21.8679C4.29064 21.9449 4.37725 22.0221 4.46626 22.0963C4.54349 22.1611 4.62225 22.2237 4.70122 22.2865C4.79067 22.3589 4.87989 22.4309 4.97458 22.5005C5.05508 22.561 5.13689 22.6194 5.2187 22.6794C5.31207 22.7464 5.40632 22.8134 5.50144 22.8777C5.58499 22.934 5.66986 22.989 5.75472 23.0431C5.85137 23.1051 5.9478 23.1659 6.04619 23.2248C6.13236 23.2767 6.21941 23.3276 6.30667 23.3773C6.40659 23.4345 6.50673 23.4899 6.60774 23.5438C6.69697 23.5885 6.78641 23.6372 6.87586 23.6819C6.97861 23.7338 7.08224 23.7838 7.18848 23.8331C7.27793 23.8752 7.36869 23.9166 7.46075 23.9572C7.56656 24.0041 7.67324 24.0464 7.78014 24.0911C7.8722 24.1287 7.96383 24.1658 8.05677 24.2011C8.1652 24.2428 8.27515 24.2816 8.3851 24.3196C8.47804 24.3521 8.57098 24.3848 8.66522 24.4151C8.77692 24.4513 8.88862 24.4845 9.00337 24.5174C9.09631 24.5447 9.18968 24.5724 9.28349 24.5975C9.31971 24.6073 9.35636 24.615 9.39257 24.6243C8.07008 23.34 7.08878 21.7463 6.53705 19.9873C5.47657 20.2672 4.4499 20.6623 3.47559 21.166C3.48868 21.1793 3.50111 21.1937 3.5142 21.2075C3.58118 21.2799 3.65339 21.3502 3.72625 21.4211Z" fill="#425C5A"/>
<path d="M2.86839 20.4878C3.94175 19.9064 5.0799 19.4535 6.25907 19.1384C5.68094 17.1281 5.37747 15.0488 5.35718 12.957H0C0.0975184 15.7153 1.10608 18.3635 2.86839 20.4878Z" fill="#425C5A"/>
</g>
<defs>
<clipPath id="clip0">
<rect width="25" height="25" fill="white"/>
</clipPath>
</defs>
</svg>
