<svg width="32" height="33" viewBox="0 0 32 33" fill="none" xmlns="http://www.w3.org/2000/svg">
<g clip-path="url(#clip0)">
<path d="M19.0625 16.2698C19.0625 17.9612 17.6914 19.3323 16 19.3323C14.3086 19.3323 12.9375 17.9612 12.9375 16.2698C12.9375 14.5784 14.3086 13.2073 16 13.2073C17.6914 13.2073 19.0625 14.5784 19.0625 16.2698Z" fill="#425C5A"/>
<path d="M23.1621 10.8514C23.0149 10.4525 22.78 10.0914 22.4749 9.79498C22.1785 9.48981 21.8176 9.25494 21.4185 9.10773C21.0947 8.98199 20.6084 8.83234 19.7126 8.79156C18.7437 8.74738 18.4531 8.73785 16 8.73785C13.5466 8.73785 13.2561 8.74713 12.2874 8.79132C11.3916 8.83234 10.905 8.98199 10.5815 9.10773C10.1824 9.25494 9.82129 9.48981 9.52515 9.79498C9.21997 10.0914 8.98511 10.4522 8.83765 10.8514C8.71191 11.1751 8.56226 11.6617 8.52148 12.5574C8.47729 13.5262 8.46777 13.8167 8.46777 16.2701C8.46777 18.7232 8.47729 19.0137 8.52148 19.9827C8.56226 20.8785 8.71191 21.3648 8.83765 21.6885C8.98511 22.0877 9.21973 22.4485 9.5249 22.7449C9.82129 23.0501 10.1821 23.285 10.5813 23.4322C10.905 23.5582 11.3916 23.7078 12.2874 23.7486C13.2561 23.7928 13.5464 23.8021 15.9998 23.8021C18.4534 23.8021 18.7439 23.7928 19.7124 23.7486C20.6082 23.7078 21.0947 23.5582 21.4185 23.4322C22.2197 23.1231 22.853 22.4898 23.1621 21.6885C23.2878 21.3648 23.4375 20.8785 23.4785 19.9827C23.5227 19.0137 23.532 18.7232 23.532 16.2701C23.532 13.8167 23.5227 13.5262 23.4785 12.5574C23.4377 11.6617 23.2881 11.1751 23.1621 10.8514ZM16 20.9876C13.3943 20.9876 11.282 18.8755 11.282 16.2698C11.282 13.6641 13.3943 11.5521 16 11.5521C18.6055 11.5521 20.7178 13.6641 20.7178 16.2698C20.7178 18.8755 18.6055 20.9876 16 20.9876ZM20.9043 12.4681C20.2954 12.4681 19.8018 11.9744 19.8018 11.3655C19.8018 10.7567 20.2954 10.263 20.9043 10.263C21.5132 10.263 22.0068 10.7567 22.0068 11.3655C22.0066 11.9744 21.5132 12.4681 20.9043 12.4681Z" fill="#425C5A"/>
<path d="M16 0.269836C7.16479 0.269836 0 7.43463 0 16.2698C0 25.105 7.16479 32.2698 16 32.2698C24.8352 32.2698 32 25.105 32 16.2698C32 7.43463 24.8352 0.269836 16 0.269836ZM25.1321 20.0577C25.0876 21.0357 24.9321 21.7034 24.7051 22.2879C24.2278 23.522 23.2522 24.4976 22.0181 24.9749C21.4338 25.202 20.7659 25.3572 19.7881 25.4019C18.8083 25.4466 18.4954 25.4573 16.0002 25.4573C13.5049 25.4573 13.1921 25.4466 12.2122 25.4019C11.2344 25.3572 10.5664 25.202 9.98218 24.9749C9.3689 24.7442 8.81372 24.3826 8.35474 23.9151C7.88745 23.4564 7.52588 22.9009 7.29517 22.2879C7.06812 21.7037 6.9126 21.0357 6.86816 20.0579C6.823 19.0779 6.8125 18.765 6.8125 16.2698C6.8125 13.7747 6.823 13.4617 6.86792 12.482C6.91235 11.504 7.06763 10.8362 7.29468 10.2518C7.52539 9.63873 7.88721 9.08331 8.35474 8.62457C8.81348 8.15704 9.3689 7.79547 9.98193 7.56476C10.5664 7.33771 11.2341 7.18243 12.2122 7.13776C13.1919 7.09308 13.5049 7.08234 16 7.08234C18.4951 7.08234 18.8081 7.09308 19.7878 7.138C20.7659 7.18243 21.4336 7.33771 22.0181 7.56451C22.6311 7.79523 23.1865 8.15704 23.6455 8.62457C24.1128 9.08356 24.4746 9.63873 24.7051 10.2518C24.9324 10.8362 25.0876 11.504 25.1323 12.482C25.177 13.4617 25.1875 13.7747 25.1875 16.2698C25.1875 18.765 25.177 19.0779 25.1321 20.0577Z" fill="#425C5A"/>
</g>
<defs>
<clipPath id="clip0">
<rect y="0.269836" width="32" height="32" fill="white"/>
</clipPath>
</defs>
</svg>
