<svg width="321" height="134" viewBox="0 0 321 134" fill="none" xmlns="http://www.w3.org/2000/svg">
<path d="M140.958 42.3937L127.062 82.0223L155.164 82.0223L140.958 42.3937ZM175.855 107.52C176.164 108.441 176.473 109.056 176.473 109.67C176.473 110.285 176.473 110.592 175.855 110.899C175.546 111.206 174.928 111.513 174.311 111.513C173.693 111.513 172.458 111.513 171.223 111.513C169.987 111.513 168.752 111.513 168.134 111.513C167.517 111.513 166.899 111.206 166.282 111.206C165.973 111.206 165.664 110.899 165.355 110.592C165.046 110.285 165.046 109.977 164.737 109.67L157.943 90.3166L124.282 90.3166L117.797 109.363C117.797 109.67 117.488 109.977 117.179 110.285C116.87 110.592 116.562 110.899 116.253 110.899C115.944 111.206 115.326 111.206 114.709 111.206C114.091 111.206 113.165 111.206 111.929 111.206C110.694 111.206 109.768 111.206 108.841 111.206C108.224 111.206 107.606 110.899 107.297 110.592C106.988 110.285 106.988 109.977 106.988 109.363C106.988 108.749 107.297 108.134 107.606 107.213L134.782 33.1777C135.091 32.8705 135.091 32.2561 135.4 31.9489C135.708 31.6417 136.017 31.3345 136.635 31.3345C137.253 31.0273 137.87 31.0273 138.488 31.0273C139.414 31.0273 140.341 31.0273 141.576 31.0273C142.811 31.0273 144.047 31.0273 144.973 31.0273C145.899 31.0273 146.517 31.3345 147.135 31.3345C147.752 31.6417 148.061 31.6417 148.37 31.9489C148.679 32.2561 148.988 32.5633 148.988 33.1777L175.855 107.52Z" fill="#00607B"/>
<path d="M249.972 109.977C249.972 110.284 249.972 110.591 249.663 110.898C249.354 111.206 249.354 111.206 248.736 111.513C248.428 111.82 247.81 111.82 247.192 111.82C246.575 111.82 245.648 111.82 244.722 111.82C243.795 111.82 242.869 111.82 242.251 111.82C241.634 111.82 241.016 111.513 240.707 111.513C240.398 111.206 240.089 111.206 239.781 110.898C239.472 110.591 239.472 110.284 239.472 109.977L239.472 57.753C239.472 56.5242 239.472 55.2955 239.472 53.7595C239.472 52.5307 239.472 50.9947 239.781 50.0731C239.472 50.6875 239.163 51.3019 238.545 51.9163C238.237 52.5307 237.619 53.1451 237.31 54.0667C237.001 54.6811 236.384 55.6027 236.075 56.217C235.766 56.8314 235.148 57.753 234.839 58.3674L199.325 109.977C199.016 110.284 198.708 110.591 198.708 110.898C198.399 111.206 198.09 111.206 197.781 111.513C197.472 111.513 196.855 111.82 196.237 111.82C195.619 111.82 195.002 111.82 194.075 111.82C193.149 111.82 192.222 111.82 191.605 111.82C190.987 111.82 190.37 111.513 190.061 111.513C189.752 111.206 189.443 111.206 189.443 110.898C189.443 110.591 189.134 110.284 189.134 109.977L189.134 33.1772C189.134 32.87 189.134 32.5628 189.443 32.2556C189.752 31.9484 190.061 31.9484 190.37 31.6412C190.678 31.334 191.296 31.334 191.914 31.334C192.531 31.334 193.458 31.334 194.384 31.334C195.311 31.334 196.237 31.334 196.855 31.334C197.472 31.334 198.09 31.6412 198.399 31.6412C198.708 31.9484 199.016 31.9484 199.325 32.2556C199.634 32.5628 199.634 32.87 199.634 33.1772L199.634 85.7081C199.634 86.9369 199.634 87.8585 199.634 89.3945C199.634 90.6233 199.634 91.8521 199.325 93.0808C199.943 92.1593 200.869 90.9305 201.796 89.3945C202.722 87.8585 203.649 86.6297 204.575 85.0937L239.472 33.1772C239.781 32.87 239.781 32.5628 240.089 32.5628C240.398 32.2556 240.707 32.2556 241.016 31.9484C241.325 31.9484 241.942 31.6412 242.56 31.6412C243.178 31.6412 243.795 31.6412 244.722 31.6412C245.648 31.6412 246.575 31.6412 247.192 31.6412C247.81 31.6412 248.428 31.9484 248.736 31.9484C249.045 32.2556 249.354 32.2556 249.354 32.5628C249.354 32.87 249.663 33.1772 249.663 33.4844L249.663 109.977L249.972 109.977Z" fill="#00607B"/>
<path d="M309.574 55.9097C309.574 52.5305 308.956 50.0729 307.721 47.9226C306.486 45.7722 304.942 44.2362 303.089 43.0074C301.236 41.7786 299.383 41.1642 297.53 40.857C295.677 40.5498 293.824 40.5498 291.971 40.5498L282.089 40.5498L282.089 72.4984L291.663 72.4984C295.06 72.4984 297.53 72.1912 299.692 71.2696C301.854 70.348 303.707 69.4264 304.942 67.8904C306.486 66.3545 307.412 64.8185 308.339 62.6681C309.265 60.5177 309.574 58.3673 309.574 55.9097ZM321 54.9881C321 58.9817 320.383 62.6681 319.147 65.7401C317.912 68.812 316.059 71.5768 313.589 74.0344C311.118 76.1848 308.03 78.028 304.324 79.2568C300.618 80.4856 296.295 81.1 291.354 81.1L282.089 81.1L282.089 109.669C282.089 109.977 282.089 110.284 281.78 110.591C281.472 110.898 281.163 110.898 280.854 111.205C280.545 111.205 279.927 111.513 279.31 111.513C278.692 111.513 277.766 111.82 276.839 111.82C275.913 111.82 274.986 111.82 274.369 111.513C273.751 111.513 273.133 111.205 272.825 111.205C272.516 111.205 272.207 110.898 271.898 110.591C271.589 110.284 271.589 109.977 271.589 109.669L271.589 36.249C271.589 34.713 271.898 33.4842 272.825 32.8698C273.751 32.2554 274.678 31.9482 275.913 31.9482L293.207 31.9482C295.06 31.9482 296.604 31.9482 298.148 32.2554C299.692 32.2554 301.545 32.5626 303.707 33.177C305.868 33.7914 308.03 34.4058 310.501 35.9418C312.662 37.1706 314.824 38.7066 316.368 40.857C317.912 42.7002 319.148 44.8506 320.074 47.3082C320.383 49.4585 321 51.9161 321 54.9881Z" fill="#00607B"/>
<path d="M0.445313 84.4794L18.048 94.0025L18.048 37.7852L0.445312 28.8765L0.445313 84.4794Z" fill="#00607B"/>
<path d="M0.445313 28.8769L18.048 37.7856L38.7389 26.7265L21.1362 16.2817L0.445313 28.8769Z" fill="#0082B5"/>
<path d="M52.3276 87.2445L98.6505 60.8254L98.6505 84.7869L52.3276 112.128L52.3276 87.2445Z" fill="#E41A20"/>
<path d="M28.5479 99.5324L28.5479 77.1069L52.3269 87.2445L52.3269 112.128L28.5479 99.5324Z" fill="#A31915"/>
<path d="M48.9305 -8.89039e-10L31.019 10.7519L80.4301 38.3998L98.6504 27.0335L48.9305 -8.89039e-10Z" fill="#BEC3C2"/>
<path d="M98.6505 50.688L80.4302 60.2111L80.4302 38.4L98.6505 27.0337L98.6505 50.688Z" fill="#949499"/>
<path d="M10.5566 126.764H5.93359L5.05469 129.4H2.25098L7.01465 116.604H9.45801L14.248 129.4H11.4443L10.5566 126.764ZM6.64551 124.628H9.84473L8.23633 119.838L6.64551 124.628Z" fill="#6D6D6D"/>
<path d="M21.332 121.947H17.3945V129.4H14.8545V119.891H21.332V121.947Z" fill="#6D6D6D"/>
<path d="M26.5967 129.576C25.2021 129.576 24.0654 129.148 23.1865 128.293C22.3135 127.438 21.877 126.298 21.877 124.874V124.628C21.877 123.673 22.0615 122.82 22.4307 122.07C22.7998 121.314 23.3213 120.734 23.9951 120.33C24.6748 119.92 25.4482 119.715 26.3154 119.715C27.6162 119.715 28.6387 120.125 29.3828 120.945C30.1328 121.766 30.5078 122.929 30.5078 124.435V125.472H24.4521C24.5342 126.093 24.7803 126.591 25.1904 126.966C25.6064 127.341 26.1309 127.528 26.7637 127.528C27.7422 127.528 28.5068 127.174 29.0576 126.465L30.3057 127.862C29.9248 128.401 29.4092 128.823 28.7588 129.128C28.1084 129.427 27.3877 129.576 26.5967 129.576ZM26.3066 121.771C25.8027 121.771 25.3926 121.941 25.0762 122.281C24.7656 122.621 24.5664 123.107 24.4785 123.74H28.0117V123.538C28 122.976 27.8477 122.542 27.5547 122.237C27.2617 121.927 26.8457 121.771 26.3066 121.771Z" fill="#6D6D6D"/>
<path d="M40.2021 129.4H37.6533V125.744H34.498V129.4H31.958V119.891H34.498V123.705H37.6533V119.891H40.2021V129.4Z" fill="#6D6D6D"/>
<path d="M50.0635 121.93H47.0137V129.4H44.4648V121.93H41.4678V119.891H50.0635V121.93Z" fill="#6D6D6D"/>
<path d="M54.7393 127.528C55.208 127.528 55.5889 127.399 55.8818 127.142C56.1748 126.884 56.3271 126.541 56.3389 126.113H58.7207C58.7148 126.758 58.5391 127.35 58.1934 127.889C57.8477 128.422 57.373 128.838 56.7695 129.137C56.1719 129.43 55.5098 129.576 54.7832 129.576C53.4238 129.576 52.3516 129.146 51.5664 128.284C50.7812 127.417 50.3887 126.222 50.3887 124.698V124.531C50.3887 123.066 50.7783 121.897 51.5576 121.024C52.3369 120.151 53.4062 119.715 54.7656 119.715C55.9551 119.715 56.9072 120.055 57.6221 120.734C58.3428 121.408 58.709 122.308 58.7207 123.433H56.3389C56.3271 122.94 56.1748 122.542 55.8818 122.237C55.5889 121.927 55.2021 121.771 54.7217 121.771C54.1299 121.771 53.6816 121.988 53.377 122.422C53.0781 122.85 52.9287 123.547 52.9287 124.514V124.777C52.9287 125.756 53.0781 126.459 53.377 126.887C53.6758 127.314 54.1299 127.528 54.7393 127.528Z" fill="#6D6D6D"/>
<path d="M68.0635 121.93H65.0137V129.4H62.4648V121.93H59.4678V119.891H68.0635V121.93Z" fill="#6D6D6D"/>
<path d="M69.5137 129.4V119.891H73.4863C74.7812 119.891 75.7744 120.119 76.4658 120.576C77.1572 121.033 77.5029 121.689 77.5029 122.545C77.5029 122.984 77.3564 123.38 77.0635 123.731C76.7764 124.077 76.3545 124.344 75.7979 124.531C76.4775 124.66 77.0107 124.915 77.3975 125.296C77.79 125.671 77.9863 126.134 77.9863 126.685C77.9863 127.569 77.6523 128.243 76.9844 128.706C76.3223 129.169 75.3584 129.4 74.0928 129.4H69.5137ZM72.0537 125.454V127.37H74.1016C74.998 127.37 75.4463 127.057 75.4463 126.43C75.4463 125.791 75.0186 125.466 74.1631 125.454H72.0537ZM72.0537 123.749H73.627C74.5176 123.737 74.9629 123.45 74.9629 122.888C74.9629 122.542 74.8398 122.296 74.5938 122.149C74.3535 122.003 73.9844 121.93 73.4863 121.93H72.0537V123.749Z" fill="#6D6D6D"/>
<path d="M79.1465 124.558C79.1465 123.614 79.3281 122.773 79.6914 122.035C80.0547 121.297 80.5762 120.726 81.2559 120.321C81.9414 119.917 82.7354 119.715 83.6377 119.715C84.9209 119.715 85.9668 120.107 86.7754 120.893C87.5898 121.678 88.0439 122.744 88.1377 124.092L88.1553 124.742C88.1553 126.201 87.748 127.373 86.9336 128.258C86.1191 129.137 85.0264 129.576 83.6553 129.576C82.2842 129.576 81.1885 129.137 80.3682 128.258C79.5537 127.379 79.1465 126.184 79.1465 124.672V124.558ZM81.6865 124.742C81.6865 125.645 81.8564 126.336 82.1963 126.816C82.5361 127.291 83.0225 127.528 83.6553 127.528C84.2705 127.528 84.751 127.294 85.0967 126.825C85.4424 126.351 85.6152 125.595 85.6152 124.558C85.6152 123.673 85.4424 122.987 85.0967 122.501C84.751 122.015 84.2646 121.771 83.6377 121.771C83.0166 121.771 82.5361 122.015 82.1963 122.501C81.8564 122.981 81.6865 123.729 81.6865 124.742Z" fill="#6D6D6D"/>
<path d="M99.9326 119.891H102.473V129.4H99.9326V123.529L96.751 129.4H94.2021V119.891H96.751V125.753L99.9326 119.891Z" fill="#6D6D6D"/>
<path d="M112.659 129.4H110.11V125.744H106.955V129.4H104.415V119.891H106.955V123.705H110.11V119.891H112.659V129.4Z" fill="#6D6D6D"/>
<path d="M122.872 129.4H120.323V125.744H117.168V129.4H114.628V119.891H117.168V123.705H120.323V119.891H122.872V129.4Z" fill="#6D6D6D"/>
<path d="M124.445 124.558C124.445 123.614 124.627 122.773 124.99 122.035C125.354 121.297 125.875 120.726 126.555 120.321C127.24 119.917 128.034 119.715 128.937 119.715C130.22 119.715 131.266 120.107 132.074 120.893C132.889 121.678 133.343 122.744 133.437 124.092L133.454 124.742C133.454 126.201 133.047 127.373 132.232 128.258C131.418 129.137 130.325 129.576 128.954 129.576C127.583 129.576 126.487 129.137 125.667 128.258C124.853 127.379 124.445 126.184 124.445 124.672V124.558ZM126.985 124.742C126.985 125.645 127.155 126.336 127.495 126.816C127.835 127.291 128.321 127.528 128.954 127.528C129.569 127.528 130.05 127.294 130.396 126.825C130.741 126.351 130.914 125.595 130.914 124.558C130.914 123.673 130.741 122.987 130.396 122.501C130.05 122.015 129.563 121.771 128.937 121.771C128.315 121.771 127.835 122.015 127.495 122.501C127.155 122.981 126.985 123.729 126.985 124.742Z" fill="#6D6D6D"/>
<path d="M135.186 129.4V119.891H139.158C140.453 119.891 141.446 120.119 142.138 120.576C142.829 121.033 143.175 121.689 143.175 122.545C143.175 122.984 143.028 123.38 142.735 123.731C142.448 124.077 142.026 124.344 141.47 124.531C142.149 124.66 142.683 124.915 143.069 125.296C143.462 125.671 143.658 126.134 143.658 126.685C143.658 127.569 143.324 128.243 142.656 128.706C141.994 129.169 141.03 129.4 139.765 129.4H135.186ZM137.726 125.454V127.37H139.773C140.67 127.37 141.118 127.057 141.118 126.43C141.118 125.791 140.69 125.466 139.835 125.454H137.726ZM137.726 123.749H139.299C140.189 123.737 140.635 123.45 140.635 122.888C140.635 122.542 140.512 122.296 140.266 122.149C140.025 122.003 139.656 121.93 139.158 121.93H137.726V123.749Z" fill="#6D6D6D"/>
<path d="M150.725 129.4C150.607 129.172 150.522 128.888 150.47 128.548C149.854 129.233 149.055 129.576 148.07 129.576C147.139 129.576 146.365 129.307 145.75 128.768C145.141 128.229 144.836 127.549 144.836 126.729C144.836 125.721 145.208 124.947 145.952 124.408C146.702 123.869 147.783 123.597 149.195 123.591H150.364V123.046C150.364 122.606 150.25 122.255 150.021 121.991C149.799 121.728 149.444 121.596 148.958 121.596C148.53 121.596 148.193 121.698 147.947 121.903C147.707 122.108 147.587 122.39 147.587 122.747H145.047C145.047 122.196 145.217 121.687 145.557 121.218C145.896 120.749 146.377 120.383 146.998 120.119C147.619 119.85 148.316 119.715 149.09 119.715C150.262 119.715 151.19 120.011 151.876 120.603C152.567 121.188 152.913 122.015 152.913 123.081V127.203C152.919 128.105 153.045 128.788 153.291 129.251V129.4H150.725ZM148.624 127.634C148.999 127.634 149.345 127.552 149.661 127.388C149.978 127.218 150.212 126.992 150.364 126.711V125.076H149.415C148.144 125.076 147.467 125.516 147.385 126.395L147.376 126.544C147.376 126.86 147.487 127.121 147.71 127.326C147.933 127.531 148.237 127.634 148.624 127.634Z" fill="#6D6D6D"/>
<path d="M154.864 119.891H157.404V127.353H160.586V119.891H163.135V127.37H164.559L164.383 132.222H162.019V129.4H154.864V119.891Z" fill="#6D6D6D"/>
<path d="M171.563 119.891H174.104V129.4H171.563V123.529L168.382 129.4H165.833V119.891H168.382V125.753L171.563 119.891Z" fill="#6D6D6D"/>
<path d="M175.65 124.558C175.65 123.614 175.832 122.773 176.195 122.035C176.559 121.297 177.08 120.726 177.76 120.321C178.445 119.917 179.239 119.715 180.142 119.715C181.425 119.715 182.471 120.107 183.279 120.893C184.094 121.678 184.548 122.744 184.642 124.092L184.659 124.742C184.659 126.201 184.252 127.373 183.438 128.258C182.623 129.137 181.53 129.576 180.159 129.576C178.788 129.576 177.692 129.137 176.872 128.258C176.058 127.379 175.65 126.184 175.65 124.672V124.558ZM178.19 124.742C178.19 125.645 178.36 126.336 178.7 126.816C179.04 127.291 179.526 127.528 180.159 127.528C180.774 127.528 181.255 127.294 181.601 126.825C181.946 126.351 182.119 125.595 182.119 124.558C182.119 123.673 181.946 122.987 181.601 122.501C181.255 122.015 180.769 121.771 180.142 121.771C179.521 121.771 179.04 122.015 178.7 122.501C178.36 122.981 178.19 123.729 178.19 124.742Z" fill="#6D6D6D"/>
<path d="M194.468 129.4H191.919V125.744H188.764V129.4H186.224V119.891H188.764V123.705H191.919V119.891H194.468V129.4Z" fill="#6D6D6D"/>
<path d="M204.681 129.4H202.132V125.744H198.977V129.4H196.437V119.891H198.977V123.705H202.132V119.891H204.681V129.4Z" fill="#6D6D6D"/>
<path d="M206.254 124.558C206.254 123.614 206.436 122.773 206.799 122.035C207.162 121.297 207.684 120.726 208.363 120.321C209.049 119.917 209.843 119.715 210.745 119.715C212.028 119.715 213.074 120.107 213.883 120.893C214.697 121.678 215.151 122.744 215.245 124.092L215.263 124.742C215.263 126.201 214.855 127.373 214.041 128.258C213.227 129.137 212.134 129.576 210.763 129.576C209.392 129.576 208.296 129.137 207.476 128.258C206.661 127.379 206.254 126.184 206.254 124.672V124.558ZM208.794 124.742C208.794 125.645 208.964 126.336 209.304 126.816C209.644 127.291 210.13 127.528 210.763 127.528C211.378 127.528 211.858 127.294 212.204 126.825C212.55 126.351 212.723 125.595 212.723 124.558C212.723 123.673 212.55 122.987 212.204 122.501C211.858 122.015 211.372 121.771 210.745 121.771C210.124 121.771 209.644 122.015 209.304 122.501C208.964 122.981 208.794 123.729 208.794 124.742Z" fill="#6D6D6D"/>
<path d="M223.305 121.947H219.367V129.4H216.827V119.891H223.305V121.947Z" fill="#6D6D6D"/>
<path d="M223.797 124.558C223.797 123.614 223.979 122.773 224.342 122.035C224.705 121.297 225.227 120.726 225.906 120.321C226.592 119.917 227.386 119.715 228.288 119.715C229.571 119.715 230.617 120.107 231.426 120.893C232.24 121.678 232.694 122.744 232.788 124.092L232.806 124.742C232.806 126.201 232.398 127.373 231.584 128.258C230.77 129.137 229.677 129.576 228.306 129.576C226.935 129.576 225.839 129.137 225.019 128.258C224.204 127.379 223.797 126.184 223.797 124.672V124.558ZM226.337 124.742C226.337 125.645 226.507 126.336 226.847 126.816C227.187 127.291 227.673 127.528 228.306 127.528C228.921 127.528 229.401 127.294 229.747 126.825C230.093 126.351 230.266 125.595 230.266 124.558C230.266 123.673 230.093 122.987 229.747 122.501C229.401 122.015 228.915 121.771 228.288 121.771C227.667 121.771 227.187 122.015 226.847 122.501C226.507 122.981 226.337 123.729 226.337 124.742Z" fill="#6D6D6D"/>
<path d="M247.413 124.733C247.413 126.198 247.079 127.373 246.411 128.258C245.749 129.137 244.853 129.576 243.722 129.576C242.761 129.576 241.984 129.242 241.393 128.574V133.057H238.853V119.891H241.208L241.296 120.822C241.911 120.084 242.714 119.715 243.704 119.715C244.876 119.715 245.787 120.148 246.438 121.016C247.088 121.883 247.413 123.078 247.413 124.602V124.733ZM244.873 124.549C244.873 123.664 244.715 122.981 244.398 122.501C244.088 122.021 243.634 121.78 243.036 121.78C242.239 121.78 241.691 122.085 241.393 122.694V126.588C241.703 127.215 242.257 127.528 243.054 127.528C244.267 127.528 244.873 126.535 244.873 124.549Z" fill="#6D6D6D"/>
<path d="M254.506 129.4C254.389 129.172 254.304 128.888 254.251 128.548C253.636 129.233 252.836 129.576 251.852 129.576C250.92 129.576 250.146 129.307 249.531 128.768C248.922 128.229 248.617 127.549 248.617 126.729C248.617 125.721 248.989 124.947 249.733 124.408C250.483 123.869 251.564 123.597 252.977 123.591H254.146V123.046C254.146 122.606 254.031 122.255 253.803 121.991C253.58 121.728 253.226 121.596 252.739 121.596C252.312 121.596 251.975 121.698 251.729 121.903C251.488 122.108 251.368 122.39 251.368 122.747H248.828C248.828 122.196 248.998 121.687 249.338 121.218C249.678 120.749 250.158 120.383 250.779 120.119C251.4 119.85 252.098 119.715 252.871 119.715C254.043 119.715 254.972 120.011 255.657 120.603C256.349 121.188 256.694 122.015 256.694 123.081V127.203C256.7 128.105 256.826 128.788 257.072 129.251V129.4H254.506ZM252.405 127.634C252.78 127.634 253.126 127.552 253.442 127.388C253.759 127.218 253.993 126.992 254.146 126.711V125.076H253.196C251.925 125.076 251.248 125.516 251.166 126.395L251.157 126.544C251.157 126.86 251.269 127.121 251.491 127.326C251.714 127.531 252.019 127.634 252.405 127.634Z" fill="#6D6D6D"/>
<path d="M263.638 122.694C263.638 122.36 263.526 122.103 263.304 121.921C263.087 121.733 262.776 121.64 262.372 121.64C261.956 121.64 261.616 121.728 261.353 121.903C261.095 122.073 260.966 122.316 260.966 122.633H258.426C258.426 121.771 258.783 121.071 259.498 120.532C260.213 119.993 261.127 119.724 262.24 119.724C263.465 119.724 264.426 119.964 265.123 120.444C265.826 120.925 266.178 121.607 266.178 122.492C266.178 122.914 266.049 123.304 265.791 123.661C265.539 124.013 265.182 124.294 264.719 124.505C265.803 124.886 266.345 125.621 266.345 126.711C266.345 127.584 265.97 128.281 265.22 128.803C264.476 129.318 263.482 129.576 262.24 129.576C261.086 129.576 260.137 129.307 259.393 128.768C258.648 128.229 258.276 127.502 258.276 126.588H260.816C260.816 126.91 260.96 127.171 261.247 127.37C261.534 127.569 261.909 127.669 262.372 127.669C262.823 127.669 263.175 127.563 263.427 127.353C263.679 127.142 263.805 126.866 263.805 126.526C263.805 126.11 263.685 125.814 263.444 125.639C263.204 125.457 262.844 125.366 262.363 125.366H260.983V123.714H262.451C263.242 123.69 263.638 123.351 263.638 122.694Z" fill="#6D6D6D"/>
<path d="M268.059 129.4V119.891H272.031C273.326 119.891 274.319 120.119 275.011 120.576C275.702 121.033 276.048 121.689 276.048 122.545C276.048 122.984 275.901 123.38 275.608 123.731C275.321 124.077 274.899 124.344 274.343 124.531C275.022 124.66 275.556 124.915 275.942 125.296C276.335 125.671 276.531 126.134 276.531 126.685C276.531 127.569 276.197 128.243 275.529 128.706C274.867 129.169 273.903 129.4 272.638 129.4H268.059ZM270.599 125.454V127.37H272.646C273.543 127.37 273.991 127.057 273.991 126.43C273.991 125.791 273.563 125.466 272.708 125.454H270.599ZM270.599 123.749H272.172C273.062 123.737 273.508 123.45 273.508 122.888C273.508 122.542 273.385 122.296 273.139 122.149C272.898 122.003 272.529 121.93 272.031 121.93H270.599V123.749Z" fill="#6D6D6D"/>
<path d="M283.817 119.891H286.357V129.4H283.817V123.529L280.636 129.4H278.087V119.891H280.636V125.753L283.817 119.891Z" fill="#6D6D6D"/>
<path d="M296.192 121.93H293.143V129.4H290.594V121.93H287.597V119.891H296.192V121.93Z" fill="#6D6D6D"/>
<path d="M303.206 119.891H305.746V129.4H303.206V123.529L300.024 129.4H297.476V119.891H300.024V125.753L303.206 119.891Z" fill="#6D6D6D"/>
<path d="M315.616 119.891V129.4H313.085V126.113H311.477L309.648 129.4H307.073L309.147 125.683C308.579 125.419 308.14 125.062 307.829 124.61C307.524 124.159 307.372 123.646 307.372 123.072C307.372 122.152 307.727 121.399 308.436 120.813C309.15 120.222 310.105 119.914 311.301 119.891H315.616ZM311.345 124.338H313.085V121.93H311.433C310.981 121.93 310.615 122.05 310.334 122.29C310.053 122.524 309.912 122.812 309.912 123.151C309.912 123.491 310.047 123.772 310.316 123.995C310.586 124.218 310.929 124.332 311.345 124.338Z" fill="#6D6D6D"/>
</svg>
