<svg width="138" height="138" viewBox="0 0 138 138" fill="none" xmlns="http://www.w3.org/2000/svg">
<g clip-path="url(#clip0)">
<path d="M69.1441 70.6393C52.8006 70.6393 39.5051 83.9348 39.5051 100.277C39.5051 116.62 52.8006 129.915 69.1441 129.915C85.4865 129.915 98.782 116.62 98.782 100.277C98.782 83.9348 85.4865 70.6393 69.1441 70.6393ZM69.1441 125.872C55.0305 125.872 43.5492 114.39 43.5492 100.277C43.5492 86.1647 55.0305 74.6833 69.1441 74.6833C83.2566 74.6833 94.738 86.1647 94.738 100.277C94.738 114.39 83.2566 125.872 69.1441 125.872ZM87.3564 94.3033C86.8858 92.8535 85.7318 91.7301 84.2694 91.2995L77.3469 89.2591C77.2195 89.2212 77.1089 89.1411 77.0342 89.0316L72.9533 83.0788C72.0921 81.8206 70.6676 81.0699 69.143 81.0699C67.6185 81.0699 66.194 81.8206 65.3327 83.0777L61.2529 89.0316C61.1782 89.1411 61.0666 89.2212 60.9402 89.2591L54.0166 91.2995C52.5553 91.7301 51.4014 92.8535 50.9297 94.3033C50.459 95.7531 50.7328 97.3397 51.6625 98.5474L56.0634 104.268C56.1445 104.373 56.1866 104.502 56.1834 104.635L55.9844 111.85C55.9423 113.374 56.6541 114.818 57.8869 115.714C59.1198 116.61 60.7139 116.841 62.15 116.329L68.9504 113.911C69.0746 113.866 69.2115 113.866 69.3368 113.911L76.1372 116.329C76.6415 116.508 77.1637 116.596 77.6849 116.596C78.6472 116.596 79.6 116.295 80.4002 115.714C81.6331 114.818 82.3438 113.374 82.3027 111.85L82.1037 104.634C82.1005 104.502 82.1427 104.373 82.2227 104.268L86.6247 98.5474C87.5543 97.3397 87.8281 95.7531 87.3564 94.3033ZM83.4198 96.0816L79.0178 101.802C78.3724 102.642 78.0323 103.687 78.0618 104.746L78.2597 111.961C78.2671 112.225 78.1144 112.376 78.0228 112.443C77.9312 112.509 77.7407 112.607 77.4911 112.52L70.6918 110.101C70.1927 109.923 69.6684 109.835 69.143 109.835C68.6187 109.835 68.0944 109.923 67.5953 110.101L60.7949 112.52C60.5465 112.607 60.3559 112.509 60.2632 112.443C60.1716 112.376 60.02 112.225 60.0264 111.961L60.2253 104.747C60.2548 103.687 59.9147 102.642 59.2683 101.802L54.8674 96.0816C54.7063 95.8731 54.741 95.6604 54.7758 95.553C54.8116 95.4446 54.9074 95.253 55.1611 95.1782L62.0847 93.1367C63.1007 92.8377 63.9893 92.1913 64.5884 91.3185L68.6693 85.3645C68.8177 85.1466 69.0304 85.114 69.1441 85.114C69.2567 85.114 69.4694 85.1466 69.6189 85.3645L73.6987 91.3185C74.2978 92.1913 75.1875 92.8377 76.2035 93.1378L83.126 95.1782C83.3798 95.253 83.4766 95.4446 83.5114 95.553C83.5461 95.6604 83.5809 95.8731 83.4198 96.0816ZM119.175 28.3987C117.573 22.4216 113.74 17.4269 108.381 14.3325L98.3893 8.56393C98.3851 8.56078 98.3809 8.55867 98.3777 8.55656L95.9635 7.16364C79.42 -2.38788 58.8672 -2.38788 42.3236 7.16364L39.9094 8.55656C39.9063 8.55867 39.9031 8.56078 39.9 8.56288L29.9062 14.3325C18.8439 20.7192 15.0399 34.9148 21.4265 45.9772L22.9005 48.5304C23.4596 49.4969 24.6957 49.8285 25.6632 49.2705C26.6298 48.7115 26.9614 47.4754 26.4023 46.5078L24.9283 43.9557C19.6567 34.8243 22.7974 23.107 31.9277 17.8343L31.9709 17.8101C31.7319 18.4271 31.5255 19.062 31.3508 19.7105C30.081 24.4505 30.7327 29.4 33.1869 33.6493L52.1994 66.5816C48.4755 68.4609 45.1053 70.9404 42.2131 73.8916L31.0781 54.6053C30.5201 53.6388 29.2829 53.3082 28.3164 53.8652C27.3489 54.4243 27.0183 55.6603 27.5763 56.6279L39.3988 77.1049C34.4019 83.5031 31.4213 91.549 31.4213 100.277C31.4213 121.077 48.3439 138 69.1441 138C78.9357 138 88.2166 134.266 95.2749 127.483C96.0804 126.709 96.1056 125.429 95.3328 124.625C94.559 123.819 93.2787 123.793 92.4743 124.567C86.1719 130.622 77.886 133.956 69.1441 133.956C50.5728 133.956 35.4643 118.849 35.4643 100.277C35.4643 81.7069 50.5728 66.5984 69.1441 66.5984C87.7144 66.5984 102.823 81.7069 102.823 100.277C102.823 106.403 101.163 112.398 98.0229 117.616C97.447 118.573 97.7555 119.815 98.7125 120.391C99.6696 120.967 100.912 120.657 101.488 119.701C105.006 113.854 106.866 107.137 106.866 100.277C106.866 91.548 103.885 83.5031 98.8883 77.1038L116.861 45.9772C119.954 40.6181 120.776 34.3758 119.175 28.3987ZM35.2569 20.7571C36.2476 17.0615 38.6176 13.9714 41.932 12.0584L44.3451 10.6644C59.641 1.83302 78.6461 1.83302 93.942 10.6644L96.3562 12.0584L96.3678 12.0657C99.6748 13.9788 102.041 17.0647 103.03 20.7571C103.844 23.7935 103.644 26.9405 102.487 29.8053L90.9466 23.1428C77.4985 15.378 60.7897 15.378 47.3415 23.1428L35.8012 29.8053C34.643 26.9415 34.443 23.7946 35.2569 20.7571ZM69.1441 62.5544C64.4947 62.5544 60.0411 63.402 55.9244 64.9476L37.6984 33.3787L49.363 26.6446C61.5646 19.601 76.7226 19.601 88.9241 26.6446L100.588 33.3787L82.3616 64.9476C78.246 63.402 73.7924 62.5544 69.1441 62.5544ZM113.359 43.9547L96.0741 73.8916C93.1819 70.9404 89.8117 68.4609 86.0877 66.5805L105.101 33.6493C107.554 29.4 108.206 24.4494 106.936 19.7105C106.763 19.062 106.555 18.4271 106.316 17.8091L106.359 17.8343C110.782 20.3886 113.947 24.5116 115.269 29.4452C116.591 34.3789 115.912 39.5316 113.359 43.9547Z" fill="#425C5A"/>
</g>
<defs>
<clipPath id="clip0">
<rect width="138" height="138" fill="white"/>
</clipPath>
</defs>
</svg>
