<svg width="121" height="87" viewBox="0 0 121 87" fill="none" xmlns="http://www.w3.org/2000/svg">
<circle cx="87" cy="54" r="30" fill="#D81A12"/>
<path d="M29.976 28.7101C29.8983 28.3334 29.6739 28.003 29.3525 27.7917C29.0311 27.5804 28.6388 27.5055 28.2621 27.5834C26.4727 27.9512 24.8405 28.8628 23.5888 30.1934C23.3405 30.4602 23.2018 30.8107 23.2002 31.1751V33.3501C23.2002 34.1509 23.8494 34.8001 24.6502 34.8001C25.451 34.8001 26.1002 34.1509 26.1002 33.3501V31.7841C26.8846 31.098 27.834 30.6277 28.8552 30.4196C29.6353 30.2549 30.136 29.4912 29.976 28.7101Z" fill="#425C5A"/>
<path d="M1.45 15.95C2.25081 15.95 2.9 15.3008 2.9 14.5V4.35C2.9 3.54919 3.54919 2.9 4.35 2.9H14.5C15.3008 2.9 15.95 2.25081 15.95 1.45C15.95 0.649187 15.3008 0 14.5 0H4.35C1.94756 0 0 1.94756 0 4.35V14.5C0 15.3008 0.649187 15.95 1.45 15.95Z" fill="#425C5A"/>
<path d="M82.6498 0H72.4998C71.699 0 71.0498 0.649187 71.0498 1.45C71.0498 2.25081 71.699 2.9 72.4998 2.9H82.6498C83.4506 2.9 84.0998 3.54919 84.0998 4.35V14.5C84.0998 15.3008 84.749 15.95 85.5498 15.95C86.3506 15.95 86.9998 15.3008 86.9998 14.5V4.35C86.9998 1.94756 85.0522 0 82.6498 0Z" fill="#425C5A"/>
<path d="M4.35 69.6H14.5C15.3008 69.6 15.95 68.9508 15.95 68.15C15.95 67.3492 15.3008 66.7 14.5 66.7H4.35C3.54919 66.7 2.9 66.0508 2.9 65.25V55.1C2.9 54.2992 2.25081 53.65 1.45 53.65C0.649187 53.65 0 54.2992 0 55.1V65.25C0 67.6525 1.94756 69.6 4.35 69.6Z" fill="#425C5A"/>
<path d="M85.5498 53.65C84.749 53.65 84.0998 54.2992 84.0998 55.1V65.25C84.0998 66.0508 83.4506 66.7 82.6498 66.7H72.4998C71.699 66.7 71.0498 67.3492 71.0498 68.15C71.0498 68.9508 71.699 69.6 72.4998 69.6H82.6498C85.0522 69.6 86.9998 67.6525 86.9998 65.25V55.1C86.9998 54.2992 86.3506 53.65 85.5498 53.65Z" fill="#425C5A"/>
<path d="M7.2498 8.70005H8.69981C9.50062 8.70005 10.1498 8.05086 10.1498 7.25005C10.1498 6.44924 9.50062 5.80005 8.69981 5.80005H7.2498C6.44899 5.80005 5.7998 6.44924 5.7998 7.25005C5.7998 8.05086 6.44899 8.70005 7.2498 8.70005Z" fill="#425C5A"/>
<path d="M13.0503 7.25005C13.0503 8.05086 13.6995 8.70005 14.5003 8.70005H20.3003C21.1011 8.70005 21.7503 8.05086 21.7503 7.25005C21.7503 6.44924 21.1011 5.80005 20.3003 5.80005H14.5003C13.6995 5.80005 13.0503 6.44924 13.0503 7.25005Z" fill="#425C5A"/>
<path d="M17.3998 13.05C17.3998 12.2492 16.7506 11.6 15.9498 11.6H7.2498C6.44899 11.6 5.7998 12.2492 5.7998 13.05C5.7998 13.8508 6.44899 14.5 7.2498 14.5H15.9498C16.7506 14.5 17.3998 13.8508 17.3998 13.05Z" fill="#425C5A"/>
<path d="M79.7496 8.70005C80.5504 8.70005 81.1996 8.05086 81.1996 7.25005C81.1996 6.44924 80.5504 5.80005 79.7496 5.80005H78.2996C77.4988 5.80005 76.8496 6.44924 76.8496 7.25005C76.8496 8.05086 77.4988 8.70005 78.2996 8.70005H79.7496Z" fill="#425C5A"/>
<path d="M66.7 8.70005H72.5C73.3008 8.70005 73.95 8.05086 73.95 7.25005C73.95 6.44924 73.3008 5.80005 72.5 5.80005H66.7C65.8992 5.80005 65.25 6.44924 65.25 7.25005C65.25 8.05086 65.8992 8.70005 66.7 8.70005Z" fill="#425C5A"/>
<path d="M69.6001 13.05C69.6001 13.8508 70.2493 14.5 71.0501 14.5H79.7501C80.5509 14.5 81.2001 13.8508 81.2001 13.05C81.2001 12.2492 80.5509 11.6 79.7501 11.6H71.0501C70.2493 11.6 69.6001 12.2492 69.6001 13.05Z" fill="#425C5A"/>
<path d="M7.2498 60.9C6.44899 60.9 5.7998 61.5492 5.7998 62.35C5.7998 63.1508 6.44899 63.8 7.2498 63.8H8.69981C9.50062 63.8 10.1498 63.1508 10.1498 62.35C10.1498 61.5492 9.50062 60.9 8.69981 60.9H7.2498Z" fill="#425C5A"/>
<path d="M13.0503 62.35C13.0503 63.1508 13.6995 63.8 14.5003 63.8H20.3003C21.1011 63.8 21.7503 63.1508 21.7503 62.35C21.7503 61.5492 21.1011 60.9 20.3003 60.9H14.5003C13.6995 60.9 13.0503 61.5492 13.0503 62.35Z" fill="#425C5A"/>
<path d="M15.9498 55.1H7.2498C6.44899 55.1 5.7998 55.7492 5.7998 56.55C5.7998 57.3508 6.44899 58 7.2498 58H15.9498C16.7506 58 17.3998 57.3508 17.3998 56.55C17.3998 55.7492 16.7506 55.1 15.9498 55.1Z" fill="#425C5A"/>
<path d="M79.7496 60.9H78.2996C77.4988 60.9 76.8496 61.5492 76.8496 62.35C76.8496 63.1508 77.4988 63.8 78.2996 63.8H79.7496C80.5504 63.8 81.1996 63.1508 81.1996 62.35C81.1996 61.5492 80.5504 60.9 79.7496 60.9Z" fill="#425C5A"/>
<path d="M66.7 60.9C65.8992 60.9 65.25 61.5492 65.25 62.35C65.25 63.1508 65.8992 63.8 66.7 63.8H72.5C73.3008 63.8 73.95 63.1508 73.95 62.35C73.95 61.5492 73.3008 60.9 72.5 60.9H66.7Z" fill="#425C5A"/>
<path d="M79.7501 55.1H71.0501C70.2493 55.1 69.6001 55.7492 69.6001 56.55C69.6001 57.3508 70.2493 58 71.0501 58H79.7501C80.5509 58 81.2001 57.3508 81.2001 56.55C81.2001 55.7492 80.5509 55.1 79.7501 55.1Z" fill="#425C5A"/>
<path d="M80.7389 77.762C72.8909 76.7432 65.2199 74.6521 57.9406 71.5473C57.4881 69.1794 57.3506 66.7621 57.5317 64.3582C61.4229 59.7198 63.6319 53.9021 63.8 47.85C63.8 47.6412 63.8189 47.4367 63.8261 47.2294C68.4502 45.559 70.6208 39.5342 69.948 30.0353C69.8203 27.5669 68.5373 25.3029 66.4854 23.925C66.1374 23.7031 65.7836 23.5074 65.4327 23.3015C65.4197 23.0013 65.4081 22.7041 65.3935 22.3981C64.6019 5.40268 45.2226 4.36013 44.9645 4.34998H41.9717C41.7774 4.35868 22.3967 5.40122 21.6065 22.3851C21.592 22.6968 21.5804 22.9926 21.5673 23.2957C21.2164 23.5016 20.8612 23.6973 20.5146 23.9177C18.462 25.2971 17.1791 27.5627 17.052 30.0324C16.3792 39.5328 18.5499 45.5575 23.1739 47.2279C23.1812 47.4411 23.2 47.647 23.2 47.8659C23.3697 53.9134 25.5788 59.7259 29.4684 64.3597C29.65 66.7627 29.5121 69.1792 29.058 71.5459C21.7806 74.655 14.1095 76.7467 6.2611 77.762C2.67959 78.2647 0.0117779 81.3229 0 84.9395V85.55C0 86.3508 0.649187 87 1.45 87H85.55C86.3508 87 87 86.3508 87 85.55V84.9395C86.9882 81.3229 84.3204 78.2647 80.7389 77.762ZM42.0355 7.24998H44.8993C45.5764 7.28188 61.1799 8.17073 62.4283 21.7094C56.4641 19.0408 50.0316 17.5763 43.5 17.4C36.9686 17.5759 30.5363 19.0393 24.5717 21.7065C25.81 8.16928 41.4221 7.28043 42.0355 7.24998ZM19.9433 30.2383C20.0065 28.6846 20.7951 27.2507 22.0734 26.3653C31.465 20.3855 43.3811 20.3 43.5 20.3C43.6189 20.3 55.5133 20.3696 64.9267 26.3668C66.2054 27.2517 66.9942 28.6859 67.0567 30.2397C67.3467 34.2635 67.4265 43.7247 62.0861 44.7165C57.7631 45.6616 53.2802 44.0531 50.5441 40.5753C47.7891 35.3553 39.2109 35.3553 36.4559 40.5753C33.7218 44.056 29.2374 45.6656 24.9139 44.718C19.575 43.7305 19.6591 34.2635 19.9433 30.2383ZM26.1 47.7978C31.0612 48.2698 35.9109 46.1279 38.9035 42.1428C38.9454 42.078 38.9832 42.0107 39.0166 41.9412C39.9393 40.3628 41.6757 39.4424 43.5 39.5647C45.3186 39.441 47.0516 40.3532 47.9791 41.9224C48.0129 41.9982 48.0531 42.071 48.0994 42.1399C50.8068 45.7479 55.0595 47.8648 59.5704 47.85C60.0054 47.85 60.4476 47.8268 60.9015 47.7891C60.9015 56.7428 54.3011 66.4216 45.369 69.6841C44.2114 70.3517 42.7857 70.3517 41.6281 69.6841C32.5949 66.0816 26.5162 57.5139 26.1 47.7978ZM2.98265 84.1C3.3475 82.2827 4.82002 80.8939 6.6555 80.6359C9.96805 80.1833 13.2552 79.561 16.5039 78.7712C17.2117 80.6981 18.2268 82.4976 19.5098 84.1H2.98265ZM63.3273 84.1H23.6727C21.7002 82.5094 20.1967 80.413 19.3227 78.0346C22.5693 77.1371 25.2315 76.2178 27.1933 75.4609C26.6694 76.0921 26.0435 76.6312 25.3417 77.0559C24.6562 77.4707 24.4367 78.3627 24.8516 79.0482C25.2664 79.7337 26.1584 79.9531 26.8439 79.5383C31.5288 76.705 32.3451 71.5792 32.409 67.4177C35.048 69.8042 38.1544 71.6159 41.5309 72.7378C42.8003 73.1895 44.1867 73.1895 45.4561 72.7378C48.8318 71.6158 51.9376 69.8047 54.5766 67.4192C54.6404 71.5807 55.4567 76.7064 60.1417 79.5397C60.8271 79.9546 61.7191 79.7351 62.134 79.0496C62.5488 78.3641 62.3293 77.4722 61.6439 77.0573C60.942 76.6327 60.3161 76.0936 59.7922 75.4623C61.7541 76.2192 64.4163 77.1385 67.6628 78.0361C66.7926 80.4123 65.2943 82.5079 63.3273 84.1ZM67.4902 84.1C68.7732 82.4976 69.7883 80.6981 70.4961 78.7712C73.7448 79.561 77.032 80.1833 80.3445 80.6359C82.18 80.8939 83.6525 82.2827 84.0174 84.1H67.4902Z" fill="#425C5A"/>
<path d="M85.5251 34.741C85.5356 35.0361 85.5754 35.333 85.6151 35.6299C85.7086 35.5475 85.7766 35.4047 85.786 35.2581C85.7991 35.0529 85.6951 34.8402 85.5251 34.741Z" fill="url(#paint0_linear)"/>
<path d="M85.9568 32.5904C85.9737 32.3266 85.8131 32.0808 85.5533 32.0053C85.542 32.1812 85.5308 32.3571 85.5176 32.5623C85.5064 32.7382 85.4951 32.9141 85.4819 33.1193C85.7492 33.0775 85.9399 32.8543 85.9568 32.5904Z" fill="url(#paint1_linear)"/>
<path d="M86.1275 29.9227C86.1368 29.7762 86.0877 29.6258 86.0055 29.5323C85.9281 29.8217 85.8801 30.1129 85.8027 30.4023C85.984 30.3257 86.1124 30.1573 86.1275 29.9227Z" fill="url(#paint2_linear)"/>
<path d="M87.1421 40.7023C87.1215 41.0248 87.3699 41.2762 87.6627 41.2949C87.9848 41.3156 88.2359 41.0667 88.2547 40.7736C88.2754 40.4511 88.0269 40.1997 87.7341 40.1809C87.4413 40.1622 87.1628 40.3798 87.1421 40.7023Z" fill="url(#paint3_linear)"/>
<path d="M87.3125 38.0346C87.2919 38.357 87.5404 38.6084 87.8331 38.6272C88.1552 38.6478 88.4063 38.399 88.4251 38.1059C88.4458 37.7834 88.1973 37.532 87.9045 37.5132C87.6117 37.4945 87.3332 37.7121 87.3125 38.0346Z" fill="url(#paint4_linear)"/>
<path d="M87.4839 35.3668C87.4633 35.6893 87.7117 35.9407 88.0045 35.9595C88.3266 35.9801 88.5777 35.7313 88.5965 35.4381C88.6172 35.1157 88.3687 34.8643 88.0759 34.8455C87.7831 34.8267 87.5046 35.0444 87.4839 35.3668Z" fill="url(#paint5_linear)"/>
<path d="M87.6548 32.6992C87.6342 33.0217 87.8826 33.2731 88.1754 33.2919C88.4975 33.3125 88.7486 33.0637 88.7674 32.7705C88.7862 32.4774 88.5396 32.1967 88.2468 32.1779C87.954 32.1591 87.6755 32.3768 87.6548 32.6992Z" fill="url(#paint6_linear)"/>
<path d="M87.8257 30.0316C87.8051 30.3541 88.0535 30.6055 88.3463 30.6243C88.6684 30.6449 88.9195 30.3961 88.9383 30.1029C88.959 29.7805 88.7105 29.5291 88.4177 29.5103C88.1249 29.4915 87.8445 29.7385 87.8257 30.0316Z" fill="url(#paint7_linear)"/>
<path d="M87.9971 27.3639C87.9765 27.6864 88.2249 27.9378 88.5177 27.9565C88.8398 27.9772 89.0909 27.7284 89.1097 27.4352C89.1304 27.1127 88.8819 26.8613 88.5891 26.8426C88.2963 26.8238 88.0159 27.0708 87.9971 27.3639Z" fill="url(#paint8_linear)"/>
<path d="M88.1675 24.6962C88.1469 25.0187 88.3953 25.2701 88.6881 25.2888C89.0102 25.3095 89.2613 25.0606 89.2801 24.7675C89.3008 24.445 89.0523 24.1936 88.7595 24.1748C88.4667 24.1561 88.1863 24.403 88.1675 24.6962Z" fill="url(#paint9_linear)"/>
<path d="M90.9529 43.6251C90.9727 43.3175 90.7396 43.0522 90.4324 43.0325C90.1251 43.0128 89.8601 43.2462 89.8404 43.5539C89.8207 43.8615 90.0537 44.1268 90.361 44.1465C90.6682 44.1662 90.9332 43.9328 90.9529 43.6251Z" fill="url(#paint10_linear)"/>
<path d="M89.9825 40.8843C89.9618 41.2068 90.2103 41.4582 90.5031 41.4769C90.7958 41.4957 91.0763 41.2487 91.095 40.9556C91.1157 40.6331 90.8672 40.3817 90.5744 40.363C90.2817 40.3442 90.0031 40.5618 89.9825 40.8843Z" fill="url(#paint11_linear)"/>
<path d="M90.1529 38.2166C90.1322 38.539 90.3807 38.7904 90.6735 38.8092C90.9663 38.828 91.2467 38.581 91.2654 38.2879C91.2861 37.9654 91.0376 37.714 90.7449 37.6952C90.4521 37.6765 90.1735 37.8941 90.1529 38.2166Z" fill="url(#paint12_linear)"/>
<path d="M90.3238 35.549C90.3031 35.8714 90.5516 36.1228 90.8444 36.1416C91.1372 36.1604 91.4176 35.9134 91.4363 35.6203C91.457 35.2978 91.2085 35.0464 90.9158 35.0276C90.623 35.0089 90.3444 35.2265 90.3238 35.549Z" fill="url(#paint13_linear)"/>
<path d="M91.6365 32.9544C91.6563 32.6468 91.4232 32.3814 91.1159 32.3617C90.8087 32.342 90.5437 32.5755 90.524 32.8831C90.5043 33.1907 90.7373 33.456 91.0446 33.4757C91.3518 33.4954 91.6168 33.262 91.6365 32.9544Z" fill="url(#paint14_linear)"/>
<path d="M91.8074 30.2866C91.8272 29.979 91.5941 29.7137 91.2868 29.694C90.9796 29.6743 90.7146 29.9077 90.6949 30.2154C90.6752 30.523 90.9082 30.7883 91.2155 30.808C91.5227 30.8277 91.7877 30.5943 91.8074 30.2866Z" fill="url(#paint15_linear)"/>
<path d="M90.8365 27.5458C90.8158 27.8683 91.0643 28.1197 91.3571 28.1384C91.6498 28.1572 91.9303 27.9102 91.949 27.6171C91.9697 27.2946 91.7212 27.0432 91.4284 27.0245C91.1357 27.0057 90.8553 27.2526 90.8365 27.5458Z" fill="url(#paint16_linear)"/>
<path d="M92.1497 24.9513C92.1694 24.6437 91.9364 24.3784 91.6291 24.3587C91.3219 24.339 91.0569 24.5724 91.0372 24.88C91.0174 25.1876 91.2505 25.453 91.5577 25.4727C91.865 25.4923 92.13 25.2589 92.1497 24.9513Z" fill="url(#paint17_linear)"/>
<path d="M92.3187 22.313C92.3384 22.0054 92.1053 21.7401 91.7981 21.7204C91.4909 21.7007 91.2258 21.9341 91.2061 22.2417C91.1864 22.5493 91.4195 22.8147 91.7267 22.8344C92.0339 22.854 92.299 22.6206 92.3187 22.313Z" fill="url(#paint18_linear)"/>
<path d="M92.4805 46.4015C92.4599 46.724 92.7083 46.9754 93.0011 46.9941C93.3232 47.0148 93.5743 46.766 93.5931 46.4728C93.6119 46.1797 93.3653 45.8989 93.0725 45.8802C92.7816 45.8321 92.5012 46.079 92.4805 46.4015Z" fill="url(#paint19_linear)"/>
<path d="M92.6509 43.7339C92.6303 44.0564 92.8787 44.3078 93.1715 44.3265C93.4936 44.3472 93.7447 44.0984 93.7635 43.8052C93.7842 43.4827 93.5357 43.2313 93.2429 43.2126C92.952 43.1645 92.6716 43.4114 92.6509 43.7339Z" fill="url(#paint20_linear)"/>
<path d="M92.8218 41.0662C92.8012 41.3886 93.0496 41.6401 93.3424 41.6588C93.6645 41.6795 93.9156 41.4306 93.9344 41.1375C93.9551 40.815 93.7066 40.5636 93.4138 40.5448C93.121 40.5261 92.8425 40.7437 92.8218 41.0662Z" fill="url(#paint21_linear)"/>
<path d="M92.9932 38.3986C92.9725 38.721 93.221 38.9725 93.5138 38.9912C93.8359 39.0119 94.087 38.763 94.1058 38.4699C94.1264 38.1474 93.878 37.896 93.5852 37.8772C93.2924 37.8585 93.0139 38.0761 92.9932 38.3986Z" fill="url(#paint22_linear)"/>
<path d="M93.1641 35.7309C93.1434 36.0533 93.3919 36.3047 93.6847 36.3235C94.0068 36.3441 94.2579 36.0953 94.2767 35.8021C94.2973 35.4797 94.0489 35.2283 93.7561 35.2095C93.4633 35.1908 93.1848 35.4084 93.1641 35.7309Z" fill="url(#paint23_linear)"/>
<path d="M93.335 33.0633C93.3143 33.3857 93.5628 33.6371 93.8556 33.6559C94.1777 33.6765 94.4288 33.4277 94.4476 33.1345C94.4664 32.8414 94.2198 32.5607 93.927 32.5419C93.6342 32.5231 93.3557 32.7408 93.335 33.0633Z" fill="url(#paint24_linear)"/>
<path d="M93.5054 30.3955C93.4848 30.718 93.7332 30.9694 94.026 30.9882C94.3481 31.0088 94.5992 30.76 94.618 30.4668C94.6387 30.1444 94.3902 29.8929 94.0974 29.8742C93.8046 29.8554 93.5242 30.1024 93.5054 30.3955Z" fill="url(#paint25_linear)"/>
<path d="M93.6768 27.7279C93.6561 28.0504 93.9046 28.3018 94.1974 28.3206C94.5195 28.3412 94.7706 28.0924 94.7894 27.7992C94.81 27.4768 94.5616 27.2253 94.2688 27.2066C93.976 27.1878 93.6956 27.4348 93.6768 27.7279Z" fill="url(#paint26_linear)"/>
<path d="M93.8477 25.0602C93.827 25.3827 94.0755 25.6341 94.3683 25.6528C94.6904 25.6735 94.9415 25.4246 94.9603 25.1315C94.9809 24.809 94.7325 24.5576 94.4397 24.5389C94.1469 24.5201 93.8665 24.767 93.8477 25.0602Z" fill="url(#paint27_linear)"/>
<path d="M94.0166 22.4218C93.996 22.7442 94.2445 22.9956 94.5372 23.0144C94.8593 23.035 95.1104 22.7862 95.1292 22.4931C95.148 22.1999 94.9014 21.9192 94.6086 21.9004C94.3177 21.8524 94.0373 22.0993 94.0166 22.4218Z" fill="url(#paint28_linear)"/>
<path d="M94.188 19.7542C94.1674 20.0766 94.4158 20.328 94.7086 20.3468C95.0307 20.3674 95.2818 20.1186 95.3006 19.8255C95.3213 19.503 95.0728 19.2516 94.78 19.2328C94.4891 19.1848 94.2087 19.4317 94.188 19.7542Z" fill="url(#paint29_linear)"/>
<path d="M95.7718 48.7024C95.5376 48.6874 95.3232 48.8208 95.2241 48.9911C95.5661 49.1602 95.9099 49.3 96.2537 49.4397C96.2575 49.3811 96.2886 49.3537 96.2924 49.295C96.3112 49.0019 96.0646 48.7212 95.7718 48.7024Z" fill="url(#paint30_linear)"/>
<path d="M95.3204 46.5836C95.2997 46.9061 95.5482 47.1575 95.841 47.1763C96.163 47.1969 96.4141 46.9481 96.4329 46.6549C96.4517 46.3618 96.2051 46.0811 95.9123 46.0623C95.6214 46.0142 95.341 46.2612 95.3204 46.5836Z" fill="url(#paint31_linear)"/>
<path d="M95.4908 43.9159C95.4701 44.2384 95.7186 44.4898 96.0114 44.5085C96.3334 44.5292 96.5846 44.2804 96.6033 43.9872C96.624 43.6647 96.3755 43.4133 96.0827 43.3946C95.7918 43.3465 95.5114 43.5934 95.4908 43.9159Z" fill="url(#paint32_linear)"/>
<path d="M95.6617 41.2482C95.641 41.5707 95.8895 41.8221 96.1823 41.8408C96.5043 41.8615 96.7555 41.6126 96.7742 41.3195C96.7949 40.997 96.5464 40.7456 96.2536 40.7268C95.9609 40.7081 95.6823 40.9257 95.6617 41.2482Z" fill="url(#paint33_linear)"/>
<path d="M95.8331 38.5806C95.8124 38.9031 96.0609 39.1545 96.3536 39.1732C96.6757 39.1939 96.9268 38.945 96.9456 38.6519C96.9663 38.3294 96.7178 38.078 96.425 38.0592C96.1322 38.0405 95.8537 38.2581 95.8331 38.5806Z" fill="url(#paint34_linear)"/>
<path d="M96.004 35.913C95.9833 36.2354 96.2318 36.4869 96.5245 36.5056C96.8466 36.5263 97.0977 36.2774 97.1165 35.9843C97.1372 35.6618 96.8887 35.4104 96.5959 35.3916C96.3031 35.3729 96.0246 35.5905 96.004 35.913Z" fill="url(#paint35_linear)"/>
<path d="M96.1744 33.2451C96.1537 33.5676 96.4022 33.819 96.695 33.8378C97.017 33.8584 97.2681 33.6096 97.2869 33.3164C97.3057 33.0233 97.0591 32.7426 96.7663 32.7238C96.4736 32.705 96.195 32.9227 96.1744 33.2451Z" fill="url(#paint36_linear)"/>
<path d="M96.3453 30.5775C96.3246 30.9 96.5731 31.1514 96.8659 31.1702C97.1879 31.1908 97.439 30.942 97.4578 30.6488C97.4785 30.3264 97.23 30.075 96.9372 30.0562C96.6445 30.0374 96.364 30.2844 96.3453 30.5775Z" fill="url(#paint37_linear)"/>
<path d="M96.5166 27.9098C96.496 28.2323 96.7445 28.4837 97.0372 28.5024C97.3593 28.5231 97.6104 28.2743 97.6292 27.9811C97.6499 27.6586 97.4014 27.4072 97.1086 27.3885C96.8158 27.3697 96.5354 27.6167 96.5166 27.9098Z" fill="url(#paint38_linear)"/>
<path d="M96.6875 25.2421C96.6669 25.5646 96.9154 25.816 97.2081 25.8347C97.5302 25.8554 97.7813 25.6065 97.8001 25.3134C97.8208 24.9909 97.5723 24.7395 97.2795 24.7207C96.9867 24.702 96.7063 24.9489 96.6875 25.2421Z" fill="url(#paint39_linear)"/>
<path d="M96.8565 22.6038C96.8358 22.9262 97.0843 23.1777 97.3771 23.1964C97.6991 23.2171 97.9503 22.9682 97.9691 22.6751C97.9878 22.3819 97.7413 22.1012 97.4485 22.0824C97.1576 22.0344 96.8772 22.2813 96.8565 22.6038Z" fill="url(#paint40_linear)"/>
<path d="M97.0274 19.9361C97.0067 20.2585 97.2552 20.5099 97.548 20.5287C97.87 20.5493 98.1212 20.3005 98.14 20.0073C98.1606 19.6849 97.9121 19.4335 97.6194 19.4147C97.3285 19.3666 97.0481 19.6136 97.0274 19.9361Z" fill="url(#paint41_linear)"/>
<path d="M97.7482 17.8629C98.0703 17.8835 98.3214 17.6347 98.3402 17.3415C98.3439 17.2829 98.3458 17.2536 98.3203 17.1931C97.9614 17.2878 97.6026 17.3826 97.2419 17.5066C97.3184 17.6882 97.514 17.8479 97.7482 17.8629Z" fill="url(#paint42_linear)"/>
<path d="M97.9888 49.4332C97.97 49.7264 98.2166 50.0071 98.5387 50.0278C98.8607 50.0484 99.1119 49.7996 99.1307 49.5064C99.1513 49.184 98.9029 48.9325 98.6101 48.9138C98.3173 48.895 98.0095 49.1108 97.9888 49.4332Z" fill="url(#paint43_linear)"/>
<path d="M99.3021 46.8386C99.3218 46.531 99.0887 46.2657 98.7815 46.246C98.4742 46.2263 98.2092 46.4597 98.1895 46.7674C98.1698 47.075 98.4029 47.3403 98.7101 47.36C99.0173 47.3797 99.2824 47.1463 99.3021 46.8386Z" fill="url(#paint44_linear)"/>
<path d="M99.473 44.171C99.4927 43.8634 99.2596 43.5981 98.9524 43.5784C98.6451 43.5587 98.3801 43.7921 98.3604 44.0998C98.3407 44.4074 98.5738 44.6727 98.881 44.6924C99.1882 44.7121 99.4533 44.4787 99.473 44.171Z" fill="url(#paint45_linear)"/>
<path d="M98.502 41.4302C98.4813 41.7527 98.7298 42.0041 99.0226 42.0228C99.3154 42.0416 99.5958 41.7946 99.6146 41.5015C99.6352 41.179 99.3868 40.9276 99.094 40.9089C98.8012 40.8901 98.5227 41.1077 98.502 41.4302Z" fill="url(#paint46_linear)"/>
<path d="M98.6729 38.7625C98.6522 39.0849 98.9007 39.3363 99.1935 39.3551C99.4863 39.3739 99.7667 39.1269 99.7855 38.8338C99.8061 38.5113 99.5577 38.2599 99.2649 38.2411C98.9721 38.2224 98.6936 38.44 98.6729 38.7625Z" fill="url(#paint47_linear)"/>
<path d="M98.8438 36.0949C98.8231 36.4173 99.0716 36.6687 99.3644 36.6875C99.6572 36.7063 99.9376 36.4593 99.9564 36.1662C99.977 35.8437 99.7286 35.5923 99.4358 35.5735C99.143 35.5548 98.8645 35.7724 98.8438 36.0949Z" fill="url(#paint48_linear)"/>
<path d="M100.157 33.5004C100.176 33.1928 99.9432 32.9274 99.636 32.9078C99.3287 32.8881 99.0637 33.1215 99.044 33.4291C99.0243 33.7367 99.2574 34.002 99.5646 34.0217C99.8718 34.0414 100.137 33.808 100.157 33.5004Z" fill="url(#paint49_linear)"/>
<path d="M100.328 30.8327C100.348 30.5251 100.115 30.2597 99.8074 30.24C99.5001 30.2203 99.2351 30.4538 99.2154 30.7614C99.1957 31.069 99.4287 31.3343 99.736 31.354C100.043 31.3737 100.308 31.1403 100.328 30.8327Z" fill="url(#paint50_linear)"/>
<path d="M99.3565 28.0918C99.3358 28.4143 99.5843 28.6657 99.8771 28.6845C100.17 28.7032 100.45 28.4563 100.469 28.1631C100.49 27.8406 100.241 27.5892 99.9485 27.5705C99.6557 27.5517 99.3753 27.7987 99.3565 28.0918Z" fill="url(#paint51_linear)"/>
<path d="M100.669 25.4973C100.689 25.1897 100.456 24.9244 100.149 24.9047C99.8414 24.885 99.5764 25.1184 99.5567 25.426C99.537 25.7337 99.7701 25.999 100.077 26.0187C100.385 26.0384 100.65 25.805 100.669 25.4973Z" fill="url(#paint52_linear)"/>
<path d="M100.839 22.859C100.858 22.5514 100.625 22.2861 100.318 22.2664C100.011 22.2467 99.7458 22.4801 99.7261 22.7877C99.7064 23.0954 99.9395 23.3607 100.247 23.3804C100.554 23.4001 100.819 23.1666 100.839 22.859Z" fill="url(#paint53_linear)"/>
<path d="M101.009 20.1913C101.029 19.8837 100.796 19.6184 100.489 19.5987C100.181 19.579 99.9162 19.8124 99.8965 20.12C99.8768 20.4276 100.11 20.693 100.417 20.7126C100.724 20.7323 100.989 20.4989 101.009 20.1913Z" fill="url(#paint54_linear)"/>
<path d="M100.039 17.4505C100.018 17.7729 100.266 18.0243 100.559 18.0431C100.852 18.0619 101.162 17.8168 101.18 17.5236C101.201 17.2012 100.953 16.9498 100.66 16.931C100.367 16.9122 100.059 17.128 100.039 17.4505Z" fill="url(#paint55_linear)"/>
<path d="M100.829 49.6153C100.808 49.9377 101.056 50.1891 101.349 50.2079C101.671 50.2285 101.922 49.9797 101.941 49.6865C101.962 49.3641 101.713 49.1127 101.421 49.0939C101.13 49.0458 100.849 49.2928 100.829 49.6153Z" fill="url(#paint56_linear)"/>
<path d="M101 46.9475C100.979 47.27 101.228 47.5214 101.521 47.5402C101.843 47.5608 102.094 47.312 102.113 47.0188C102.131 46.7257 101.885 46.4449 101.592 46.4262C101.301 46.3781 101.021 46.6251 101 46.9475Z" fill="url(#paint57_linear)"/>
<path d="M101.171 44.2799C101.15 44.6024 101.399 44.8538 101.692 44.8726C102.014 44.8932 102.265 44.6444 102.284 44.3512C102.304 44.0288 102.056 43.7773 101.763 43.7586C101.472 43.7105 101.192 43.9575 101.171 44.2799Z" fill="url(#paint58_linear)"/>
<path d="M101.342 41.6122C101.321 41.9347 101.57 42.1861 101.862 42.2048C102.184 42.2255 102.436 41.9766 102.454 41.6835C102.475 41.361 102.227 41.1096 101.934 41.0909C101.641 41.0721 101.363 41.2897 101.342 41.6122Z" fill="url(#paint59_linear)"/>
<path d="M101.512 38.9446C101.492 39.2671 101.74 39.5185 102.033 39.5372C102.355 39.5579 102.606 39.309 102.625 39.0159C102.645 38.6934 102.397 38.442 102.104 38.4233C101.811 38.4045 101.533 38.6221 101.512 38.9446Z" fill="url(#paint60_linear)"/>
<path d="M101.684 36.2769C101.663 36.5993 101.912 36.8507 102.205 36.8695C102.527 36.8901 102.778 36.6413 102.797 36.3482C102.817 36.0257 102.569 35.7743 102.276 35.7555C101.983 35.7368 101.705 35.9544 101.684 36.2769Z" fill="url(#paint61_linear)"/>
<path d="M101.855 33.6093C101.834 33.9317 102.082 34.1831 102.375 34.2019C102.697 34.2225 102.948 33.9737 102.967 33.6806C102.986 33.3874 102.739 33.1067 102.447 33.0879C102.154 33.0692 101.875 33.2868 101.855 33.6093Z" fill="url(#paint62_linear)"/>
<path d="M102.025 30.9414C102.005 31.2639 102.253 31.5153 102.546 31.5341C102.868 31.5547 103.119 31.3059 103.138 31.0127C103.159 30.6903 102.91 30.4388 102.617 30.4201C102.325 30.4013 102.044 30.6483 102.025 30.9414Z" fill="url(#paint63_linear)"/>
<path d="M102.197 28.2737C102.176 28.5962 102.425 28.8476 102.717 28.8663C103.039 28.887 103.291 28.6381 103.309 28.345C103.33 28.0225 103.082 27.7711 102.789 27.7524C102.496 27.7336 102.216 27.9806 102.197 28.2737Z" fill="url(#paint64_linear)"/>
<path d="M102.368 25.6061C102.347 25.9286 102.596 26.18 102.888 26.1987C103.21 26.2194 103.462 25.9705 103.48 25.6774C103.501 25.3549 103.252 25.1035 102.96 25.0848C102.667 25.066 102.387 25.3129 102.368 25.6061Z" fill="url(#paint65_linear)"/>
<path d="M102.537 22.9679C102.516 23.2904 102.764 23.5418 103.057 23.5605C103.379 23.5812 103.63 23.3324 103.649 23.0392C103.668 22.7461 103.421 22.4653 103.129 22.4466C102.838 22.3985 102.557 22.6454 102.537 22.9679Z" fill="url(#paint66_linear)"/>
<path d="M102.708 20.3001C102.687 20.6225 102.935 20.8739 103.228 20.8927C103.55 20.9133 103.801 20.6645 103.82 20.3714C103.841 20.0489 103.592 19.7975 103.3 19.7787C103.009 19.7307 102.728 19.9776 102.708 20.3001Z" fill="url(#paint67_linear)"/>
<path d="M102.878 17.6323C102.857 17.9548 103.106 18.2062 103.399 18.225C103.721 18.2456 103.972 17.9968 103.991 17.7036C104.011 17.3812 103.763 17.1298 103.47 17.111C103.179 17.0629 102.899 17.3099 102.878 17.6323Z" fill="url(#paint68_linear)"/>
<path d="M103.669 49.7973C103.649 50.1197 103.897 50.3711 104.19 50.3899C104.483 50.4087 104.763 50.1617 104.782 49.8686C104.803 49.5461 104.554 49.2947 104.261 49.2759C103.969 49.2572 103.69 49.4748 103.669 49.7973Z" fill="url(#paint69_linear)"/>
<path d="M104.982 47.2027C105.001 46.895 104.768 46.6297 104.461 46.61C104.154 46.5903 103.889 46.8238 103.869 47.1314C103.849 47.439 104.083 47.7043 104.39 47.724C104.697 47.7437 104.962 47.5103 104.982 47.2027Z" fill="url(#paint70_linear)"/>
<path d="M105.153 44.5351C105.172 44.2274 104.939 43.9621 104.632 43.9424C104.325 43.9227 104.06 44.1561 104.04 44.4638C104.02 44.7714 104.253 45.0367 104.561 45.0564C104.868 45.0761 105.133 44.8427 105.153 44.5351Z" fill="url(#paint71_linear)"/>
<path d="M104.182 41.7941C104.162 42.1166 104.41 42.368 104.703 42.3867C104.996 42.4055 105.276 42.1585 105.295 41.8654C105.315 41.5429 105.067 41.2915 104.774 41.2727C104.481 41.254 104.203 41.4716 104.182 41.7941Z" fill="url(#paint72_linear)"/>
<path d="M104.353 39.1265C104.332 39.449 104.581 39.7004 104.874 39.7191C105.166 39.7379 105.447 39.4909 105.466 39.1978C105.486 38.8753 105.238 38.6239 104.945 38.6051C104.652 38.5864 104.374 38.804 104.353 39.1265Z" fill="url(#paint73_linear)"/>
<path d="M104.523 36.4589C104.503 36.7813 104.751 37.0328 105.044 37.0515C105.337 37.0703 105.617 36.8233 105.636 36.5302C105.657 36.2077 105.408 35.9563 105.115 35.9375C104.823 35.9188 104.544 36.1364 104.523 36.4589Z" fill="url(#paint74_linear)"/>
<path d="M105.837 33.8644C105.856 33.5568 105.623 33.2915 105.316 33.2718C105.009 33.2521 104.744 33.4855 104.724 33.7931C104.704 34.1007 104.938 34.3661 105.245 34.3857C105.552 34.4054 105.817 34.172 105.837 33.8644Z" fill="url(#paint75_linear)"/>
<path d="M106.007 31.1967C106.027 30.8891 105.794 30.6237 105.487 30.604C105.179 30.5844 104.914 30.8178 104.895 31.1254C104.875 31.433 105.108 31.6983 105.415 31.718C105.722 31.7377 105.987 31.5043 106.007 31.1967Z" fill="url(#paint76_linear)"/>
<path d="M105.037 28.4558C105.016 28.7783 105.264 29.0297 105.557 29.0485C105.85 29.0672 106.13 28.8203 106.149 28.5271C106.17 28.2047 105.921 27.9533 105.629 27.9345C105.336 27.9157 105.055 28.1627 105.037 28.4558Z" fill="url(#paint77_linear)"/>
<path d="M106.349 25.8614C106.369 25.5537 106.136 25.2884 105.829 25.2687C105.522 25.249 105.257 25.4824 105.237 25.7901C105.217 26.0977 105.45 26.363 105.757 26.3827C106.065 26.4024 106.33 26.169 106.349 25.8614Z" fill="url(#paint78_linear)"/>
<path d="M106.519 23.2229C106.539 22.9153 106.306 22.65 105.998 22.6303C105.691 22.6106 105.426 22.844 105.406 23.1516C105.387 23.4592 105.62 23.7246 105.927 23.7443C106.234 23.764 106.499 23.5305 106.519 23.2229Z" fill="url(#paint79_linear)"/>
<path d="M106.689 20.5552C106.709 20.2476 106.476 19.9823 106.169 19.9626C105.861 19.9429 105.596 20.1763 105.577 20.4839C105.557 20.7915 105.79 21.0569 106.097 21.0765C106.405 21.0962 106.67 20.8628 106.689 20.5552Z" fill="url(#paint80_linear)"/>
<path d="M105.719 17.8145C105.698 18.1369 105.947 18.3883 106.239 18.4071C106.532 18.4259 106.813 18.1789 106.831 17.8858C106.852 17.5633 106.604 17.3119 106.311 17.2931C106.018 17.2744 105.739 17.492 105.719 17.8145Z" fill="url(#paint81_linear)"/>
<path d="M107.132 49.4305C106.81 49.4098 106.559 49.6587 106.54 49.9518C106.536 50.0104 106.535 50.0398 106.56 50.1003C106.919 50.0055 107.278 49.9108 107.638 49.7867C107.533 49.6033 107.337 49.4436 107.132 49.4305Z" fill="url(#paint82_linear)"/>
<path d="M107.822 47.3847C107.841 47.0771 107.608 46.8117 107.301 46.792C106.994 46.7723 106.729 47.0058 106.709 47.3134C106.689 47.621 106.922 47.8863 107.23 47.906C107.537 47.9257 107.802 47.6923 107.822 47.3847Z" fill="url(#paint83_linear)"/>
<path d="M107.992 44.7171C108.012 44.4094 107.779 44.1441 107.472 44.1244C107.165 44.1047 106.9 44.3382 106.88 44.6458C106.86 44.9534 107.093 45.2187 107.401 45.2384C107.708 45.2581 107.973 45.0247 107.992 44.7171Z" fill="url(#paint84_linear)"/>
<path d="M107.022 41.9762C107.001 42.2987 107.249 42.5501 107.542 42.5689C107.835 42.5876 108.115 42.3407 108.134 42.0475C108.155 41.725 107.906 41.4736 107.614 41.4549C107.321 41.4361 107.042 41.6537 107.022 41.9762Z" fill="url(#paint85_linear)"/>
<path d="M107.192 39.3085C107.172 39.631 107.42 39.8824 107.713 39.9011C108.006 39.9199 108.286 39.6729 108.305 39.3798C108.326 39.0573 108.077 38.8059 107.784 38.7871C107.492 38.7684 107.213 38.986 107.192 39.3085Z" fill="url(#paint86_linear)"/>
<path d="M107.363 36.6409C107.343 36.9634 107.591 37.2148 107.884 37.2335C108.177 37.2523 108.457 37.0053 108.476 36.7122C108.497 36.3897 108.248 36.1383 107.955 36.1195C107.663 36.1008 107.384 36.3184 107.363 36.6409Z" fill="url(#paint87_linear)"/>
<path d="M108.676 34.0463C108.696 33.7387 108.463 33.4733 108.155 33.4537C107.848 33.434 107.583 33.6674 107.564 33.975C107.544 34.2826 107.777 34.5479 108.084 34.5676C108.391 34.5873 108.656 34.3539 108.676 34.0463Z" fill="url(#paint88_linear)"/>
<path d="M108.848 31.3786C108.868 31.0709 108.635 30.8056 108.327 30.7859C108.02 30.7662 107.755 30.9997 107.735 31.3073C107.716 31.6149 107.949 31.8802 108.256 31.8999C108.563 31.9196 108.828 31.6862 108.848 31.3786Z" fill="url(#paint89_linear)"/>
<path d="M107.877 28.6377C107.856 28.9602 108.104 29.2116 108.397 29.2303C108.69 29.2491 108.97 29.0022 108.989 28.709C109.01 28.3865 108.761 28.1351 108.468 28.1164C108.176 28.0976 107.895 28.3446 107.877 28.6377Z" fill="url(#paint90_linear)"/>
<path d="M109.189 26.0432C109.209 25.7356 108.976 25.4703 108.669 25.4506C108.361 25.4309 108.096 25.6643 108.077 25.9719C108.057 26.2796 108.29 26.5449 108.597 26.5646C108.905 26.5843 109.17 26.3509 109.189 26.0432Z" fill="url(#paint91_linear)"/>
<path d="M109.358 23.4048C109.378 23.0972 109.145 22.8319 108.838 22.8122C108.53 22.7925 108.265 23.0259 108.246 23.3335C108.226 23.6411 108.459 23.9065 108.766 23.9261C109.073 23.9458 109.339 23.7124 109.358 23.4048Z" fill="url(#paint92_linear)"/>
<path d="M109.53 20.7372C109.549 20.4296 109.316 20.1643 109.009 20.1446C108.702 20.1249 108.437 20.3583 108.417 20.6659C108.397 20.9735 108.63 21.2389 108.938 21.2585C109.245 21.2782 109.51 21.0448 109.53 20.7372Z" fill="url(#paint93_linear)"/>
<path d="M109.108 18.5908C109.343 18.6059 109.557 18.4724 109.656 18.3021C109.314 18.1331 108.97 17.9933 108.626 17.8535C108.623 17.9121 108.591 17.9396 108.588 17.9982C108.54 18.2895 108.786 18.5702 109.108 18.5908Z" fill="url(#paint94_linear)"/>
<path d="M109.52 47.4934C109.499 47.8159 109.748 48.0673 110.041 48.0861C110.363 48.1067 110.614 47.8579 110.633 47.5647C110.651 47.2716 110.405 46.9908 110.112 46.9721C109.821 46.924 109.541 47.171 109.52 47.4934Z" fill="url(#paint95_linear)"/>
<path d="M109.691 44.8258C109.67 45.1483 109.919 45.3997 110.212 45.4185C110.534 45.4391 110.785 45.1903 110.804 44.8971C110.824 44.5747 110.576 44.3232 110.283 44.3045C109.992 44.2564 109.712 44.5034 109.691 44.8258Z" fill="url(#paint96_linear)"/>
<path d="M109.861 42.1581C109.841 42.4806 110.089 42.732 110.382 42.7507C110.704 42.7714 110.955 42.5225 110.974 42.2294C110.995 41.9069 110.746 41.6555 110.453 41.6368C110.161 41.618 109.882 41.8356 109.861 42.1581Z" fill="url(#paint97_linear)"/>
<path d="M110.033 39.4905C110.012 39.813 110.261 40.0644 110.553 40.0831C110.875 40.1038 111.127 39.8549 111.145 39.5618C111.166 39.2393 110.918 38.9879 110.625 38.9692C110.332 38.9504 110.053 39.168 110.033 39.4905Z" fill="url(#paint98_linear)"/>
<path d="M110.204 36.8228C110.183 37.1452 110.431 37.3966 110.724 37.4154C111.046 37.436 111.297 37.1872 111.316 36.8941C111.337 36.5716 111.088 36.3202 110.796 36.3014C110.503 36.2827 110.224 36.5003 110.204 36.8228Z" fill="url(#paint99_linear)"/>
<path d="M110.375 34.1552C110.354 34.4776 110.602 34.729 110.895 34.7478C111.217 34.7684 111.468 34.5196 111.487 34.2265C111.506 33.9333 111.259 33.6526 110.967 33.6338C110.674 33.6151 110.395 33.8327 110.375 34.1552Z" fill="url(#paint100_linear)"/>
<path d="M110.545 31.4874C110.524 31.8099 110.773 32.0613 111.066 32.0801C111.388 32.1007 111.639 31.8519 111.658 31.5587C111.678 31.2363 111.43 30.9849 111.137 30.9661C110.844 30.9473 110.564 31.1943 110.545 31.4874Z" fill="url(#paint101_linear)"/>
<path d="M110.717 28.8198C110.696 29.1423 110.945 29.3937 111.237 29.4125C111.559 29.4331 111.811 29.1843 111.829 28.8911C111.85 28.5687 111.602 28.3173 111.309 28.2985C111.016 28.2797 110.736 28.5267 110.717 28.8198Z" fill="url(#paint102_linear)"/>
<path d="M110.887 26.1521C110.867 26.4746 111.115 26.726 111.408 26.7448C111.73 26.7654 111.981 26.5166 112 26.2234C112.02 25.9009 111.772 25.6495 111.479 25.6308C111.186 25.612 110.906 25.859 110.887 26.1521Z" fill="url(#paint103_linear)"/>
<path d="M111.057 23.5137C111.036 23.8362 111.284 24.0876 111.577 24.1063C111.899 24.127 112.15 23.8781 112.169 23.585C112.188 23.2918 111.941 23.0111 111.649 22.9924C111.358 22.9443 111.077 23.1912 111.057 23.5137Z" fill="url(#paint104_linear)"/>
<path d="M111.228 20.8461C111.207 21.1686 111.455 21.42 111.748 21.4387C112.07 21.4594 112.321 21.2105 112.34 20.9174C112.361 20.5949 112.112 20.3435 111.82 20.3247C111.529 20.2767 111.248 20.5236 111.228 20.8461Z" fill="url(#paint105_linear)"/>
<path d="M113.673 45.0811C113.692 44.7735 113.459 44.5081 113.152 44.4884C112.845 44.4688 112.58 44.7022 112.56 45.0098C112.54 45.3174 112.773 45.5827 113.081 45.6024C113.388 45.6221 113.653 45.3887 113.673 45.0811Z" fill="url(#paint106_linear)"/>
<path d="M112.702 42.3401C112.681 42.6626 112.93 42.914 113.222 42.9327C113.544 42.9534 113.795 42.7046 113.814 42.4114C113.835 42.0889 113.586 41.8375 113.294 41.8188C113.001 41.8 112.722 42.0176 112.702 42.3401Z" fill="url(#paint107_linear)"/>
<path d="M112.873 39.6725C112.852 39.995 113.1 40.2464 113.393 40.2651C113.715 40.2858 113.966 40.037 113.985 39.7438C114.006 39.4213 113.757 39.1699 113.465 39.1512C113.172 39.1324 112.893 39.35 112.873 39.6725Z" fill="url(#paint108_linear)"/>
<path d="M113.044 37.0047C113.023 37.3271 113.271 37.5785 113.564 37.5973C113.886 37.6179 114.137 37.3691 114.156 37.076C114.177 36.7535 113.928 36.5021 113.635 36.4833C113.343 36.4646 113.064 36.6822 113.044 37.0047Z" fill="url(#paint109_linear)"/>
<path d="M114.356 34.4103C114.376 34.1027 114.143 33.8374 113.836 33.8177C113.528 33.798 113.263 34.0314 113.244 34.339C113.224 34.6466 113.457 34.912 113.764 34.9316C114.072 34.9513 114.337 34.7179 114.356 34.4103Z" fill="url(#paint110_linear)"/>
<path d="M114.527 31.7426C114.547 31.435 114.314 31.1696 114.007 31.1499C113.699 31.1303 113.434 31.3637 113.415 31.6713C113.395 31.9789 113.628 32.2442 113.935 32.2639C114.242 32.2836 114.507 32.0502 114.527 31.7426Z" fill="url(#paint111_linear)"/>
<path d="M113.557 29.0017C113.536 29.3242 113.784 29.5756 114.077 29.5944C114.399 29.615 114.65 29.3662 114.669 29.073C114.69 28.7506 114.441 28.4992 114.149 28.4804C113.856 28.4616 113.575 28.7086 113.557 29.0017Z" fill="url(#paint112_linear)"/>
<path d="M114.869 26.4072C114.889 26.0996 114.656 25.8343 114.349 25.8146C114.042 25.7949 113.777 26.0283 113.757 26.336C113.737 26.6436 113.97 26.9089 114.277 26.9286C114.585 26.9483 114.85 26.7149 114.869 26.4072Z" fill="url(#paint113_linear)"/>
<path d="M115.038 23.7688C115.058 23.4612 114.825 23.1959 114.518 23.1762C114.211 23.1565 113.946 23.3899 113.926 23.6975C113.906 24.0051 114.139 24.2705 114.446 24.2902C114.754 24.3099 115.019 24.0764 115.038 23.7688Z" fill="url(#paint114_linear)"/>
<path d="M115.542 42.5221C115.521 42.8446 115.769 43.096 116.062 43.1147C116.384 43.1354 116.635 42.8866 116.654 42.5934C116.675 42.2709 116.426 42.0195 116.134 42.0008C115.841 41.982 115.562 42.1996 115.542 42.5221Z" fill="url(#paint115_linear)"/>
<path d="M115.712 39.8545C115.692 40.177 115.94 40.4284 116.233 40.4471C116.555 40.4678 116.806 40.219 116.825 39.9258C116.846 39.6033 116.597 39.3519 116.304 39.3332C116.012 39.3144 115.733 39.532 115.712 39.8545Z" fill="url(#paint116_linear)"/>
<path d="M115.884 37.1868C115.863 37.5093 116.112 37.7607 116.404 37.7794C116.726 37.8001 116.978 37.5512 116.996 37.2581C117.017 36.9356 116.769 36.6842 116.476 36.6654C116.183 36.6467 115.905 36.8643 115.884 37.1868Z" fill="url(#paint117_linear)"/>
<path d="M116.055 34.5191C116.034 34.8415 116.283 35.0929 116.575 35.1117C116.897 35.1323 117.149 34.8835 117.167 34.5904C117.186 34.2972 116.939 34.0165 116.647 33.9977C116.354 33.979 116.075 34.1966 116.055 34.5191Z" fill="url(#paint118_linear)"/>
<path d="M116.226 31.8515C116.205 32.1739 116.453 32.4253 116.746 32.4441C117.068 32.4647 117.319 32.2159 117.338 31.9228C117.359 31.6003 117.11 31.3489 116.818 31.3301C116.525 31.3114 116.244 31.5583 116.226 31.8515Z" fill="url(#paint119_linear)"/>
<path d="M116.396 29.1837C116.375 29.5062 116.624 29.7576 116.917 29.7764C117.239 29.797 117.49 29.5482 117.509 29.255C117.529 28.9326 117.281 28.6812 116.988 28.6624C116.695 28.6436 116.415 28.8906 116.396 29.1837Z" fill="url(#paint120_linear)"/>
<path d="M116.568 26.5161C116.547 26.8386 116.796 27.09 117.089 27.1088C117.411 27.1294 117.662 26.8806 117.68 26.5874C117.701 26.265 117.453 26.0136 117.16 25.9948C116.867 25.976 116.587 26.223 116.568 26.5161Z" fill="url(#paint121_linear)"/>
<path d="M118.724 37.3687C118.714 37.5152 118.763 37.6656 118.846 37.7591C118.923 37.4697 118.971 37.1785 119.048 36.8891C118.867 36.9658 118.737 37.1635 118.724 37.3687Z" fill="url(#paint122_linear)"/>
<path d="M118.895 34.7011C118.878 34.9649 119.038 35.2107 119.298 35.2862C119.309 35.1103 119.321 34.9344 119.334 34.7292C119.345 34.5533 119.356 34.3774 119.369 34.1722C119.13 34.2452 118.911 34.4372 118.895 34.7011Z" fill="url(#paint123_linear)"/>
<path d="M119.356 32.5524C119.345 32.2573 119.306 31.9604 119.266 31.6635C119.172 31.7459 119.104 31.8887 119.095 32.0353C119.051 32.2679 119.157 32.4513 119.356 32.5524Z" fill="url(#paint124_linear)"/>
<defs>
<linearGradient id="paint0_linear" x1="129.702" y1="38.0136" x2="75.4123" y2="34.5347" gradientUnits="userSpaceOnUse">
<stop stop-color="#FFC700"/>
<stop offset="1" stop-color="#E5A22F"/>
</linearGradient>
<linearGradient id="paint1_linear" x1="151.826" y1="36.8116" x2="70.3907" y2="31.5932" gradientUnits="userSpaceOnUse">
<stop stop-color="#FFC700"/>
<stop offset="1" stop-color="#E5A22F"/>
</linearGradient>
<linearGradient id="paint2_linear" x1="130.036" y1="32.7955" x2="75.7463" y2="29.3166" gradientUnits="userSpaceOnUse">
<stop stop-color="#FFC700"/>
<stop offset="1" stop-color="#E5A22F"/>
</linearGradient>
<linearGradient id="paint3_linear" x1="255.123" y1="51.4668" x2="48.8206" y2="38.2468" gradientUnits="userSpaceOnUse">
<stop stop-color="#FFC700"/>
<stop offset="1" stop-color="#E5A22F"/>
</linearGradient>
<linearGradient id="paint4_linear" x1="255.293" y1="48.7991" x2="48.991" y2="35.5791" gradientUnits="userSpaceOnUse">
<stop stop-color="#FFC700"/>
<stop offset="1" stop-color="#E5A22F"/>
</linearGradient>
<linearGradient id="paint5_linear" x1="255.464" y1="46.1313" x2="49.1624" y2="32.9114" gradientUnits="userSpaceOnUse">
<stop stop-color="#FFC700"/>
<stop offset="1" stop-color="#E5A22F"/>
</linearGradient>
<linearGradient id="paint6_linear" x1="255.635" y1="43.4637" x2="49.3333" y2="30.2438" gradientUnits="userSpaceOnUse">
<stop stop-color="#FFC700"/>
<stop offset="1" stop-color="#E5A22F"/>
</linearGradient>
<linearGradient id="paint7_linear" x1="255.806" y1="40.7961" x2="49.5042" y2="27.5762" gradientUnits="userSpaceOnUse">
<stop stop-color="#FFC700"/>
<stop offset="1" stop-color="#E5A22F"/>
</linearGradient>
<linearGradient id="paint8_linear" x1="255.978" y1="38.1284" x2="49.6756" y2="24.9085" gradientUnits="userSpaceOnUse">
<stop stop-color="#FFC700"/>
<stop offset="1" stop-color="#E5A22F"/>
</linearGradient>
<linearGradient id="paint9_linear" x1="256.148" y1="35.4607" x2="49.846" y2="22.2407" gradientUnits="userSpaceOnUse">
<stop stop-color="#FFC700"/>
<stop offset="1" stop-color="#E5A22F"/>
</linearGradient>
<linearGradient id="paint10_linear" x1="257.821" y1="54.3183" x2="51.5189" y2="41.0984" gradientUnits="userSpaceOnUse">
<stop stop-color="#FFC700"/>
<stop offset="1" stop-color="#E5A22F"/>
</linearGradient>
<linearGradient id="paint11_linear" x1="257.963" y1="51.6488" x2="51.6609" y2="38.4289" gradientUnits="userSpaceOnUse">
<stop stop-color="#FFC700"/>
<stop offset="1" stop-color="#E5A22F"/>
</linearGradient>
<linearGradient id="paint12_linear" x1="258.133" y1="48.9811" x2="51.8313" y2="35.7611" gradientUnits="userSpaceOnUse">
<stop stop-color="#FFC700"/>
<stop offset="1" stop-color="#E5A22F"/>
</linearGradient>
<linearGradient id="paint13_linear" x1="258.304" y1="46.3135" x2="52.0022" y2="33.0935" gradientUnits="userSpaceOnUse">
<stop stop-color="#FFC700"/>
<stop offset="1" stop-color="#E5A22F"/>
</linearGradient>
<linearGradient id="paint14_linear" x1="258.504" y1="43.6476" x2="52.2024" y2="30.4276" gradientUnits="userSpaceOnUse">
<stop stop-color="#FFC700"/>
<stop offset="1" stop-color="#E5A22F"/>
</linearGradient>
<linearGradient id="paint15_linear" x1="258.675" y1="40.9798" x2="52.3733" y2="27.7599" gradientUnits="userSpaceOnUse">
<stop stop-color="#FFC700"/>
<stop offset="1" stop-color="#E5A22F"/>
</linearGradient>
<linearGradient id="paint16_linear" x1="258.817" y1="38.3103" x2="52.5149" y2="25.0904" gradientUnits="userSpaceOnUse">
<stop stop-color="#FFC700"/>
<stop offset="1" stop-color="#E5A22F"/>
</linearGradient>
<linearGradient id="paint17_linear" x1="259.017" y1="35.6445" x2="52.7156" y2="22.4246" gradientUnits="userSpaceOnUse">
<stop stop-color="#FFC700"/>
<stop offset="1" stop-color="#E5A22F"/>
</linearGradient>
<linearGradient id="paint18_linear" x1="259.186" y1="33.0062" x2="52.8846" y2="19.7863" gradientUnits="userSpaceOnUse">
<stop stop-color="#FFC700"/>
<stop offset="1" stop-color="#E5A22F"/>
</linearGradient>
<linearGradient id="paint19_linear" x1="260.461" y1="57.1649" x2="54.159" y2="43.945" gradientUnits="userSpaceOnUse">
<stop stop-color="#FFC700"/>
<stop offset="1" stop-color="#E5A22F"/>
</linearGradient>
<linearGradient id="paint20_linear" x1="260.631" y1="54.4973" x2="54.3295" y2="41.2774" gradientUnits="userSpaceOnUse">
<stop stop-color="#FFC700"/>
<stop offset="1" stop-color="#E5A22F"/>
</linearGradient>
<linearGradient id="paint21_linear" x1="260.802" y1="51.8307" x2="54.5003" y2="38.6107" gradientUnits="userSpaceOnUse">
<stop stop-color="#FFC700"/>
<stop offset="1" stop-color="#E5A22F"/>
</linearGradient>
<linearGradient id="paint22_linear" x1="260.974" y1="49.1631" x2="54.6717" y2="35.9431" gradientUnits="userSpaceOnUse">
<stop stop-color="#FFC700"/>
<stop offset="1" stop-color="#E5A22F"/>
</linearGradient>
<linearGradient id="paint23_linear" x1="261.144" y1="46.4953" x2="54.8426" y2="33.2754" gradientUnits="userSpaceOnUse">
<stop stop-color="#FFC700"/>
<stop offset="1" stop-color="#E5A22F"/>
</linearGradient>
<linearGradient id="paint24_linear" x1="261.315" y1="43.8277" x2="55.0135" y2="30.6078" gradientUnits="userSpaceOnUse">
<stop stop-color="#FFC700"/>
<stop offset="1" stop-color="#E5A22F"/>
</linearGradient>
<linearGradient id="paint25_linear" x1="261.486" y1="41.16" x2="55.1839" y2="27.9401" gradientUnits="userSpaceOnUse">
<stop stop-color="#FFC700"/>
<stop offset="1" stop-color="#E5A22F"/>
</linearGradient>
<linearGradient id="paint26_linear" x1="261.657" y1="38.4924" x2="55.3553" y2="25.2725" gradientUnits="userSpaceOnUse">
<stop stop-color="#FFC700"/>
<stop offset="1" stop-color="#E5A22F"/>
</linearGradient>
<linearGradient id="paint27_linear" x1="261.828" y1="35.8247" x2="55.5262" y2="22.6048" gradientUnits="userSpaceOnUse">
<stop stop-color="#FFC700"/>
<stop offset="1" stop-color="#E5A22F"/>
</linearGradient>
<linearGradient id="paint28_linear" x1="261.997" y1="33.1852" x2="55.6952" y2="19.9652" gradientUnits="userSpaceOnUse">
<stop stop-color="#FFC700"/>
<stop offset="1" stop-color="#E5A22F"/>
</linearGradient>
<linearGradient id="paint29_linear" x1="262.168" y1="30.5175" x2="55.8666" y2="17.2976" gradientUnits="userSpaceOnUse">
<stop stop-color="#FFC700"/>
<stop offset="1" stop-color="#E5A22F"/>
</linearGradient>
<linearGradient id="paint30_linear" x1="258.782" y1="59.5016" x2="57.9091" y2="46.6295" gradientUnits="userSpaceOnUse">
<stop stop-color="#FFC700"/>
<stop offset="1" stop-color="#E5A22F"/>
</linearGradient>
<linearGradient id="paint31_linear" x1="263.301" y1="57.347" x2="56.9989" y2="44.1271" gradientUnits="userSpaceOnUse">
<stop stop-color="#FFC700"/>
<stop offset="1" stop-color="#E5A22F"/>
</linearGradient>
<linearGradient id="paint32_linear" x1="263.471" y1="54.6793" x2="57.1693" y2="41.4594" gradientUnits="userSpaceOnUse">
<stop stop-color="#FFC700"/>
<stop offset="1" stop-color="#E5A22F"/>
</linearGradient>
<linearGradient id="paint33_linear" x1="263.642" y1="52.0127" x2="57.3401" y2="38.7927" gradientUnits="userSpaceOnUse">
<stop stop-color="#FFC700"/>
<stop offset="1" stop-color="#E5A22F"/>
</linearGradient>
<linearGradient id="paint34_linear" x1="263.813" y1="49.3451" x2="57.5115" y2="36.1251" gradientUnits="userSpaceOnUse">
<stop stop-color="#FFC700"/>
<stop offset="1" stop-color="#E5A22F"/>
</linearGradient>
<linearGradient id="paint35_linear" x1="263.984" y1="46.6775" x2="57.6824" y2="33.4575" gradientUnits="userSpaceOnUse">
<stop stop-color="#FFC700"/>
<stop offset="1" stop-color="#E5A22F"/>
</linearGradient>
<linearGradient id="paint36_linear" x1="264.155" y1="44.0096" x2="57.8528" y2="30.7897" gradientUnits="userSpaceOnUse">
<stop stop-color="#FFC700"/>
<stop offset="1" stop-color="#E5A22F"/>
</linearGradient>
<linearGradient id="paint37_linear" x1="264.326" y1="41.342" x2="58.0237" y2="28.1221" gradientUnits="userSpaceOnUse">
<stop stop-color="#FFC700"/>
<stop offset="1" stop-color="#E5A22F"/>
</linearGradient>
<linearGradient id="paint38_linear" x1="264.497" y1="38.6743" x2="58.1951" y2="25.4544" gradientUnits="userSpaceOnUse">
<stop stop-color="#FFC700"/>
<stop offset="1" stop-color="#E5A22F"/>
</linearGradient>
<linearGradient id="paint39_linear" x1="264.668" y1="36.0066" x2="58.366" y2="22.7866" gradientUnits="userSpaceOnUse">
<stop stop-color="#FFC700"/>
<stop offset="1" stop-color="#E5A22F"/>
</linearGradient>
<linearGradient id="paint40_linear" x1="264.837" y1="33.3672" x2="58.535" y2="20.1472" gradientUnits="userSpaceOnUse">
<stop stop-color="#FFC700"/>
<stop offset="1" stop-color="#E5A22F"/>
</linearGradient>
<linearGradient id="paint41_linear" x1="265.008" y1="30.6994" x2="58.7059" y2="17.4795" gradientUnits="userSpaceOnUse">
<stop stop-color="#FFC700"/>
<stop offset="1" stop-color="#E5A22F"/>
</linearGradient>
<linearGradient id="paint42_linear" x1="260.804" y1="27.9585" x2="59.9306" y2="15.0864" gradientUnits="userSpaceOnUse">
<stop stop-color="#FFC700"/>
<stop offset="1" stop-color="#E5A22F"/>
</linearGradient>
<linearGradient id="paint43_linear" x1="270.39" y1="60.481" x2="58.6588" y2="46.9132" gradientUnits="userSpaceOnUse">
<stop stop-color="#FFC700"/>
<stop offset="1" stop-color="#E5A22F"/>
</linearGradient>
<linearGradient id="paint44_linear" x1="266.17" y1="57.5318" x2="59.868" y2="44.3119" gradientUnits="userSpaceOnUse">
<stop stop-color="#FFC700"/>
<stop offset="1" stop-color="#E5A22F"/>
</linearGradient>
<linearGradient id="paint45_linear" x1="266.341" y1="54.8642" x2="60.0389" y2="41.6443" gradientUnits="userSpaceOnUse">
<stop stop-color="#FFC700"/>
<stop offset="1" stop-color="#E5A22F"/>
</linearGradient>
<linearGradient id="paint46_linear" x1="266.483" y1="52.1947" x2="60.1804" y2="38.9747" gradientUnits="userSpaceOnUse">
<stop stop-color="#FFC700"/>
<stop offset="1" stop-color="#E5A22F"/>
</linearGradient>
<linearGradient id="paint47_linear" x1="266.654" y1="49.527" x2="60.3513" y2="36.307" gradientUnits="userSpaceOnUse">
<stop stop-color="#FFC700"/>
<stop offset="1" stop-color="#E5A22F"/>
</linearGradient>
<linearGradient id="paint48_linear" x1="266.824" y1="46.8594" x2="60.5222" y2="33.6394" gradientUnits="userSpaceOnUse">
<stop stop-color="#FFC700"/>
<stop offset="1" stop-color="#E5A22F"/>
</linearGradient>
<linearGradient id="paint49_linear" x1="267.024" y1="44.1936" x2="60.7225" y2="30.9737" gradientUnits="userSpaceOnUse">
<stop stop-color="#FFC700"/>
<stop offset="1" stop-color="#E5A22F"/>
</linearGradient>
<linearGradient id="paint50_linear" x1="267.196" y1="41.5258" x2="60.8939" y2="28.3059" gradientUnits="userSpaceOnUse">
<stop stop-color="#FFC700"/>
<stop offset="1" stop-color="#E5A22F"/>
</linearGradient>
<linearGradient id="paint51_linear" x1="267.337" y1="38.8563" x2="61.0349" y2="25.6364" gradientUnits="userSpaceOnUse">
<stop stop-color="#FFC700"/>
<stop offset="1" stop-color="#E5A22F"/>
</linearGradient>
<linearGradient id="paint52_linear" x1="267.537" y1="36.1905" x2="61.2352" y2="22.9706" gradientUnits="userSpaceOnUse">
<stop stop-color="#FFC700"/>
<stop offset="1" stop-color="#E5A22F"/>
</linearGradient>
<linearGradient id="paint53_linear" x1="267.706" y1="33.5522" x2="61.4046" y2="20.3323" gradientUnits="userSpaceOnUse">
<stop stop-color="#FFC700"/>
<stop offset="1" stop-color="#E5A22F"/>
</linearGradient>
<linearGradient id="paint54_linear" x1="267.877" y1="30.8845" x2="61.575" y2="17.6646" gradientUnits="userSpaceOnUse">
<stop stop-color="#FFC700"/>
<stop offset="1" stop-color="#E5A22F"/>
</linearGradient>
<linearGradient id="paint55_linear" x1="272.44" y1="28.4982" x2="60.7086" y2="14.9304" gradientUnits="userSpaceOnUse">
<stop stop-color="#FFC700"/>
<stop offset="1" stop-color="#E5A22F"/>
</linearGradient>
<linearGradient id="paint56_linear" x1="268.809" y1="60.3786" x2="62.5072" y2="47.1587" gradientUnits="userSpaceOnUse">
<stop stop-color="#FFC700"/>
<stop offset="1" stop-color="#E5A22F"/>
</linearGradient>
<linearGradient id="paint57_linear" x1="268.981" y1="57.7109" x2="62.6786" y2="44.491" gradientUnits="userSpaceOnUse">
<stop stop-color="#FFC700"/>
<stop offset="1" stop-color="#E5A22F"/>
</linearGradient>
<linearGradient id="paint58_linear" x1="269.151" y1="55.0433" x2="62.8495" y2="41.8234" gradientUnits="userSpaceOnUse">
<stop stop-color="#FFC700"/>
<stop offset="1" stop-color="#E5A22F"/>
</linearGradient>
<linearGradient id="paint59_linear" x1="269.322" y1="52.3767" x2="63.0203" y2="39.1568" gradientUnits="userSpaceOnUse">
<stop stop-color="#FFC700"/>
<stop offset="1" stop-color="#E5A22F"/>
</linearGradient>
<linearGradient id="paint60_linear" x1="269.493" y1="49.7091" x2="63.1907" y2="36.4892" gradientUnits="userSpaceOnUse">
<stop stop-color="#FFC700"/>
<stop offset="1" stop-color="#E5A22F"/>
</linearGradient>
<linearGradient id="paint61_linear" x1="269.665" y1="47.0414" x2="63.3626" y2="33.8214" gradientUnits="userSpaceOnUse">
<stop stop-color="#FFC700"/>
<stop offset="1" stop-color="#E5A22F"/>
</linearGradient>
<linearGradient id="paint62_linear" x1="269.835" y1="44.3738" x2="63.533" y2="31.1538" gradientUnits="userSpaceOnUse">
<stop stop-color="#FFC700"/>
<stop offset="1" stop-color="#E5A22F"/>
</linearGradient>
<linearGradient id="paint63_linear" x1="270.006" y1="41.7059" x2="63.7039" y2="28.486" gradientUnits="userSpaceOnUse">
<stop stop-color="#FFC700"/>
<stop offset="1" stop-color="#E5A22F"/>
</linearGradient>
<linearGradient id="paint64_linear" x1="270.177" y1="39.0382" x2="63.8753" y2="25.8183" gradientUnits="userSpaceOnUse">
<stop stop-color="#FFC700"/>
<stop offset="1" stop-color="#E5A22F"/>
</linearGradient>
<linearGradient id="paint65_linear" x1="270.348" y1="36.3706" x2="64.0462" y2="23.1507" gradientUnits="userSpaceOnUse">
<stop stop-color="#FFC700"/>
<stop offset="1" stop-color="#E5A22F"/>
</linearGradient>
<linearGradient id="paint66_linear" x1="270.517" y1="33.7313" x2="64.2152" y2="20.5114" gradientUnits="userSpaceOnUse">
<stop stop-color="#FFC700"/>
<stop offset="1" stop-color="#E5A22F"/>
</linearGradient>
<linearGradient id="paint67_linear" x1="270.688" y1="31.0635" x2="64.3861" y2="17.8435" gradientUnits="userSpaceOnUse">
<stop stop-color="#FFC700"/>
<stop offset="1" stop-color="#E5A22F"/>
</linearGradient>
<linearGradient id="paint68_linear" x1="270.858" y1="28.3957" x2="64.5565" y2="15.1758" gradientUnits="userSpaceOnUse">
<stop stop-color="#FFC700"/>
<stop offset="1" stop-color="#E5A22F"/>
</linearGradient>
<linearGradient id="paint69_linear" x1="271.65" y1="60.5618" x2="65.3479" y2="47.3418" gradientUnits="userSpaceOnUse">
<stop stop-color="#FFC700"/>
<stop offset="1" stop-color="#E5A22F"/>
</linearGradient>
<linearGradient id="paint70_linear" x1="271.85" y1="57.8959" x2="65.5476" y2="44.6759" gradientUnits="userSpaceOnUse">
<stop stop-color="#FFC700"/>
<stop offset="1" stop-color="#E5A22F"/>
</linearGradient>
<linearGradient id="paint71_linear" x1="272.021" y1="55.2283" x2="65.7185" y2="42.0083" gradientUnits="userSpaceOnUse">
<stop stop-color="#FFC700"/>
<stop offset="1" stop-color="#E5A22F"/>
</linearGradient>
<linearGradient id="paint72_linear" x1="272.163" y1="52.5586" x2="65.8606" y2="39.3386" gradientUnits="userSpaceOnUse">
<stop stop-color="#FFC700"/>
<stop offset="1" stop-color="#E5A22F"/>
</linearGradient>
<linearGradient id="paint73_linear" x1="272.334" y1="49.891" x2="66.0315" y2="36.671" gradientUnits="userSpaceOnUse">
<stop stop-color="#FFC700"/>
<stop offset="1" stop-color="#E5A22F"/>
</linearGradient>
<linearGradient id="paint74_linear" x1="272.504" y1="47.2234" x2="66.2019" y2="34.0034" gradientUnits="userSpaceOnUse">
<stop stop-color="#FFC700"/>
<stop offset="1" stop-color="#E5A22F"/>
</linearGradient>
<linearGradient id="paint75_linear" x1="272.705" y1="44.5576" x2="66.4026" y2="31.3377" gradientUnits="userSpaceOnUse">
<stop stop-color="#FFC700"/>
<stop offset="1" stop-color="#E5A22F"/>
</linearGradient>
<linearGradient id="paint76_linear" x1="272.875" y1="41.8899" x2="66.573" y2="28.6699" gradientUnits="userSpaceOnUse">
<stop stop-color="#FFC700"/>
<stop offset="1" stop-color="#E5A22F"/>
</linearGradient>
<linearGradient id="paint77_linear" x1="273.017" y1="39.2203" x2="66.7151" y2="26.0004" gradientUnits="userSpaceOnUse">
<stop stop-color="#FFC700"/>
<stop offset="1" stop-color="#E5A22F"/>
</linearGradient>
<linearGradient id="paint78_linear" x1="273.217" y1="36.5546" x2="66.9153" y2="23.3346" gradientUnits="userSpaceOnUse">
<stop stop-color="#FFC700"/>
<stop offset="1" stop-color="#E5A22F"/>
</linearGradient>
<linearGradient id="paint79_linear" x1="273.387" y1="33.9161" x2="67.0847" y2="20.6962" gradientUnits="userSpaceOnUse">
<stop stop-color="#FFC700"/>
<stop offset="1" stop-color="#E5A22F"/>
</linearGradient>
<linearGradient id="paint80_linear" x1="273.557" y1="31.2484" x2="67.2551" y2="18.0285" gradientUnits="userSpaceOnUse">
<stop stop-color="#FFC700"/>
<stop offset="1" stop-color="#E5A22F"/>
</linearGradient>
<linearGradient id="paint81_linear" x1="273.699" y1="28.579" x2="67.3972" y2="15.359" gradientUnits="userSpaceOnUse">
<stop stop-color="#FFC700"/>
<stop offset="1" stop-color="#E5A22F"/>
</linearGradient>
<linearGradient id="paint82_linear" x1="270.113" y1="60.2277" x2="69.2402" y2="47.3557" gradientUnits="userSpaceOnUse">
<stop stop-color="#FFC700"/>
<stop offset="1" stop-color="#E5A22F"/>
</linearGradient>
<linearGradient id="paint83_linear" x1="274.689" y1="58.0779" x2="68.3875" y2="44.8579" gradientUnits="userSpaceOnUse">
<stop stop-color="#FFC700"/>
<stop offset="1" stop-color="#E5A22F"/>
</linearGradient>
<linearGradient id="paint84_linear" x1="274.86" y1="55.4103" x2="68.5584" y2="42.1903" gradientUnits="userSpaceOnUse">
<stop stop-color="#FFC700"/>
<stop offset="1" stop-color="#E5A22F"/>
</linearGradient>
<linearGradient id="paint85_linear" x1="275.002" y1="52.7407" x2="68.6999" y2="39.5208" gradientUnits="userSpaceOnUse">
<stop stop-color="#FFC700"/>
<stop offset="1" stop-color="#E5A22F"/>
</linearGradient>
<linearGradient id="paint86_linear" x1="275.173" y1="50.073" x2="68.8708" y2="36.853" gradientUnits="userSpaceOnUse">
<stop stop-color="#FFC700"/>
<stop offset="1" stop-color="#E5A22F"/>
</linearGradient>
<linearGradient id="paint87_linear" x1="275.344" y1="47.4054" x2="69.0417" y2="34.1854" gradientUnits="userSpaceOnUse">
<stop stop-color="#FFC700"/>
<stop offset="1" stop-color="#E5A22F"/>
</linearGradient>
<linearGradient id="paint88_linear" x1="275.544" y1="44.7395" x2="69.242" y2="31.5196" gradientUnits="userSpaceOnUse">
<stop stop-color="#FFC700"/>
<stop offset="1" stop-color="#E5A22F"/>
</linearGradient>
<linearGradient id="paint89_linear" x1="275.716" y1="42.0718" x2="69.4138" y2="28.8518" gradientUnits="userSpaceOnUse">
<stop stop-color="#FFC700"/>
<stop offset="1" stop-color="#E5A22F"/>
</linearGradient>
<linearGradient id="paint90_linear" x1="275.857" y1="39.4022" x2="69.5549" y2="26.1823" gradientUnits="userSpaceOnUse">
<stop stop-color="#FFC700"/>
<stop offset="1" stop-color="#E5A22F"/>
</linearGradient>
<linearGradient id="paint91_linear" x1="276.057" y1="36.7364" x2="69.7551" y2="23.5165" gradientUnits="userSpaceOnUse">
<stop stop-color="#FFC700"/>
<stop offset="1" stop-color="#E5A22F"/>
</linearGradient>
<linearGradient id="paint92_linear" x1="276.226" y1="34.098" x2="69.9241" y2="20.8781" gradientUnits="userSpaceOnUse">
<stop stop-color="#FFC700"/>
<stop offset="1" stop-color="#E5A22F"/>
</linearGradient>
<linearGradient id="paint93_linear" x1="276.397" y1="31.4304" x2="70.0955" y2="18.2105" gradientUnits="userSpaceOnUse">
<stop stop-color="#FFC700"/>
<stop offset="1" stop-color="#E5A22F"/>
</linearGradient>
<linearGradient id="paint94_linear" x1="272.468" y1="28.7059" x2="71.1827" y2="15.8075" gradientUnits="userSpaceOnUse">
<stop stop-color="#FFC700"/>
<stop offset="1" stop-color="#E5A22F"/>
</linearGradient>
<linearGradient id="paint95_linear" x1="277.5" y1="58.2568" x2="71.1987" y2="45.0369" gradientUnits="userSpaceOnUse">
<stop stop-color="#FFC700"/>
<stop offset="1" stop-color="#E5A22F"/>
</linearGradient>
<linearGradient id="paint96_linear" x1="277.671" y1="55.5892" x2="71.3696" y2="42.3693" gradientUnits="userSpaceOnUse">
<stop stop-color="#FFC700"/>
<stop offset="1" stop-color="#E5A22F"/>
</linearGradient>
<linearGradient id="paint97_linear" x1="277.841" y1="52.9226" x2="71.54" y2="39.7027" gradientUnits="userSpaceOnUse">
<stop stop-color="#FFC700"/>
<stop offset="1" stop-color="#E5A22F"/>
</linearGradient>
<linearGradient id="paint98_linear" x1="278.013" y1="50.255" x2="71.7113" y2="37.0351" gradientUnits="userSpaceOnUse">
<stop stop-color="#FFC700"/>
<stop offset="1" stop-color="#E5A22F"/>
</linearGradient>
<linearGradient id="paint99_linear" x1="278.183" y1="47.5872" x2="71.8822" y2="34.3673" gradientUnits="userSpaceOnUse">
<stop stop-color="#FFC700"/>
<stop offset="1" stop-color="#E5A22F"/>
</linearGradient>
<linearGradient id="paint100_linear" x1="278.354" y1="44.9196" x2="72.0531" y2="31.6997" gradientUnits="userSpaceOnUse">
<stop stop-color="#FFC700"/>
<stop offset="1" stop-color="#E5A22F"/>
</linearGradient>
<linearGradient id="paint101_linear" x1="278.525" y1="42.2519" x2="72.2236" y2="29.032" gradientUnits="userSpaceOnUse">
<stop stop-color="#FFC700"/>
<stop offset="1" stop-color="#E5A22F"/>
</linearGradient>
<linearGradient id="paint102_linear" x1="278.697" y1="39.5843" x2="72.3954" y2="26.3644" gradientUnits="userSpaceOnUse">
<stop stop-color="#FFC700"/>
<stop offset="1" stop-color="#E5A22F"/>
</linearGradient>
<linearGradient id="paint103_linear" x1="278.867" y1="36.9166" x2="72.5658" y2="23.6967" gradientUnits="userSpaceOnUse">
<stop stop-color="#FFC700"/>
<stop offset="1" stop-color="#E5A22F"/>
</linearGradient>
<linearGradient id="paint104_linear" x1="279.037" y1="34.277" x2="72.7353" y2="21.0571" gradientUnits="userSpaceOnUse">
<stop stop-color="#FFC700"/>
<stop offset="1" stop-color="#E5A22F"/>
</linearGradient>
<linearGradient id="paint105_linear" x1="279.207" y1="31.6094" x2="72.9062" y2="18.3895" gradientUnits="userSpaceOnUse">
<stop stop-color="#FFC700"/>
<stop offset="1" stop-color="#E5A22F"/>
</linearGradient>
<linearGradient id="paint106_linear" x1="280.541" y1="55.7743" x2="74.2385" y2="42.5543" gradientUnits="userSpaceOnUse">
<stop stop-color="#FFC700"/>
<stop offset="1" stop-color="#E5A22F"/>
</linearGradient>
<linearGradient id="paint107_linear" x1="280.682" y1="53.1046" x2="74.3801" y2="39.8847" gradientUnits="userSpaceOnUse">
<stop stop-color="#FFC700"/>
<stop offset="1" stop-color="#E5A22F"/>
</linearGradient>
<linearGradient id="paint108_linear" x1="280.853" y1="50.437" x2="74.551" y2="37.2171" gradientUnits="userSpaceOnUse">
<stop stop-color="#FFC700"/>
<stop offset="1" stop-color="#E5A22F"/>
</linearGradient>
<linearGradient id="paint109_linear" x1="281.024" y1="47.7692" x2="74.7219" y2="34.5492" gradientUnits="userSpaceOnUse">
<stop stop-color="#FFC700"/>
<stop offset="1" stop-color="#E5A22F"/>
</linearGradient>
<linearGradient id="paint110_linear" x1="281.224" y1="45.1035" x2="74.9221" y2="31.8836" gradientUnits="userSpaceOnUse">
<stop stop-color="#FFC700"/>
<stop offset="1" stop-color="#E5A22F"/>
</linearGradient>
<linearGradient id="paint111_linear" x1="281.395" y1="42.4358" x2="75.093" y2="29.2158" gradientUnits="userSpaceOnUse">
<stop stop-color="#FFC700"/>
<stop offset="1" stop-color="#E5A22F"/>
</linearGradient>
<linearGradient id="paint112_linear" x1="281.537" y1="39.7662" x2="75.2351" y2="26.5463" gradientUnits="userSpaceOnUse">
<stop stop-color="#FFC700"/>
<stop offset="1" stop-color="#E5A22F"/>
</linearGradient>
<linearGradient id="paint113_linear" x1="281.737" y1="37.1005" x2="75.4353" y2="23.8805" gradientUnits="userSpaceOnUse">
<stop stop-color="#FFC700"/>
<stop offset="1" stop-color="#E5A22F"/>
</linearGradient>
<linearGradient id="paint114_linear" x1="281.906" y1="34.462" x2="75.6043" y2="21.2421" gradientUnits="userSpaceOnUse">
<stop stop-color="#FFC700"/>
<stop offset="1" stop-color="#E5A22F"/>
</linearGradient>
<linearGradient id="paint115_linear" x1="283.522" y1="53.2866" x2="77.2201" y2="40.0667" gradientUnits="userSpaceOnUse">
<stop stop-color="#FFC700"/>
<stop offset="1" stop-color="#E5A22F"/>
</linearGradient>
<linearGradient id="paint116_linear" x1="283.693" y1="50.619" x2="77.391" y2="37.3991" gradientUnits="userSpaceOnUse">
<stop stop-color="#FFC700"/>
<stop offset="1" stop-color="#E5A22F"/>
</linearGradient>
<linearGradient id="paint117_linear" x1="283.864" y1="47.9513" x2="77.5623" y2="34.7313" gradientUnits="userSpaceOnUse">
<stop stop-color="#FFC700"/>
<stop offset="1" stop-color="#E5A22F"/>
</linearGradient>
<linearGradient id="paint118_linear" x1="284.035" y1="45.2835" x2="77.7332" y2="32.0636" gradientUnits="userSpaceOnUse">
<stop stop-color="#FFC700"/>
<stop offset="1" stop-color="#E5A22F"/>
</linearGradient>
<linearGradient id="paint119_linear" x1="284.206" y1="42.6159" x2="77.9041" y2="29.396" gradientUnits="userSpaceOnUse">
<stop stop-color="#FFC700"/>
<stop offset="1" stop-color="#E5A22F"/>
</linearGradient>
<linearGradient id="paint120_linear" x1="284.376" y1="39.9482" x2="78.0746" y2="26.7283" gradientUnits="userSpaceOnUse">
<stop stop-color="#FFC700"/>
<stop offset="1" stop-color="#E5A22F"/>
</linearGradient>
<linearGradient id="paint121_linear" x1="284.548" y1="37.2806" x2="78.2464" y2="24.0607" gradientUnits="userSpaceOnUse">
<stop stop-color="#FFC700"/>
<stop offset="1" stop-color="#E5A22F"/>
</linearGradient>
<linearGradient id="paint122_linear" x1="162.933" y1="40.1429" x2="108.643" y2="36.664" gradientUnits="userSpaceOnUse">
<stop stop-color="#FFC700"/>
<stop offset="1" stop-color="#E5A22F"/>
</linearGradient>
<linearGradient id="paint123_linear" x1="185.203" y1="38.9504" x2="103.768" y2="33.7319" gradientUnits="userSpaceOnUse">
<stop stop-color="#FFC700"/>
<stop offset="1" stop-color="#E5A22F"/>
</linearGradient>
<linearGradient id="paint124_linear" x1="163.964" y1="34.9696" x2="108.849" y2="31.4377" gradientUnits="userSpaceOnUse">
<stop stop-color="#FFC700"/>
<stop offset="1" stop-color="#E5A22F"/>
</linearGradient>
</defs>
</svg>
