<svg width="121" height="85" viewBox="0 0 121 85" fill="none" xmlns="http://www.w3.org/2000/svg">
<circle cx="87" cy="48" r="30" fill="#D81A12"/>
<g clip-path="url(#clip0)">
<path d="M82.6442 4.48242H2.35111C1.0547 4.48242 0 5.53695 0 6.83304V78.167C0 79.4631 1.0547 80.5176 2.35111 80.5176H39.6271C40.3147 80.5176 40.8722 79.9603 40.8722 79.2725C40.8722 78.5847 40.3147 78.0273 39.6271 78.0273H2.49023V24.4355L39.6271 24.431C40.3147 24.4309 40.8722 23.8735 40.8721 23.1857C40.8719 22.4979 40.3144 21.9406 39.6268 21.9408L2.49023 21.9453V6.97266H82.5098V21.9453L45.3732 21.9408C44.6856 21.9408 44.1281 22.4981 44.1281 23.1857C44.1281 23.8735 44.6854 24.4309 45.3731 24.431L82.5098 24.4355V78.0273H45.5001C44.8124 78.0273 44.255 78.5847 44.255 79.2725C44.255 79.9603 44.8124 80.5176 45.5001 80.5176H82.6442C83.9431 80.5176 85 79.4631 85 78.167V6.83304C85 5.53695 83.9431 4.48242 82.6442 4.48242Z" fill="#425C5A"/>
<path d="M41.7873 63.2711C44.2359 63.2711 46.2277 61.2796 46.2277 58.8317C46.2277 56.8022 44.8581 55.0877 42.9947 54.5605V45.8221C44.8388 45.2825 46.1902 43.5774 46.1902 41.5614C46.1902 39.1109 44.1982 37.1172 41.7496 37.1172C40.5897 37.1172 39.5326 37.5651 38.7409 38.2966L31.2347 34.121C31.2865 33.8503 31.3145 33.5716 31.3145 33.2862C31.3145 30.8383 29.3225 28.8468 26.8741 28.8468C24.4231 28.8468 22.4289 30.8383 22.4289 33.2862C22.4289 33.5723 22.4571 33.8518 22.5092 34.1231L15.0047 38.2957C14.2121 37.5648 13.1544 37.1174 11.9938 37.1174C9.54525 37.1174 7.55322 39.111 7.55322 41.5616C7.55322 43.5774 8.90442 45.2825 10.7487 45.8222V54.5834C8.92617 55.1365 7.59572 56.8316 7.59572 58.8319C7.59572 61.2798 9.58774 63.2713 12.0361 63.2713C13.1629 63.2713 14.1922 62.8488 14.9759 62.155L22.5092 66.3451C22.4571 66.6164 22.4289 66.8959 22.4289 67.1821C22.4289 69.6327 24.4231 71.6264 26.8741 71.6264C29.3227 71.6264 31.3145 69.6327 31.3145 67.1821C31.3145 66.8959 31.2863 66.6162 31.2342 66.3447L38.8151 62.127C39.6027 62.8377 40.6453 63.2711 41.7873 63.2711ZM43.7375 58.8317C43.7375 59.9065 42.8626 60.7809 41.7873 60.7809C40.712 60.7809 39.837 59.9063 39.837 58.8317C39.837 57.7571 40.7119 56.8825 41.7873 56.8825C42.8628 56.8825 43.7375 57.7569 43.7375 58.8317ZM41.7496 39.6076C42.8251 39.6076 43.7 40.4842 43.7 41.5616C43.7 42.6366 42.8251 43.5108 41.7496 43.5108C40.6742 43.5108 39.7994 42.6364 39.7994 41.5616C39.7993 40.4842 40.6742 39.6076 41.7496 39.6076ZM26.874 31.3372C27.9494 31.3372 28.8241 32.2118 28.8241 33.2864C28.8241 34.361 27.9492 35.2356 26.874 35.2356C25.796 35.2356 24.919 34.361 24.919 33.2864C24.919 32.2118 25.796 31.3372 26.874 31.3372ZM26.874 37.7258C28.1415 37.7258 29.2857 37.1912 30.0955 36.3369L37.4551 40.431C37.3602 40.7921 37.309 41.171 37.309 41.5616C37.309 41.9507 37.3598 42.3281 37.4543 42.688L30.0937 46.7843C29.284 45.931 28.1405 45.3974 26.874 45.3974C25.6059 45.3974 24.4609 45.9313 23.6504 46.7848L16.293 42.6902C16.3879 42.3296 16.4389 41.9516 16.4389 41.5616C16.4389 41.1703 16.3876 40.791 16.2921 40.4292L23.6501 36.3381C24.4608 37.1917 25.6058 37.7258 26.874 37.7258ZM26.874 51.786C25.796 51.786 24.919 50.9114 24.919 49.8368C24.919 48.7622 25.796 47.8876 26.874 47.8876C27.9494 47.8876 28.8241 48.7622 28.8241 49.8368C28.8241 50.9114 27.9494 51.786 26.874 51.786ZM10.0435 41.5616C10.0435 40.4843 10.9184 39.6076 11.9938 39.6076C13.0717 39.6076 13.9486 40.4842 13.9486 41.5616C13.9486 41.9366 13.8401 42.2861 13.6551 42.5838C13.6453 42.5995 13.6349 42.6145 13.6257 42.6309C13.6246 42.6329 13.6239 42.6349 13.6228 42.6369C13.2723 43.163 12.6731 43.511 11.9936 43.511C10.9184 43.5108 10.0435 42.6364 10.0435 41.5616ZM12.0361 60.7809C10.9607 60.7809 10.086 59.9063 10.086 58.8317C10.086 57.7571 10.9609 56.8825 12.0361 56.8825C13.1114 56.8825 13.9865 57.7571 13.9865 58.8317C13.9865 59.9063 13.1114 60.7809 12.0361 60.7809ZM16.3066 60.0455C16.4165 59.6595 16.4766 59.2526 16.4766 58.8317C16.4766 56.8005 15.1046 55.0849 13.2389 54.5591V45.8226C13.9055 45.628 14.5078 45.2818 15.0052 44.8235L22.5092 48.9996C22.4571 49.2709 22.4289 49.5506 22.4289 49.8368C22.4289 51.8531 23.7822 53.5586 25.629 54.0978V62.9213C24.8643 63.1446 24.1848 63.5676 23.6504 64.1303L16.3066 60.0455ZM26.874 69.136C25.796 69.136 24.919 68.2594 24.919 67.182C24.919 66.107 25.796 65.2328 26.874 65.2328C27.9494 65.2328 28.8241 66.1072 28.8241 67.182C28.8243 68.2594 27.9494 69.136 26.874 69.136ZM28.1191 62.9215V54.0973C29.9632 53.5577 31.3144 51.8526 31.3144 49.8367C31.3144 49.5504 31.2862 49.2707 31.234 48.9994L38.7401 44.8223C39.237 45.281 39.8384 45.6273 40.5043 45.8221V54.5819C38.6795 55.1335 37.3466 56.8297 37.3466 58.8317C37.3466 59.2381 37.4025 59.6316 37.5054 60.0059L30.0937 64.1296C29.5604 63.5676 28.8822 63.1448 28.1191 62.9215Z" fill="#425C5A"/>
<path d="M53.147 41.3151H75.4016C76.5267 41.3151 77.4421 40.402 77.4421 39.2796V34.4764C77.4421 33.3515 76.5267 32.4363 75.4016 32.4363H53.147C52.0246 32.4363 51.1113 33.3515 51.1113 34.4764V39.2796C51.1113 40.402 52.0246 41.3151 53.147 41.3151ZM53.6016 34.9267H74.9518V38.8249H53.6016V34.9267Z" fill="#425C5A"/>
<path d="M51.1113 52.6357C51.1113 53.7606 52.0246 54.6759 53.147 54.6759H67.6179C68.743 54.6759 69.6584 53.7606 69.6584 52.6357V47.8324C69.6584 46.71 68.743 45.7969 67.6179 45.7969H53.147C52.0246 45.7969 51.1113 46.71 51.1113 47.8324V52.6357ZM53.6016 48.2871H67.168V52.1855H53.6016V48.2871Z" fill="#425C5A"/>
<path d="M51.1113 65.9917C51.1113 67.1166 52.0246 68.0318 53.147 68.0318H70.9592C72.0843 68.0318 72.9997 67.1166 72.9997 65.9917V61.1884C72.9997 60.0659 72.0843 59.1528 70.9592 59.1528H53.147C52.0246 59.1528 51.1113 60.0659 51.1113 61.1884V65.9917ZM53.6016 61.6432H70.5093V65.5416H53.6016V61.6432Z" fill="#425C5A"/>
<path d="M49.4747 14.1675C49.4747 13.4797 48.9172 12.9224 48.2296 12.9224H12.083C11.3954 12.9224 10.8379 13.4797 10.8379 14.1675C10.8379 14.8553 11.3954 15.4126 12.083 15.4126H48.2294C48.9172 15.4126 49.4747 14.8551 49.4747 14.1675Z" fill="#425C5A"/>
<path d="M58.588 15.0527L58.5927 15.048C59.0789 14.5616 59.0766 13.7757 58.5904 13.2894C58.1041 12.803 57.3134 12.8053 56.8271 13.2918C56.3408 13.7782 56.3408 14.5664 56.8271 15.0527C57.0701 15.2957 57.3889 15.4173 57.7075 15.4173C58.0261 15.4173 58.345 15.2957 58.588 15.0527Z" fill="#425C5A"/>
<path d="M64.8605 15.0527L64.8651 15.048C65.3514 14.5616 65.3491 13.7757 64.8628 13.2894C64.3765 12.803 63.5858 12.8053 63.0996 13.2918C62.6133 13.7782 62.6133 14.5664 63.0996 15.0527C63.3426 15.2957 63.6614 15.4173 63.9799 15.4173C64.2985 15.4173 64.6174 15.2957 64.8605 15.0527Z" fill="#425C5A"/>
<path d="M71.1383 15.0527L71.143 15.048C71.6292 14.5616 71.6269 13.7757 71.1406 13.2894C70.6544 12.803 69.8637 12.8053 69.3774 13.2918C68.8911 13.7782 68.8911 14.5664 69.3774 15.0527C69.6204 15.2957 69.9392 15.4173 70.2578 15.4173C70.5764 15.4173 70.8953 15.2957 71.1383 15.0527Z" fill="#425C5A"/>
</g>
<path d="M85.5251 28.741C85.5356 29.0361 85.5754 29.333 85.6151 29.6299C85.7086 29.5475 85.7766 29.4047 85.786 29.2581C85.7991 29.0529 85.6951 28.8402 85.5251 28.741Z" fill="url(#paint0_linear)"/>
<path d="M85.9568 26.5904C85.9737 26.3266 85.8131 26.0808 85.5533 26.0053C85.542 26.1812 85.5308 26.3571 85.5176 26.5623C85.5064 26.7382 85.4951 26.9141 85.4819 27.1193C85.7492 27.0775 85.9399 26.8543 85.9568 26.5904Z" fill="url(#paint1_linear)"/>
<path d="M86.1275 23.9227C86.1368 23.7762 86.0877 23.6258 86.0055 23.5323C85.9281 23.8217 85.8801 24.1129 85.8027 24.4023C85.984 24.3257 86.1124 24.1573 86.1275 23.9227Z" fill="url(#paint2_linear)"/>
<path d="M87.1421 34.7023C87.1215 35.0248 87.3699 35.2762 87.6627 35.2949C87.9848 35.3156 88.2359 35.0667 88.2547 34.7736C88.2754 34.4511 88.0269 34.1997 87.7341 34.1809C87.4413 34.1622 87.1628 34.3798 87.1421 34.7023Z" fill="url(#paint3_linear)"/>
<path d="M87.3125 32.0346C87.2919 32.357 87.5404 32.6084 87.8331 32.6272C88.1552 32.6478 88.4063 32.399 88.4251 32.1059C88.4458 31.7834 88.1973 31.532 87.9045 31.5132C87.6117 31.4945 87.3332 31.7121 87.3125 32.0346Z" fill="url(#paint4_linear)"/>
<path d="M87.4839 29.3668C87.4633 29.6893 87.7117 29.9407 88.0045 29.9595C88.3266 29.9801 88.5777 29.7313 88.5965 29.4381C88.6172 29.1157 88.3687 28.8643 88.0759 28.8455C87.7831 28.8267 87.5046 29.0444 87.4839 29.3668Z" fill="url(#paint5_linear)"/>
<path d="M87.6548 26.6992C87.6342 27.0217 87.8826 27.2731 88.1754 27.2919C88.4975 27.3125 88.7486 27.0637 88.7674 26.7705C88.7862 26.4774 88.5396 26.1967 88.2468 26.1779C87.954 26.1591 87.6755 26.3768 87.6548 26.6992Z" fill="url(#paint6_linear)"/>
<path d="M87.8257 24.0316C87.8051 24.3541 88.0535 24.6055 88.3463 24.6243C88.6684 24.6449 88.9195 24.3961 88.9383 24.1029C88.959 23.7805 88.7105 23.5291 88.4177 23.5103C88.1249 23.4915 87.8445 23.7385 87.8257 24.0316Z" fill="url(#paint7_linear)"/>
<path d="M87.9971 21.3639C87.9765 21.6864 88.2249 21.9378 88.5177 21.9565C88.8398 21.9772 89.0909 21.7284 89.1097 21.4352C89.1304 21.1127 88.8819 20.8613 88.5891 20.8426C88.2963 20.8238 88.0159 21.0708 87.9971 21.3639Z" fill="url(#paint8_linear)"/>
<path d="M88.1675 18.6962C88.1469 19.0187 88.3953 19.2701 88.6881 19.2888C89.0102 19.3095 89.2613 19.0606 89.2801 18.7675C89.3008 18.445 89.0523 18.1936 88.7595 18.1748C88.4667 18.1561 88.1863 18.403 88.1675 18.6962Z" fill="url(#paint9_linear)"/>
<path d="M90.9529 37.6251C90.9727 37.3175 90.7396 37.0522 90.4324 37.0325C90.1251 37.0128 89.8601 37.2462 89.8404 37.5539C89.8207 37.8615 90.0537 38.1268 90.361 38.1465C90.6682 38.1662 90.9332 37.9328 90.9529 37.6251Z" fill="url(#paint10_linear)"/>
<path d="M89.9825 34.8843C89.9618 35.2068 90.2103 35.4582 90.5031 35.4769C90.7958 35.4957 91.0763 35.2487 91.095 34.9556C91.1157 34.6331 90.8672 34.3817 90.5744 34.363C90.2817 34.3442 90.0031 34.5618 89.9825 34.8843Z" fill="url(#paint11_linear)"/>
<path d="M90.1529 32.2166C90.1322 32.539 90.3807 32.7904 90.6735 32.8092C90.9663 32.828 91.2467 32.581 91.2654 32.2879C91.2861 31.9654 91.0376 31.714 90.7449 31.6952C90.4521 31.6765 90.1735 31.8941 90.1529 32.2166Z" fill="url(#paint12_linear)"/>
<path d="M90.3238 29.549C90.3031 29.8714 90.5516 30.1228 90.8444 30.1416C91.1372 30.1604 91.4176 29.9134 91.4363 29.6203C91.457 29.2978 91.2085 29.0464 90.9158 29.0276C90.623 29.0089 90.3444 29.2265 90.3238 29.549Z" fill="url(#paint13_linear)"/>
<path d="M91.6365 26.9544C91.6563 26.6468 91.4232 26.3814 91.1159 26.3617C90.8087 26.342 90.5437 26.5755 90.524 26.8831C90.5043 27.1907 90.7373 27.456 91.0446 27.4757C91.3518 27.4954 91.6168 27.262 91.6365 26.9544Z" fill="url(#paint14_linear)"/>
<path d="M91.8074 24.2866C91.8272 23.979 91.5941 23.7137 91.2868 23.694C90.9796 23.6743 90.7146 23.9077 90.6949 24.2154C90.6752 24.523 90.9082 24.7883 91.2155 24.808C91.5227 24.8277 91.7877 24.5943 91.8074 24.2866Z" fill="url(#paint15_linear)"/>
<path d="M90.8365 21.5458C90.8158 21.8683 91.0643 22.1197 91.3571 22.1384C91.6498 22.1572 91.9303 21.9102 91.949 21.6171C91.9697 21.2946 91.7212 21.0432 91.4284 21.0245C91.1357 21.0057 90.8553 21.2526 90.8365 21.5458Z" fill="url(#paint16_linear)"/>
<path d="M92.1497 18.9513C92.1694 18.6437 91.9364 18.3784 91.6291 18.3587C91.3219 18.339 91.0569 18.5724 91.0372 18.88C91.0174 19.1876 91.2505 19.453 91.5577 19.4727C91.865 19.4923 92.13 19.2589 92.1497 18.9513Z" fill="url(#paint17_linear)"/>
<path d="M92.3187 16.313C92.3384 16.0054 92.1053 15.7401 91.7981 15.7204C91.4909 15.7007 91.2258 15.9341 91.2061 16.2417C91.1864 16.5493 91.4195 16.8147 91.7267 16.8344C92.0339 16.854 92.299 16.6206 92.3187 16.313Z" fill="url(#paint18_linear)"/>
<path d="M92.4805 40.4015C92.4599 40.724 92.7083 40.9754 93.0011 40.9941C93.3232 41.0148 93.5743 40.766 93.5931 40.4728C93.6119 40.1797 93.3653 39.8989 93.0725 39.8802C92.7816 39.8321 92.5012 40.079 92.4805 40.4015Z" fill="url(#paint19_linear)"/>
<path d="M92.6509 37.7339C92.6303 38.0564 92.8787 38.3078 93.1715 38.3265C93.4936 38.3472 93.7447 38.0984 93.7635 37.8052C93.7842 37.4827 93.5357 37.2313 93.2429 37.2126C92.952 37.1645 92.6716 37.4114 92.6509 37.7339Z" fill="url(#paint20_linear)"/>
<path d="M92.8218 35.0662C92.8012 35.3886 93.0496 35.6401 93.3424 35.6588C93.6645 35.6795 93.9156 35.4306 93.9344 35.1375C93.9551 34.815 93.7066 34.5636 93.4138 34.5448C93.121 34.5261 92.8425 34.7437 92.8218 35.0662Z" fill="url(#paint21_linear)"/>
<path d="M92.9932 32.3986C92.9725 32.721 93.221 32.9725 93.5138 32.9912C93.8359 33.0119 94.087 32.763 94.1058 32.4699C94.1264 32.1474 93.878 31.896 93.5852 31.8772C93.2924 31.8585 93.0139 32.0761 92.9932 32.3986Z" fill="url(#paint22_linear)"/>
<path d="M93.1641 29.7309C93.1434 30.0533 93.3919 30.3047 93.6847 30.3235C94.0068 30.3441 94.2579 30.0953 94.2767 29.8021C94.2973 29.4797 94.0489 29.2283 93.7561 29.2095C93.4633 29.1908 93.1848 29.4084 93.1641 29.7309Z" fill="url(#paint23_linear)"/>
<path d="M93.335 27.0633C93.3143 27.3857 93.5628 27.6371 93.8556 27.6559C94.1777 27.6765 94.4288 27.4277 94.4476 27.1345C94.4664 26.8414 94.2198 26.5607 93.927 26.5419C93.6342 26.5231 93.3557 26.7408 93.335 27.0633Z" fill="url(#paint24_linear)"/>
<path d="M93.5054 24.3955C93.4848 24.718 93.7332 24.9694 94.026 24.9882C94.3481 25.0088 94.5992 24.76 94.618 24.4668C94.6387 24.1444 94.3902 23.8929 94.0974 23.8742C93.8046 23.8554 93.5242 24.1024 93.5054 24.3955Z" fill="url(#paint25_linear)"/>
<path d="M93.6768 21.7279C93.6561 22.0504 93.9046 22.3018 94.1974 22.3206C94.5195 22.3412 94.7706 22.0924 94.7894 21.7992C94.81 21.4768 94.5616 21.2253 94.2688 21.2066C93.976 21.1878 93.6956 21.4348 93.6768 21.7279Z" fill="url(#paint26_linear)"/>
<path d="M93.8477 19.0602C93.827 19.3827 94.0755 19.6341 94.3683 19.6528C94.6904 19.6735 94.9415 19.4246 94.9603 19.1315C94.9809 18.809 94.7325 18.5576 94.4397 18.5389C94.1469 18.5201 93.8665 18.767 93.8477 19.0602Z" fill="url(#paint27_linear)"/>
<path d="M94.0166 16.4218C93.996 16.7442 94.2445 16.9956 94.5372 17.0144C94.8593 17.035 95.1104 16.7862 95.1292 16.4931C95.148 16.1999 94.9014 15.9192 94.6086 15.9004C94.3177 15.8524 94.0373 16.0993 94.0166 16.4218Z" fill="url(#paint28_linear)"/>
<path d="M94.188 13.7542C94.1674 14.0766 94.4158 14.328 94.7086 14.3468C95.0307 14.3674 95.2818 14.1186 95.3006 13.8255C95.3213 13.503 95.0728 13.2516 94.78 13.2328C94.4891 13.1848 94.2087 13.4317 94.188 13.7542Z" fill="url(#paint29_linear)"/>
<path d="M95.7718 42.7024C95.5376 42.6874 95.3232 42.8208 95.2241 42.9911C95.5661 43.1602 95.9099 43.3 96.2537 43.4397C96.2575 43.3811 96.2886 43.3537 96.2924 43.295C96.3112 43.0019 96.0646 42.7212 95.7718 42.7024Z" fill="url(#paint30_linear)"/>
<path d="M95.3204 40.5836C95.2997 40.9061 95.5482 41.1575 95.841 41.1763C96.163 41.1969 96.4141 40.9481 96.4329 40.6549C96.4517 40.3618 96.2051 40.0811 95.9123 40.0623C95.6214 40.0142 95.341 40.2612 95.3204 40.5836Z" fill="url(#paint31_linear)"/>
<path d="M95.4908 37.9159C95.4701 38.2384 95.7186 38.4898 96.0114 38.5085C96.3334 38.5292 96.5846 38.2804 96.6033 37.9872C96.624 37.6647 96.3755 37.4133 96.0827 37.3946C95.7918 37.3465 95.5114 37.5934 95.4908 37.9159Z" fill="url(#paint32_linear)"/>
<path d="M95.6617 35.2482C95.641 35.5707 95.8895 35.8221 96.1823 35.8408C96.5043 35.8615 96.7555 35.6126 96.7742 35.3195C96.7949 34.997 96.5464 34.7456 96.2536 34.7268C95.9609 34.7081 95.6823 34.9257 95.6617 35.2482Z" fill="url(#paint33_linear)"/>
<path d="M95.8331 32.5806C95.8124 32.9031 96.0609 33.1545 96.3536 33.1732C96.6757 33.1939 96.9268 32.945 96.9456 32.6519C96.9663 32.3294 96.7178 32.078 96.425 32.0592C96.1322 32.0405 95.8537 32.2581 95.8331 32.5806Z" fill="url(#paint34_linear)"/>
<path d="M96.004 29.913C95.9833 30.2354 96.2318 30.4869 96.5245 30.5056C96.8466 30.5263 97.0977 30.2774 97.1165 29.9843C97.1372 29.6618 96.8887 29.4104 96.5959 29.3916C96.3031 29.3729 96.0246 29.5905 96.004 29.913Z" fill="url(#paint35_linear)"/>
<path d="M96.1744 27.2451C96.1537 27.5676 96.4022 27.819 96.695 27.8378C97.017 27.8584 97.2681 27.6096 97.2869 27.3164C97.3057 27.0233 97.0591 26.7426 96.7663 26.7238C96.4736 26.705 96.195 26.9227 96.1744 27.2451Z" fill="url(#paint36_linear)"/>
<path d="M96.3453 24.5775C96.3246 24.9 96.5731 25.1514 96.8659 25.1702C97.1879 25.1908 97.439 24.942 97.4578 24.6488C97.4785 24.3264 97.23 24.075 96.9372 24.0562C96.6445 24.0374 96.364 24.2844 96.3453 24.5775Z" fill="url(#paint37_linear)"/>
<path d="M96.5166 21.9098C96.496 22.2323 96.7445 22.4837 97.0372 22.5024C97.3593 22.5231 97.6104 22.2743 97.6292 21.9811C97.6499 21.6586 97.4014 21.4072 97.1086 21.3885C96.8158 21.3697 96.5354 21.6167 96.5166 21.9098Z" fill="url(#paint38_linear)"/>
<path d="M96.6875 19.2421C96.6669 19.5646 96.9154 19.816 97.2081 19.8347C97.5302 19.8554 97.7813 19.6065 97.8001 19.3134C97.8208 18.9909 97.5723 18.7395 97.2795 18.7207C96.9867 18.702 96.7063 18.9489 96.6875 19.2421Z" fill="url(#paint39_linear)"/>
<path d="M96.8565 16.6038C96.8358 16.9262 97.0843 17.1777 97.3771 17.1964C97.6991 17.2171 97.9503 16.9682 97.9691 16.6751C97.9878 16.3819 97.7413 16.1012 97.4485 16.0824C97.1576 16.0344 96.8772 16.2813 96.8565 16.6038Z" fill="url(#paint40_linear)"/>
<path d="M97.0274 13.9361C97.0067 14.2585 97.2552 14.5099 97.548 14.5287C97.87 14.5493 98.1212 14.3005 98.14 14.0073C98.1606 13.6849 97.9121 13.4335 97.6194 13.4147C97.3285 13.3666 97.0481 13.6136 97.0274 13.9361Z" fill="url(#paint41_linear)"/>
<path d="M97.7482 11.8629C98.0703 11.8835 98.3214 11.6347 98.3402 11.3415C98.3439 11.2829 98.3458 11.2536 98.3203 11.1931C97.9614 11.2878 97.6026 11.3826 97.2419 11.5066C97.3184 11.6882 97.514 11.8479 97.7482 11.8629Z" fill="url(#paint42_linear)"/>
<path d="M97.9888 43.4332C97.97 43.7264 98.2166 44.0071 98.5387 44.0278C98.8607 44.0484 99.1119 43.7996 99.1307 43.5064C99.1513 43.184 98.9029 42.9325 98.6101 42.9138C98.3173 42.895 98.0095 43.1108 97.9888 43.4332Z" fill="url(#paint43_linear)"/>
<path d="M99.3021 40.8386C99.3218 40.531 99.0887 40.2657 98.7815 40.246C98.4742 40.2263 98.2092 40.4597 98.1895 40.7674C98.1698 41.075 98.4029 41.3403 98.7101 41.36C99.0173 41.3797 99.2824 41.1463 99.3021 40.8386Z" fill="url(#paint44_linear)"/>
<path d="M99.473 38.171C99.4927 37.8634 99.2596 37.5981 98.9524 37.5784C98.6451 37.5587 98.3801 37.7921 98.3604 38.0998C98.3407 38.4074 98.5738 38.6727 98.881 38.6924C99.1882 38.7121 99.4533 38.4787 99.473 38.171Z" fill="url(#paint45_linear)"/>
<path d="M98.502 35.4302C98.4813 35.7527 98.7298 36.0041 99.0226 36.0228C99.3154 36.0416 99.5958 35.7946 99.6146 35.5015C99.6352 35.179 99.3868 34.9276 99.094 34.9089C98.8012 34.8901 98.5227 35.1077 98.502 35.4302Z" fill="url(#paint46_linear)"/>
<path d="M98.6729 32.7625C98.6522 33.0849 98.9007 33.3363 99.1935 33.3551C99.4863 33.3739 99.7667 33.1269 99.7855 32.8338C99.8061 32.5113 99.5577 32.2599 99.2649 32.2411C98.9721 32.2224 98.6936 32.44 98.6729 32.7625Z" fill="url(#paint47_linear)"/>
<path d="M98.8438 30.0949C98.8231 30.4173 99.0716 30.6687 99.3644 30.6875C99.6572 30.7063 99.9376 30.4593 99.9564 30.1662C99.977 29.8437 99.7286 29.5923 99.4358 29.5735C99.143 29.5548 98.8645 29.7724 98.8438 30.0949Z" fill="url(#paint48_linear)"/>
<path d="M100.157 27.5004C100.176 27.1928 99.9432 26.9274 99.636 26.9078C99.3287 26.8881 99.0637 27.1215 99.044 27.4291C99.0243 27.7367 99.2574 28.002 99.5646 28.0217C99.8718 28.0414 100.137 27.808 100.157 27.5004Z" fill="url(#paint49_linear)"/>
<path d="M100.328 24.8327C100.348 24.5251 100.115 24.2597 99.8074 24.24C99.5001 24.2203 99.2351 24.4538 99.2154 24.7614C99.1957 25.069 99.4287 25.3343 99.736 25.354C100.043 25.3737 100.308 25.1403 100.328 24.8327Z" fill="url(#paint50_linear)"/>
<path d="M99.3565 22.0918C99.3358 22.4143 99.5843 22.6657 99.8771 22.6845C100.17 22.7032 100.45 22.4563 100.469 22.1631C100.49 21.8406 100.241 21.5892 99.9485 21.5705C99.6557 21.5517 99.3753 21.7987 99.3565 22.0918Z" fill="url(#paint51_linear)"/>
<path d="M100.669 19.4973C100.689 19.1897 100.456 18.9244 100.149 18.9047C99.8414 18.885 99.5764 19.1184 99.5567 19.426C99.537 19.7337 99.7701 19.999 100.077 20.0187C100.385 20.0384 100.65 19.805 100.669 19.4973Z" fill="url(#paint52_linear)"/>
<path d="M100.839 16.859C100.858 16.5514 100.625 16.2861 100.318 16.2664C100.011 16.2467 99.7458 16.4801 99.7261 16.7877C99.7064 17.0954 99.9395 17.3607 100.247 17.3804C100.554 17.4001 100.819 17.1666 100.839 16.859Z" fill="url(#paint53_linear)"/>
<path d="M101.009 14.1913C101.029 13.8837 100.796 13.6184 100.489 13.5987C100.181 13.579 99.9162 13.8124 99.8965 14.12C99.8768 14.4276 100.11 14.693 100.417 14.7126C100.724 14.7323 100.989 14.4989 101.009 14.1913Z" fill="url(#paint54_linear)"/>
<path d="M100.039 11.4505C100.018 11.7729 100.266 12.0243 100.559 12.0431C100.852 12.0619 101.162 11.8168 101.18 11.5236C101.201 11.2012 100.953 10.9498 100.66 10.931C100.367 10.9122 100.059 11.128 100.039 11.4505Z" fill="url(#paint55_linear)"/>
<path d="M100.829 43.6153C100.808 43.9377 101.056 44.1891 101.349 44.2079C101.671 44.2285 101.922 43.9797 101.941 43.6865C101.962 43.3641 101.713 43.1127 101.421 43.0939C101.13 43.0458 100.849 43.2928 100.829 43.6153Z" fill="url(#paint56_linear)"/>
<path d="M101 40.9475C100.979 41.27 101.228 41.5214 101.521 41.5402C101.843 41.5608 102.094 41.312 102.113 41.0188C102.131 40.7257 101.885 40.4449 101.592 40.4262C101.301 40.3781 101.021 40.6251 101 40.9475Z" fill="url(#paint57_linear)"/>
<path d="M101.171 38.2799C101.15 38.6024 101.399 38.8538 101.692 38.8726C102.014 38.8932 102.265 38.6444 102.284 38.3512C102.304 38.0288 102.056 37.7773 101.763 37.7586C101.472 37.7105 101.192 37.9575 101.171 38.2799Z" fill="url(#paint58_linear)"/>
<path d="M101.342 35.6122C101.321 35.9347 101.57 36.1861 101.862 36.2048C102.184 36.2255 102.436 35.9766 102.454 35.6835C102.475 35.361 102.227 35.1096 101.934 35.0909C101.641 35.0721 101.363 35.2897 101.342 35.6122Z" fill="url(#paint59_linear)"/>
<path d="M101.512 32.9446C101.492 33.2671 101.74 33.5185 102.033 33.5372C102.355 33.5579 102.606 33.309 102.625 33.0159C102.645 32.6934 102.397 32.442 102.104 32.4233C101.811 32.4045 101.533 32.6221 101.512 32.9446Z" fill="url(#paint60_linear)"/>
<path d="M101.684 30.2769C101.663 30.5993 101.912 30.8507 102.205 30.8695C102.527 30.8901 102.778 30.6413 102.797 30.3482C102.817 30.0257 102.569 29.7743 102.276 29.7555C101.983 29.7368 101.705 29.9544 101.684 30.2769Z" fill="url(#paint61_linear)"/>
<path d="M101.855 27.6093C101.834 27.9317 102.082 28.1831 102.375 28.2019C102.697 28.2225 102.948 27.9737 102.967 27.6806C102.986 27.3874 102.739 27.1067 102.447 27.0879C102.154 27.0692 101.875 27.2868 101.855 27.6093Z" fill="url(#paint62_linear)"/>
<path d="M102.025 24.9414C102.005 25.2639 102.253 25.5153 102.546 25.5341C102.868 25.5547 103.119 25.3059 103.138 25.0127C103.159 24.6903 102.91 24.4388 102.617 24.4201C102.325 24.4013 102.044 24.6483 102.025 24.9414Z" fill="url(#paint63_linear)"/>
<path d="M102.197 22.2737C102.176 22.5962 102.425 22.8476 102.717 22.8663C103.039 22.887 103.291 22.6381 103.309 22.345C103.33 22.0225 103.082 21.7711 102.789 21.7524C102.496 21.7336 102.216 21.9806 102.197 22.2737Z" fill="url(#paint64_linear)"/>
<path d="M102.368 19.6061C102.347 19.9286 102.596 20.18 102.888 20.1987C103.21 20.2194 103.462 19.9705 103.48 19.6774C103.501 19.3549 103.252 19.1035 102.96 19.0848C102.667 19.066 102.387 19.3129 102.368 19.6061Z" fill="url(#paint65_linear)"/>
<path d="M102.537 16.9679C102.516 17.2904 102.764 17.5418 103.057 17.5605C103.379 17.5812 103.63 17.3324 103.649 17.0392C103.668 16.7461 103.421 16.4653 103.129 16.4466C102.838 16.3985 102.557 16.6454 102.537 16.9679Z" fill="url(#paint66_linear)"/>
<path d="M102.708 14.3001C102.687 14.6225 102.935 14.8739 103.228 14.8927C103.55 14.9133 103.801 14.6645 103.82 14.3714C103.841 14.0489 103.592 13.7975 103.3 13.7787C103.009 13.7307 102.728 13.9776 102.708 14.3001Z" fill="url(#paint67_linear)"/>
<path d="M102.878 11.6323C102.857 11.9548 103.106 12.2062 103.399 12.225C103.721 12.2456 103.972 11.9968 103.991 11.7036C104.011 11.3812 103.763 11.1298 103.47 11.111C103.179 11.0629 102.899 11.3099 102.878 11.6323Z" fill="url(#paint68_linear)"/>
<path d="M103.669 43.7973C103.649 44.1197 103.897 44.3711 104.19 44.3899C104.483 44.4087 104.763 44.1617 104.782 43.8686C104.803 43.5461 104.554 43.2947 104.261 43.2759C103.969 43.2572 103.69 43.4748 103.669 43.7973Z" fill="url(#paint69_linear)"/>
<path d="M104.982 41.2027C105.001 40.895 104.768 40.6297 104.461 40.61C104.154 40.5903 103.889 40.8238 103.869 41.1314C103.849 41.439 104.083 41.7043 104.39 41.724C104.697 41.7437 104.962 41.5103 104.982 41.2027Z" fill="url(#paint70_linear)"/>
<path d="M105.153 38.5351C105.172 38.2274 104.939 37.9621 104.632 37.9424C104.325 37.9227 104.06 38.1561 104.04 38.4638C104.02 38.7714 104.253 39.0367 104.561 39.0564C104.868 39.0761 105.133 38.8427 105.153 38.5351Z" fill="url(#paint71_linear)"/>
<path d="M104.182 35.7941C104.162 36.1166 104.41 36.368 104.703 36.3867C104.996 36.4055 105.276 36.1585 105.295 35.8654C105.315 35.5429 105.067 35.2915 104.774 35.2727C104.481 35.254 104.203 35.4716 104.182 35.7941Z" fill="url(#paint72_linear)"/>
<path d="M104.353 33.1265C104.332 33.449 104.581 33.7004 104.874 33.7191C105.166 33.7379 105.447 33.4909 105.466 33.1978C105.486 32.8753 105.238 32.6239 104.945 32.6051C104.652 32.5864 104.374 32.804 104.353 33.1265Z" fill="url(#paint73_linear)"/>
<path d="M104.523 30.4589C104.503 30.7813 104.751 31.0328 105.044 31.0515C105.337 31.0703 105.617 30.8233 105.636 30.5302C105.657 30.2077 105.408 29.9563 105.115 29.9375C104.823 29.9188 104.544 30.1364 104.523 30.4589Z" fill="url(#paint74_linear)"/>
<path d="M105.837 27.8644C105.856 27.5568 105.623 27.2915 105.316 27.2718C105.009 27.2521 104.744 27.4855 104.724 27.7931C104.704 28.1007 104.938 28.3661 105.245 28.3857C105.552 28.4054 105.817 28.172 105.837 27.8644Z" fill="url(#paint75_linear)"/>
<path d="M106.007 25.1967C106.027 24.8891 105.794 24.6237 105.487 24.604C105.179 24.5844 104.914 24.8178 104.895 25.1254C104.875 25.433 105.108 25.6983 105.415 25.718C105.722 25.7377 105.987 25.5043 106.007 25.1967Z" fill="url(#paint76_linear)"/>
<path d="M105.037 22.4558C105.016 22.7783 105.264 23.0297 105.557 23.0485C105.85 23.0672 106.13 22.8203 106.149 22.5271C106.17 22.2047 105.921 21.9533 105.629 21.9345C105.336 21.9157 105.055 22.1627 105.037 22.4558Z" fill="url(#paint77_linear)"/>
<path d="M106.349 19.8614C106.369 19.5537 106.136 19.2884 105.829 19.2687C105.522 19.249 105.257 19.4824 105.237 19.7901C105.217 20.0977 105.45 20.363 105.757 20.3827C106.065 20.4024 106.33 20.169 106.349 19.8614Z" fill="url(#paint78_linear)"/>
<path d="M106.519 17.2229C106.539 16.9153 106.306 16.65 105.998 16.6303C105.691 16.6106 105.426 16.844 105.406 17.1516C105.387 17.4592 105.62 17.7246 105.927 17.7443C106.234 17.764 106.499 17.5305 106.519 17.2229Z" fill="url(#paint79_linear)"/>
<path d="M106.689 14.5552C106.709 14.2476 106.476 13.9823 106.169 13.9626C105.861 13.9429 105.596 14.1763 105.577 14.4839C105.557 14.7915 105.79 15.0569 106.097 15.0765C106.405 15.0962 106.67 14.8628 106.689 14.5552Z" fill="url(#paint80_linear)"/>
<path d="M105.719 11.8145C105.698 12.1369 105.947 12.3883 106.239 12.4071C106.532 12.4259 106.813 12.1789 106.831 11.8858C106.852 11.5633 106.604 11.3119 106.311 11.2931C106.018 11.2744 105.739 11.492 105.719 11.8145Z" fill="url(#paint81_linear)"/>
<path d="M107.132 43.4305C106.81 43.4098 106.559 43.6587 106.54 43.9518C106.536 44.0104 106.535 44.0398 106.56 44.1003C106.919 44.0055 107.278 43.9108 107.638 43.7867C107.533 43.6033 107.337 43.4436 107.132 43.4305Z" fill="url(#paint82_linear)"/>
<path d="M107.822 41.3847C107.841 41.0771 107.608 40.8117 107.301 40.792C106.994 40.7723 106.729 41.0058 106.709 41.3134C106.689 41.621 106.922 41.8863 107.23 41.906C107.537 41.9257 107.802 41.6923 107.822 41.3847Z" fill="url(#paint83_linear)"/>
<path d="M107.992 38.7171C108.012 38.4094 107.779 38.1441 107.472 38.1244C107.165 38.1047 106.9 38.3382 106.88 38.6458C106.86 38.9534 107.093 39.2187 107.401 39.2384C107.708 39.2581 107.973 39.0247 107.992 38.7171Z" fill="url(#paint84_linear)"/>
<path d="M107.022 35.9762C107.001 36.2987 107.249 36.5501 107.542 36.5689C107.835 36.5876 108.115 36.3407 108.134 36.0475C108.155 35.725 107.906 35.4736 107.614 35.4549C107.321 35.4361 107.042 35.6537 107.022 35.9762Z" fill="url(#paint85_linear)"/>
<path d="M107.192 33.3085C107.172 33.631 107.42 33.8824 107.713 33.9011C108.006 33.9199 108.286 33.6729 108.305 33.3798C108.326 33.0573 108.077 32.8059 107.784 32.7871C107.492 32.7684 107.213 32.986 107.192 33.3085Z" fill="url(#paint86_linear)"/>
<path d="M107.363 30.6409C107.343 30.9634 107.591 31.2148 107.884 31.2335C108.177 31.2523 108.457 31.0053 108.476 30.7122C108.497 30.3897 108.248 30.1383 107.955 30.1195C107.663 30.1008 107.384 30.3184 107.363 30.6409Z" fill="url(#paint87_linear)"/>
<path d="M108.676 28.0463C108.696 27.7387 108.463 27.4733 108.155 27.4537C107.848 27.434 107.583 27.6674 107.564 27.975C107.544 28.2826 107.777 28.5479 108.084 28.5676C108.391 28.5873 108.656 28.3539 108.676 28.0463Z" fill="url(#paint88_linear)"/>
<path d="M108.848 25.3786C108.868 25.0709 108.635 24.8056 108.327 24.7859C108.02 24.7662 107.755 24.9997 107.735 25.3073C107.716 25.6149 107.949 25.8802 108.256 25.8999C108.563 25.9196 108.828 25.6862 108.848 25.3786Z" fill="url(#paint89_linear)"/>
<path d="M107.877 22.6377C107.856 22.9602 108.104 23.2116 108.397 23.2303C108.69 23.2491 108.97 23.0022 108.989 22.709C109.01 22.3865 108.761 22.1351 108.468 22.1164C108.176 22.0976 107.895 22.3446 107.877 22.6377Z" fill="url(#paint90_linear)"/>
<path d="M109.189 20.0432C109.209 19.7356 108.976 19.4703 108.669 19.4506C108.361 19.4309 108.096 19.6643 108.077 19.9719C108.057 20.2796 108.29 20.5449 108.597 20.5646C108.905 20.5843 109.17 20.3509 109.189 20.0432Z" fill="url(#paint91_linear)"/>
<path d="M109.358 17.4048C109.378 17.0972 109.145 16.8319 108.838 16.8122C108.53 16.7925 108.265 17.0259 108.246 17.3335C108.226 17.6411 108.459 17.9065 108.766 17.9261C109.073 17.9458 109.339 17.7124 109.358 17.4048Z" fill="url(#paint92_linear)"/>
<path d="M109.53 14.7372C109.549 14.4296 109.316 14.1643 109.009 14.1446C108.702 14.1249 108.437 14.3583 108.417 14.6659C108.397 14.9735 108.63 15.2389 108.938 15.2585C109.245 15.2782 109.51 15.0448 109.53 14.7372Z" fill="url(#paint93_linear)"/>
<path d="M109.108 12.5908C109.343 12.6059 109.557 12.4724 109.656 12.3021C109.314 12.1331 108.97 11.9933 108.626 11.8535C108.623 11.9121 108.591 11.9396 108.588 11.9982C108.54 12.2895 108.786 12.5702 109.108 12.5908Z" fill="url(#paint94_linear)"/>
<path d="M109.52 41.4934C109.499 41.8159 109.748 42.0673 110.041 42.0861C110.363 42.1067 110.614 41.8579 110.633 41.5647C110.651 41.2716 110.405 40.9908 110.112 40.9721C109.821 40.924 109.541 41.171 109.52 41.4934Z" fill="url(#paint95_linear)"/>
<path d="M109.691 38.8258C109.67 39.1483 109.919 39.3997 110.212 39.4185C110.534 39.4391 110.785 39.1903 110.804 38.8971C110.824 38.5747 110.576 38.3232 110.283 38.3045C109.992 38.2564 109.712 38.5034 109.691 38.8258Z" fill="url(#paint96_linear)"/>
<path d="M109.861 36.1581C109.841 36.4806 110.089 36.732 110.382 36.7507C110.704 36.7714 110.955 36.5225 110.974 36.2294C110.995 35.9069 110.746 35.6555 110.453 35.6368C110.161 35.618 109.882 35.8356 109.861 36.1581Z" fill="url(#paint97_linear)"/>
<path d="M110.033 33.4905C110.012 33.813 110.261 34.0644 110.553 34.0831C110.875 34.1038 111.127 33.8549 111.145 33.5618C111.166 33.2393 110.918 32.9879 110.625 32.9692C110.332 32.9504 110.053 33.168 110.033 33.4905Z" fill="url(#paint98_linear)"/>
<path d="M110.204 30.8228C110.183 31.1452 110.431 31.3966 110.724 31.4154C111.046 31.436 111.297 31.1872 111.316 30.8941C111.337 30.5716 111.088 30.3202 110.796 30.3014C110.503 30.2827 110.224 30.5003 110.204 30.8228Z" fill="url(#paint99_linear)"/>
<path d="M110.375 28.1552C110.354 28.4776 110.602 28.729 110.895 28.7478C111.217 28.7684 111.468 28.5196 111.487 28.2265C111.506 27.9333 111.259 27.6526 110.967 27.6338C110.674 27.6151 110.395 27.8327 110.375 28.1552Z" fill="url(#paint100_linear)"/>
<path d="M110.545 25.4874C110.524 25.8099 110.773 26.0613 111.066 26.0801C111.388 26.1007 111.639 25.8519 111.658 25.5587C111.678 25.2363 111.43 24.9849 111.137 24.9661C110.844 24.9473 110.564 25.1943 110.545 25.4874Z" fill="url(#paint101_linear)"/>
<path d="M110.717 22.8198C110.696 23.1423 110.945 23.3937 111.237 23.4125C111.559 23.4331 111.811 23.1843 111.829 22.8911C111.85 22.5687 111.602 22.3173 111.309 22.2985C111.016 22.2797 110.736 22.5267 110.717 22.8198Z" fill="url(#paint102_linear)"/>
<path d="M110.887 20.1521C110.867 20.4746 111.115 20.726 111.408 20.7448C111.73 20.7654 111.981 20.5166 112 20.2234C112.02 19.9009 111.772 19.6495 111.479 19.6308C111.186 19.612 110.906 19.859 110.887 20.1521Z" fill="url(#paint103_linear)"/>
<path d="M111.057 17.5137C111.036 17.8362 111.284 18.0876 111.577 18.1063C111.899 18.127 112.15 17.8781 112.169 17.585C112.188 17.2918 111.941 17.0111 111.649 16.9924C111.358 16.9443 111.077 17.1912 111.057 17.5137Z" fill="url(#paint104_linear)"/>
<path d="M111.228 14.8461C111.207 15.1686 111.455 15.42 111.748 15.4387C112.07 15.4594 112.321 15.2105 112.34 14.9174C112.361 14.5949 112.112 14.3435 111.82 14.3247C111.529 14.2767 111.248 14.5236 111.228 14.8461Z" fill="url(#paint105_linear)"/>
<path d="M113.673 39.0811C113.692 38.7735 113.459 38.5081 113.152 38.4884C112.845 38.4688 112.58 38.7022 112.56 39.0098C112.54 39.3174 112.773 39.5827 113.081 39.6024C113.388 39.6221 113.653 39.3887 113.673 39.0811Z" fill="url(#paint106_linear)"/>
<path d="M112.702 36.3401C112.681 36.6626 112.93 36.914 113.222 36.9327C113.544 36.9534 113.795 36.7046 113.814 36.4114C113.835 36.0889 113.586 35.8375 113.294 35.8188C113.001 35.8 112.722 36.0176 112.702 36.3401Z" fill="url(#paint107_linear)"/>
<path d="M112.873 33.6725C112.852 33.995 113.1 34.2464 113.393 34.2651C113.715 34.2858 113.966 34.037 113.985 33.7438C114.006 33.4213 113.757 33.1699 113.465 33.1512C113.172 33.1324 112.893 33.35 112.873 33.6725Z" fill="url(#paint108_linear)"/>
<path d="M113.044 31.0047C113.023 31.3271 113.271 31.5785 113.564 31.5973C113.886 31.6179 114.137 31.3691 114.156 31.076C114.177 30.7535 113.928 30.5021 113.635 30.4833C113.343 30.4646 113.064 30.6822 113.044 31.0047Z" fill="url(#paint109_linear)"/>
<path d="M114.356 28.4103C114.376 28.1027 114.143 27.8374 113.836 27.8177C113.528 27.798 113.263 28.0314 113.244 28.339C113.224 28.6466 113.457 28.912 113.764 28.9316C114.072 28.9513 114.337 28.7179 114.356 28.4103Z" fill="url(#paint110_linear)"/>
<path d="M114.527 25.7426C114.547 25.435 114.314 25.1696 114.007 25.1499C113.699 25.1303 113.434 25.3637 113.415 25.6713C113.395 25.9789 113.628 26.2442 113.935 26.2639C114.242 26.2836 114.507 26.0502 114.527 25.7426Z" fill="url(#paint111_linear)"/>
<path d="M113.557 23.0017C113.536 23.3242 113.784 23.5756 114.077 23.5944C114.399 23.615 114.65 23.3662 114.669 23.073C114.69 22.7506 114.441 22.4992 114.149 22.4804C113.856 22.4616 113.575 22.7086 113.557 23.0017Z" fill="url(#paint112_linear)"/>
<path d="M114.869 20.4072C114.889 20.0996 114.656 19.8343 114.349 19.8146C114.042 19.7949 113.777 20.0283 113.757 20.336C113.737 20.6436 113.97 20.9089 114.277 20.9286C114.585 20.9483 114.85 20.7149 114.869 20.4072Z" fill="url(#paint113_linear)"/>
<path d="M115.038 17.7688C115.058 17.4612 114.825 17.1959 114.518 17.1762C114.211 17.1565 113.946 17.3899 113.926 17.6975C113.906 18.0051 114.139 18.2705 114.446 18.2902C114.754 18.3099 115.019 18.0764 115.038 17.7688Z" fill="url(#paint114_linear)"/>
<path d="M115.542 36.5221C115.521 36.8446 115.769 37.096 116.062 37.1147C116.384 37.1354 116.635 36.8866 116.654 36.5934C116.675 36.2709 116.426 36.0195 116.134 36.0008C115.841 35.982 115.562 36.1996 115.542 36.5221Z" fill="url(#paint115_linear)"/>
<path d="M115.712 33.8545C115.692 34.177 115.94 34.4284 116.233 34.4471C116.555 34.4678 116.806 34.219 116.825 33.9258C116.846 33.6033 116.597 33.3519 116.304 33.3332C116.012 33.3144 115.733 33.532 115.712 33.8545Z" fill="url(#paint116_linear)"/>
<path d="M115.884 31.1868C115.863 31.5093 116.112 31.7607 116.404 31.7794C116.726 31.8001 116.978 31.5512 116.996 31.2581C117.017 30.9356 116.769 30.6842 116.476 30.6654C116.183 30.6467 115.905 30.8643 115.884 31.1868Z" fill="url(#paint117_linear)"/>
<path d="M116.055 28.5191C116.034 28.8415 116.283 29.0929 116.575 29.1117C116.897 29.1323 117.149 28.8835 117.167 28.5904C117.186 28.2972 116.939 28.0165 116.647 27.9977C116.354 27.979 116.075 28.1966 116.055 28.5191Z" fill="url(#paint118_linear)"/>
<path d="M116.226 25.8515C116.205 26.1739 116.453 26.4253 116.746 26.4441C117.068 26.4647 117.319 26.2159 117.338 25.9228C117.359 25.6003 117.11 25.3489 116.818 25.3301C116.525 25.3114 116.244 25.5583 116.226 25.8515Z" fill="url(#paint119_linear)"/>
<path d="M116.396 23.1837C116.375 23.5062 116.624 23.7576 116.917 23.7764C117.239 23.797 117.49 23.5482 117.509 23.255C117.529 22.9326 117.281 22.6812 116.988 22.6624C116.695 22.6436 116.415 22.8906 116.396 23.1837Z" fill="url(#paint120_linear)"/>
<path d="M116.568 20.5161C116.547 20.8386 116.796 21.09 117.089 21.1088C117.411 21.1294 117.662 20.8806 117.68 20.5874C117.701 20.265 117.453 20.0136 117.16 19.9948C116.867 19.976 116.587 20.223 116.568 20.5161Z" fill="url(#paint121_linear)"/>
<path d="M118.724 31.3687C118.714 31.5152 118.763 31.6656 118.846 31.7591C118.923 31.4697 118.971 31.1785 119.048 30.8891C118.867 30.9658 118.737 31.1635 118.724 31.3687Z" fill="url(#paint122_linear)"/>
<path d="M118.895 28.7011C118.878 28.9649 119.038 29.2107 119.298 29.2862C119.309 29.1103 119.321 28.9344 119.334 28.7292C119.345 28.5533 119.356 28.3774 119.369 28.1722C119.13 28.2452 118.911 28.4372 118.895 28.7011Z" fill="url(#paint123_linear)"/>
<path d="M119.356 26.5524C119.345 26.2573 119.306 25.9604 119.266 25.6635C119.172 25.7459 119.104 25.8887 119.095 26.0353C119.051 26.2679 119.157 26.4513 119.356 26.5524Z" fill="url(#paint124_linear)"/>
<defs>
<linearGradient id="paint0_linear" x1="129.702" y1="32.0136" x2="75.4123" y2="28.5347" gradientUnits="userSpaceOnUse">
<stop stop-color="#FFC700"/>
<stop offset="1" stop-color="#E5A22F"/>
</linearGradient>
<linearGradient id="paint1_linear" x1="151.826" y1="30.8116" x2="70.3907" y2="25.5932" gradientUnits="userSpaceOnUse">
<stop stop-color="#FFC700"/>
<stop offset="1" stop-color="#E5A22F"/>
</linearGradient>
<linearGradient id="paint2_linear" x1="130.036" y1="26.7955" x2="75.7463" y2="23.3166" gradientUnits="userSpaceOnUse">
<stop stop-color="#FFC700"/>
<stop offset="1" stop-color="#E5A22F"/>
</linearGradient>
<linearGradient id="paint3_linear" x1="255.123" y1="45.4668" x2="48.8206" y2="32.2468" gradientUnits="userSpaceOnUse">
<stop stop-color="#FFC700"/>
<stop offset="1" stop-color="#E5A22F"/>
</linearGradient>
<linearGradient id="paint4_linear" x1="255.293" y1="42.7991" x2="48.991" y2="29.5791" gradientUnits="userSpaceOnUse">
<stop stop-color="#FFC700"/>
<stop offset="1" stop-color="#E5A22F"/>
</linearGradient>
<linearGradient id="paint5_linear" x1="255.464" y1="40.1313" x2="49.1624" y2="26.9114" gradientUnits="userSpaceOnUse">
<stop stop-color="#FFC700"/>
<stop offset="1" stop-color="#E5A22F"/>
</linearGradient>
<linearGradient id="paint6_linear" x1="255.635" y1="37.4637" x2="49.3333" y2="24.2438" gradientUnits="userSpaceOnUse">
<stop stop-color="#FFC700"/>
<stop offset="1" stop-color="#E5A22F"/>
</linearGradient>
<linearGradient id="paint7_linear" x1="255.806" y1="34.7961" x2="49.5042" y2="21.5762" gradientUnits="userSpaceOnUse">
<stop stop-color="#FFC700"/>
<stop offset="1" stop-color="#E5A22F"/>
</linearGradient>
<linearGradient id="paint8_linear" x1="255.978" y1="32.1284" x2="49.6756" y2="18.9085" gradientUnits="userSpaceOnUse">
<stop stop-color="#FFC700"/>
<stop offset="1" stop-color="#E5A22F"/>
</linearGradient>
<linearGradient id="paint9_linear" x1="256.148" y1="29.4607" x2="49.846" y2="16.2407" gradientUnits="userSpaceOnUse">
<stop stop-color="#FFC700"/>
<stop offset="1" stop-color="#E5A22F"/>
</linearGradient>
<linearGradient id="paint10_linear" x1="257.821" y1="48.3183" x2="51.5189" y2="35.0984" gradientUnits="userSpaceOnUse">
<stop stop-color="#FFC700"/>
<stop offset="1" stop-color="#E5A22F"/>
</linearGradient>
<linearGradient id="paint11_linear" x1="257.963" y1="45.6488" x2="51.6609" y2="32.4289" gradientUnits="userSpaceOnUse">
<stop stop-color="#FFC700"/>
<stop offset="1" stop-color="#E5A22F"/>
</linearGradient>
<linearGradient id="paint12_linear" x1="258.133" y1="42.9811" x2="51.8313" y2="29.7611" gradientUnits="userSpaceOnUse">
<stop stop-color="#FFC700"/>
<stop offset="1" stop-color="#E5A22F"/>
</linearGradient>
<linearGradient id="paint13_linear" x1="258.304" y1="40.3135" x2="52.0022" y2="27.0935" gradientUnits="userSpaceOnUse">
<stop stop-color="#FFC700"/>
<stop offset="1" stop-color="#E5A22F"/>
</linearGradient>
<linearGradient id="paint14_linear" x1="258.504" y1="37.6476" x2="52.2024" y2="24.4276" gradientUnits="userSpaceOnUse">
<stop stop-color="#FFC700"/>
<stop offset="1" stop-color="#E5A22F"/>
</linearGradient>
<linearGradient id="paint15_linear" x1="258.675" y1="34.9798" x2="52.3733" y2="21.7599" gradientUnits="userSpaceOnUse">
<stop stop-color="#FFC700"/>
<stop offset="1" stop-color="#E5A22F"/>
</linearGradient>
<linearGradient id="paint16_linear" x1="258.817" y1="32.3103" x2="52.5149" y2="19.0904" gradientUnits="userSpaceOnUse">
<stop stop-color="#FFC700"/>
<stop offset="1" stop-color="#E5A22F"/>
</linearGradient>
<linearGradient id="paint17_linear" x1="259.017" y1="29.6445" x2="52.7156" y2="16.4246" gradientUnits="userSpaceOnUse">
<stop stop-color="#FFC700"/>
<stop offset="1" stop-color="#E5A22F"/>
</linearGradient>
<linearGradient id="paint18_linear" x1="259.186" y1="27.0062" x2="52.8846" y2="13.7863" gradientUnits="userSpaceOnUse">
<stop stop-color="#FFC700"/>
<stop offset="1" stop-color="#E5A22F"/>
</linearGradient>
<linearGradient id="paint19_linear" x1="260.461" y1="51.1649" x2="54.159" y2="37.945" gradientUnits="userSpaceOnUse">
<stop stop-color="#FFC700"/>
<stop offset="1" stop-color="#E5A22F"/>
</linearGradient>
<linearGradient id="paint20_linear" x1="260.631" y1="48.4973" x2="54.3295" y2="35.2774" gradientUnits="userSpaceOnUse">
<stop stop-color="#FFC700"/>
<stop offset="1" stop-color="#E5A22F"/>
</linearGradient>
<linearGradient id="paint21_linear" x1="260.802" y1="45.8307" x2="54.5003" y2="32.6107" gradientUnits="userSpaceOnUse">
<stop stop-color="#FFC700"/>
<stop offset="1" stop-color="#E5A22F"/>
</linearGradient>
<linearGradient id="paint22_linear" x1="260.974" y1="43.1631" x2="54.6717" y2="29.9431" gradientUnits="userSpaceOnUse">
<stop stop-color="#FFC700"/>
<stop offset="1" stop-color="#E5A22F"/>
</linearGradient>
<linearGradient id="paint23_linear" x1="261.144" y1="40.4953" x2="54.8426" y2="27.2754" gradientUnits="userSpaceOnUse">
<stop stop-color="#FFC700"/>
<stop offset="1" stop-color="#E5A22F"/>
</linearGradient>
<linearGradient id="paint24_linear" x1="261.315" y1="37.8277" x2="55.0135" y2="24.6078" gradientUnits="userSpaceOnUse">
<stop stop-color="#FFC700"/>
<stop offset="1" stop-color="#E5A22F"/>
</linearGradient>
<linearGradient id="paint25_linear" x1="261.486" y1="35.16" x2="55.1839" y2="21.9401" gradientUnits="userSpaceOnUse">
<stop stop-color="#FFC700"/>
<stop offset="1" stop-color="#E5A22F"/>
</linearGradient>
<linearGradient id="paint26_linear" x1="261.657" y1="32.4924" x2="55.3553" y2="19.2725" gradientUnits="userSpaceOnUse">
<stop stop-color="#FFC700"/>
<stop offset="1" stop-color="#E5A22F"/>
</linearGradient>
<linearGradient id="paint27_linear" x1="261.828" y1="29.8247" x2="55.5262" y2="16.6048" gradientUnits="userSpaceOnUse">
<stop stop-color="#FFC700"/>
<stop offset="1" stop-color="#E5A22F"/>
</linearGradient>
<linearGradient id="paint28_linear" x1="261.997" y1="27.1852" x2="55.6952" y2="13.9652" gradientUnits="userSpaceOnUse">
<stop stop-color="#FFC700"/>
<stop offset="1" stop-color="#E5A22F"/>
</linearGradient>
<linearGradient id="paint29_linear" x1="262.168" y1="24.5175" x2="55.8666" y2="11.2976" gradientUnits="userSpaceOnUse">
<stop stop-color="#FFC700"/>
<stop offset="1" stop-color="#E5A22F"/>
</linearGradient>
<linearGradient id="paint30_linear" x1="258.782" y1="53.5016" x2="57.9091" y2="40.6295" gradientUnits="userSpaceOnUse">
<stop stop-color="#FFC700"/>
<stop offset="1" stop-color="#E5A22F"/>
</linearGradient>
<linearGradient id="paint31_linear" x1="263.301" y1="51.347" x2="56.9989" y2="38.1271" gradientUnits="userSpaceOnUse">
<stop stop-color="#FFC700"/>
<stop offset="1" stop-color="#E5A22F"/>
</linearGradient>
<linearGradient id="paint32_linear" x1="263.471" y1="48.6793" x2="57.1693" y2="35.4594" gradientUnits="userSpaceOnUse">
<stop stop-color="#FFC700"/>
<stop offset="1" stop-color="#E5A22F"/>
</linearGradient>
<linearGradient id="paint33_linear" x1="263.642" y1="46.0127" x2="57.3401" y2="32.7927" gradientUnits="userSpaceOnUse">
<stop stop-color="#FFC700"/>
<stop offset="1" stop-color="#E5A22F"/>
</linearGradient>
<linearGradient id="paint34_linear" x1="263.813" y1="43.3451" x2="57.5115" y2="30.1251" gradientUnits="userSpaceOnUse">
<stop stop-color="#FFC700"/>
<stop offset="1" stop-color="#E5A22F"/>
</linearGradient>
<linearGradient id="paint35_linear" x1="263.984" y1="40.6775" x2="57.6824" y2="27.4575" gradientUnits="userSpaceOnUse">
<stop stop-color="#FFC700"/>
<stop offset="1" stop-color="#E5A22F"/>
</linearGradient>
<linearGradient id="paint36_linear" x1="264.155" y1="38.0096" x2="57.8528" y2="24.7897" gradientUnits="userSpaceOnUse">
<stop stop-color="#FFC700"/>
<stop offset="1" stop-color="#E5A22F"/>
</linearGradient>
<linearGradient id="paint37_linear" x1="264.326" y1="35.342" x2="58.0237" y2="22.1221" gradientUnits="userSpaceOnUse">
<stop stop-color="#FFC700"/>
<stop offset="1" stop-color="#E5A22F"/>
</linearGradient>
<linearGradient id="paint38_linear" x1="264.497" y1="32.6743" x2="58.1951" y2="19.4544" gradientUnits="userSpaceOnUse">
<stop stop-color="#FFC700"/>
<stop offset="1" stop-color="#E5A22F"/>
</linearGradient>
<linearGradient id="paint39_linear" x1="264.668" y1="30.0066" x2="58.366" y2="16.7866" gradientUnits="userSpaceOnUse">
<stop stop-color="#FFC700"/>
<stop offset="1" stop-color="#E5A22F"/>
</linearGradient>
<linearGradient id="paint40_linear" x1="264.837" y1="27.3672" x2="58.535" y2="14.1472" gradientUnits="userSpaceOnUse">
<stop stop-color="#FFC700"/>
<stop offset="1" stop-color="#E5A22F"/>
</linearGradient>
<linearGradient id="paint41_linear" x1="265.008" y1="24.6994" x2="58.7059" y2="11.4795" gradientUnits="userSpaceOnUse">
<stop stop-color="#FFC700"/>
<stop offset="1" stop-color="#E5A22F"/>
</linearGradient>
<linearGradient id="paint42_linear" x1="260.804" y1="21.9585" x2="59.9306" y2="9.08642" gradientUnits="userSpaceOnUse">
<stop stop-color="#FFC700"/>
<stop offset="1" stop-color="#E5A22F"/>
</linearGradient>
<linearGradient id="paint43_linear" x1="270.39" y1="54.481" x2="58.6588" y2="40.9132" gradientUnits="userSpaceOnUse">
<stop stop-color="#FFC700"/>
<stop offset="1" stop-color="#E5A22F"/>
</linearGradient>
<linearGradient id="paint44_linear" x1="266.17" y1="51.5318" x2="59.868" y2="38.3119" gradientUnits="userSpaceOnUse">
<stop stop-color="#FFC700"/>
<stop offset="1" stop-color="#E5A22F"/>
</linearGradient>
<linearGradient id="paint45_linear" x1="266.341" y1="48.8642" x2="60.0389" y2="35.6443" gradientUnits="userSpaceOnUse">
<stop stop-color="#FFC700"/>
<stop offset="1" stop-color="#E5A22F"/>
</linearGradient>
<linearGradient id="paint46_linear" x1="266.483" y1="46.1947" x2="60.1804" y2="32.9747" gradientUnits="userSpaceOnUse">
<stop stop-color="#FFC700"/>
<stop offset="1" stop-color="#E5A22F"/>
</linearGradient>
<linearGradient id="paint47_linear" x1="266.654" y1="43.527" x2="60.3513" y2="30.307" gradientUnits="userSpaceOnUse">
<stop stop-color="#FFC700"/>
<stop offset="1" stop-color="#E5A22F"/>
</linearGradient>
<linearGradient id="paint48_linear" x1="266.824" y1="40.8594" x2="60.5222" y2="27.6394" gradientUnits="userSpaceOnUse">
<stop stop-color="#FFC700"/>
<stop offset="1" stop-color="#E5A22F"/>
</linearGradient>
<linearGradient id="paint49_linear" x1="267.024" y1="38.1936" x2="60.7225" y2="24.9737" gradientUnits="userSpaceOnUse">
<stop stop-color="#FFC700"/>
<stop offset="1" stop-color="#E5A22F"/>
</linearGradient>
<linearGradient id="paint50_linear" x1="267.196" y1="35.5258" x2="60.8939" y2="22.3059" gradientUnits="userSpaceOnUse">
<stop stop-color="#FFC700"/>
<stop offset="1" stop-color="#E5A22F"/>
</linearGradient>
<linearGradient id="paint51_linear" x1="267.337" y1="32.8563" x2="61.0349" y2="19.6364" gradientUnits="userSpaceOnUse">
<stop stop-color="#FFC700"/>
<stop offset="1" stop-color="#E5A22F"/>
</linearGradient>
<linearGradient id="paint52_linear" x1="267.537" y1="30.1905" x2="61.2352" y2="16.9706" gradientUnits="userSpaceOnUse">
<stop stop-color="#FFC700"/>
<stop offset="1" stop-color="#E5A22F"/>
</linearGradient>
<linearGradient id="paint53_linear" x1="267.706" y1="27.5522" x2="61.4046" y2="14.3323" gradientUnits="userSpaceOnUse">
<stop stop-color="#FFC700"/>
<stop offset="1" stop-color="#E5A22F"/>
</linearGradient>
<linearGradient id="paint54_linear" x1="267.877" y1="24.8845" x2="61.575" y2="11.6646" gradientUnits="userSpaceOnUse">
<stop stop-color="#FFC700"/>
<stop offset="1" stop-color="#E5A22F"/>
</linearGradient>
<linearGradient id="paint55_linear" x1="272.44" y1="22.4982" x2="60.7086" y2="8.93039" gradientUnits="userSpaceOnUse">
<stop stop-color="#FFC700"/>
<stop offset="1" stop-color="#E5A22F"/>
</linearGradient>
<linearGradient id="paint56_linear" x1="268.809" y1="54.3786" x2="62.5072" y2="41.1587" gradientUnits="userSpaceOnUse">
<stop stop-color="#FFC700"/>
<stop offset="1" stop-color="#E5A22F"/>
</linearGradient>
<linearGradient id="paint57_linear" x1="268.981" y1="51.7109" x2="62.6786" y2="38.491" gradientUnits="userSpaceOnUse">
<stop stop-color="#FFC700"/>
<stop offset="1" stop-color="#E5A22F"/>
</linearGradient>
<linearGradient id="paint58_linear" x1="269.151" y1="49.0433" x2="62.8495" y2="35.8234" gradientUnits="userSpaceOnUse">
<stop stop-color="#FFC700"/>
<stop offset="1" stop-color="#E5A22F"/>
</linearGradient>
<linearGradient id="paint59_linear" x1="269.322" y1="46.3767" x2="63.0203" y2="33.1568" gradientUnits="userSpaceOnUse">
<stop stop-color="#FFC700"/>
<stop offset="1" stop-color="#E5A22F"/>
</linearGradient>
<linearGradient id="paint60_linear" x1="269.493" y1="43.7091" x2="63.1907" y2="30.4892" gradientUnits="userSpaceOnUse">
<stop stop-color="#FFC700"/>
<stop offset="1" stop-color="#E5A22F"/>
</linearGradient>
<linearGradient id="paint61_linear" x1="269.665" y1="41.0414" x2="63.3626" y2="27.8214" gradientUnits="userSpaceOnUse">
<stop stop-color="#FFC700"/>
<stop offset="1" stop-color="#E5A22F"/>
</linearGradient>
<linearGradient id="paint62_linear" x1="269.835" y1="38.3738" x2="63.533" y2="25.1538" gradientUnits="userSpaceOnUse">
<stop stop-color="#FFC700"/>
<stop offset="1" stop-color="#E5A22F"/>
</linearGradient>
<linearGradient id="paint63_linear" x1="270.006" y1="35.7059" x2="63.7039" y2="22.486" gradientUnits="userSpaceOnUse">
<stop stop-color="#FFC700"/>
<stop offset="1" stop-color="#E5A22F"/>
</linearGradient>
<linearGradient id="paint64_linear" x1="270.177" y1="33.0382" x2="63.8753" y2="19.8183" gradientUnits="userSpaceOnUse">
<stop stop-color="#FFC700"/>
<stop offset="1" stop-color="#E5A22F"/>
</linearGradient>
<linearGradient id="paint65_linear" x1="270.348" y1="30.3706" x2="64.0462" y2="17.1507" gradientUnits="userSpaceOnUse">
<stop stop-color="#FFC700"/>
<stop offset="1" stop-color="#E5A22F"/>
</linearGradient>
<linearGradient id="paint66_linear" x1="270.517" y1="27.7313" x2="64.2152" y2="14.5114" gradientUnits="userSpaceOnUse">
<stop stop-color="#FFC700"/>
<stop offset="1" stop-color="#E5A22F"/>
</linearGradient>
<linearGradient id="paint67_linear" x1="270.688" y1="25.0635" x2="64.3861" y2="11.8435" gradientUnits="userSpaceOnUse">
<stop stop-color="#FFC700"/>
<stop offset="1" stop-color="#E5A22F"/>
</linearGradient>
<linearGradient id="paint68_linear" x1="270.858" y1="22.3957" x2="64.5565" y2="9.17579" gradientUnits="userSpaceOnUse">
<stop stop-color="#FFC700"/>
<stop offset="1" stop-color="#E5A22F"/>
</linearGradient>
<linearGradient id="paint69_linear" x1="271.65" y1="54.5618" x2="65.3479" y2="41.3418" gradientUnits="userSpaceOnUse">
<stop stop-color="#FFC700"/>
<stop offset="1" stop-color="#E5A22F"/>
</linearGradient>
<linearGradient id="paint70_linear" x1="271.85" y1="51.8959" x2="65.5476" y2="38.6759" gradientUnits="userSpaceOnUse">
<stop stop-color="#FFC700"/>
<stop offset="1" stop-color="#E5A22F"/>
</linearGradient>
<linearGradient id="paint71_linear" x1="272.021" y1="49.2283" x2="65.7185" y2="36.0083" gradientUnits="userSpaceOnUse">
<stop stop-color="#FFC700"/>
<stop offset="1" stop-color="#E5A22F"/>
</linearGradient>
<linearGradient id="paint72_linear" x1="272.163" y1="46.5586" x2="65.8606" y2="33.3386" gradientUnits="userSpaceOnUse">
<stop stop-color="#FFC700"/>
<stop offset="1" stop-color="#E5A22F"/>
</linearGradient>
<linearGradient id="paint73_linear" x1="272.334" y1="43.891" x2="66.0315" y2="30.671" gradientUnits="userSpaceOnUse">
<stop stop-color="#FFC700"/>
<stop offset="1" stop-color="#E5A22F"/>
</linearGradient>
<linearGradient id="paint74_linear" x1="272.504" y1="41.2234" x2="66.2019" y2="28.0034" gradientUnits="userSpaceOnUse">
<stop stop-color="#FFC700"/>
<stop offset="1" stop-color="#E5A22F"/>
</linearGradient>
<linearGradient id="paint75_linear" x1="272.705" y1="38.5576" x2="66.4026" y2="25.3377" gradientUnits="userSpaceOnUse">
<stop stop-color="#FFC700"/>
<stop offset="1" stop-color="#E5A22F"/>
</linearGradient>
<linearGradient id="paint76_linear" x1="272.875" y1="35.8899" x2="66.573" y2="22.6699" gradientUnits="userSpaceOnUse">
<stop stop-color="#FFC700"/>
<stop offset="1" stop-color="#E5A22F"/>
</linearGradient>
<linearGradient id="paint77_linear" x1="273.017" y1="33.2203" x2="66.7151" y2="20.0004" gradientUnits="userSpaceOnUse">
<stop stop-color="#FFC700"/>
<stop offset="1" stop-color="#E5A22F"/>
</linearGradient>
<linearGradient id="paint78_linear" x1="273.217" y1="30.5546" x2="66.9153" y2="17.3346" gradientUnits="userSpaceOnUse">
<stop stop-color="#FFC700"/>
<stop offset="1" stop-color="#E5A22F"/>
</linearGradient>
<linearGradient id="paint79_linear" x1="273.387" y1="27.9161" x2="67.0847" y2="14.6962" gradientUnits="userSpaceOnUse">
<stop stop-color="#FFC700"/>
<stop offset="1" stop-color="#E5A22F"/>
</linearGradient>
<linearGradient id="paint80_linear" x1="273.557" y1="25.2484" x2="67.2551" y2="12.0285" gradientUnits="userSpaceOnUse">
<stop stop-color="#FFC700"/>
<stop offset="1" stop-color="#E5A22F"/>
</linearGradient>
<linearGradient id="paint81_linear" x1="273.699" y1="22.579" x2="67.3972" y2="9.35903" gradientUnits="userSpaceOnUse">
<stop stop-color="#FFC700"/>
<stop offset="1" stop-color="#E5A22F"/>
</linearGradient>
<linearGradient id="paint82_linear" x1="270.113" y1="54.2277" x2="69.2402" y2="41.3557" gradientUnits="userSpaceOnUse">
<stop stop-color="#FFC700"/>
<stop offset="1" stop-color="#E5A22F"/>
</linearGradient>
<linearGradient id="paint83_linear" x1="274.689" y1="52.0779" x2="68.3875" y2="38.8579" gradientUnits="userSpaceOnUse">
<stop stop-color="#FFC700"/>
<stop offset="1" stop-color="#E5A22F"/>
</linearGradient>
<linearGradient id="paint84_linear" x1="274.86" y1="49.4103" x2="68.5584" y2="36.1903" gradientUnits="userSpaceOnUse">
<stop stop-color="#FFC700"/>
<stop offset="1" stop-color="#E5A22F"/>
</linearGradient>
<linearGradient id="paint85_linear" x1="275.002" y1="46.7407" x2="68.6999" y2="33.5208" gradientUnits="userSpaceOnUse">
<stop stop-color="#FFC700"/>
<stop offset="1" stop-color="#E5A22F"/>
</linearGradient>
<linearGradient id="paint86_linear" x1="275.173" y1="44.073" x2="68.8708" y2="30.853" gradientUnits="userSpaceOnUse">
<stop stop-color="#FFC700"/>
<stop offset="1" stop-color="#E5A22F"/>
</linearGradient>
<linearGradient id="paint87_linear" x1="275.344" y1="41.4054" x2="69.0417" y2="28.1854" gradientUnits="userSpaceOnUse">
<stop stop-color="#FFC700"/>
<stop offset="1" stop-color="#E5A22F"/>
</linearGradient>
<linearGradient id="paint88_linear" x1="275.544" y1="38.7395" x2="69.242" y2="25.5196" gradientUnits="userSpaceOnUse">
<stop stop-color="#FFC700"/>
<stop offset="1" stop-color="#E5A22F"/>
</linearGradient>
<linearGradient id="paint89_linear" x1="275.716" y1="36.0718" x2="69.4138" y2="22.8518" gradientUnits="userSpaceOnUse">
<stop stop-color="#FFC700"/>
<stop offset="1" stop-color="#E5A22F"/>
</linearGradient>
<linearGradient id="paint90_linear" x1="275.857" y1="33.4022" x2="69.5549" y2="20.1823" gradientUnits="userSpaceOnUse">
<stop stop-color="#FFC700"/>
<stop offset="1" stop-color="#E5A22F"/>
</linearGradient>
<linearGradient id="paint91_linear" x1="276.057" y1="30.7364" x2="69.7551" y2="17.5165" gradientUnits="userSpaceOnUse">
<stop stop-color="#FFC700"/>
<stop offset="1" stop-color="#E5A22F"/>
</linearGradient>
<linearGradient id="paint92_linear" x1="276.226" y1="28.098" x2="69.9241" y2="14.8781" gradientUnits="userSpaceOnUse">
<stop stop-color="#FFC700"/>
<stop offset="1" stop-color="#E5A22F"/>
</linearGradient>
<linearGradient id="paint93_linear" x1="276.397" y1="25.4304" x2="70.0955" y2="12.2105" gradientUnits="userSpaceOnUse">
<stop stop-color="#FFC700"/>
<stop offset="1" stop-color="#E5A22F"/>
</linearGradient>
<linearGradient id="paint94_linear" x1="272.468" y1="22.7059" x2="71.1827" y2="9.80746" gradientUnits="userSpaceOnUse">
<stop stop-color="#FFC700"/>
<stop offset="1" stop-color="#E5A22F"/>
</linearGradient>
<linearGradient id="paint95_linear" x1="277.5" y1="52.2568" x2="71.1987" y2="39.0369" gradientUnits="userSpaceOnUse">
<stop stop-color="#FFC700"/>
<stop offset="1" stop-color="#E5A22F"/>
</linearGradient>
<linearGradient id="paint96_linear" x1="277.671" y1="49.5892" x2="71.3696" y2="36.3693" gradientUnits="userSpaceOnUse">
<stop stop-color="#FFC700"/>
<stop offset="1" stop-color="#E5A22F"/>
</linearGradient>
<linearGradient id="paint97_linear" x1="277.841" y1="46.9226" x2="71.54" y2="33.7027" gradientUnits="userSpaceOnUse">
<stop stop-color="#FFC700"/>
<stop offset="1" stop-color="#E5A22F"/>
</linearGradient>
<linearGradient id="paint98_linear" x1="278.013" y1="44.255" x2="71.7113" y2="31.0351" gradientUnits="userSpaceOnUse">
<stop stop-color="#FFC700"/>
<stop offset="1" stop-color="#E5A22F"/>
</linearGradient>
<linearGradient id="paint99_linear" x1="278.183" y1="41.5872" x2="71.8822" y2="28.3673" gradientUnits="userSpaceOnUse">
<stop stop-color="#FFC700"/>
<stop offset="1" stop-color="#E5A22F"/>
</linearGradient>
<linearGradient id="paint100_linear" x1="278.354" y1="38.9196" x2="72.0531" y2="25.6997" gradientUnits="userSpaceOnUse">
<stop stop-color="#FFC700"/>
<stop offset="1" stop-color="#E5A22F"/>
</linearGradient>
<linearGradient id="paint101_linear" x1="278.525" y1="36.2519" x2="72.2236" y2="23.032" gradientUnits="userSpaceOnUse">
<stop stop-color="#FFC700"/>
<stop offset="1" stop-color="#E5A22F"/>
</linearGradient>
<linearGradient id="paint102_linear" x1="278.697" y1="33.5843" x2="72.3954" y2="20.3644" gradientUnits="userSpaceOnUse">
<stop stop-color="#FFC700"/>
<stop offset="1" stop-color="#E5A22F"/>
</linearGradient>
<linearGradient id="paint103_linear" x1="278.867" y1="30.9166" x2="72.5658" y2="17.6967" gradientUnits="userSpaceOnUse">
<stop stop-color="#FFC700"/>
<stop offset="1" stop-color="#E5A22F"/>
</linearGradient>
<linearGradient id="paint104_linear" x1="279.037" y1="28.277" x2="72.7353" y2="15.0571" gradientUnits="userSpaceOnUse">
<stop stop-color="#FFC700"/>
<stop offset="1" stop-color="#E5A22F"/>
</linearGradient>
<linearGradient id="paint105_linear" x1="279.207" y1="25.6094" x2="72.9062" y2="12.3895" gradientUnits="userSpaceOnUse">
<stop stop-color="#FFC700"/>
<stop offset="1" stop-color="#E5A22F"/>
</linearGradient>
<linearGradient id="paint106_linear" x1="280.541" y1="49.7743" x2="74.2385" y2="36.5543" gradientUnits="userSpaceOnUse">
<stop stop-color="#FFC700"/>
<stop offset="1" stop-color="#E5A22F"/>
</linearGradient>
<linearGradient id="paint107_linear" x1="280.682" y1="47.1046" x2="74.3801" y2="33.8847" gradientUnits="userSpaceOnUse">
<stop stop-color="#FFC700"/>
<stop offset="1" stop-color="#E5A22F"/>
</linearGradient>
<linearGradient id="paint108_linear" x1="280.853" y1="44.437" x2="74.551" y2="31.2171" gradientUnits="userSpaceOnUse">
<stop stop-color="#FFC700"/>
<stop offset="1" stop-color="#E5A22F"/>
</linearGradient>
<linearGradient id="paint109_linear" x1="281.024" y1="41.7692" x2="74.7219" y2="28.5492" gradientUnits="userSpaceOnUse">
<stop stop-color="#FFC700"/>
<stop offset="1" stop-color="#E5A22F"/>
</linearGradient>
<linearGradient id="paint110_linear" x1="281.224" y1="39.1035" x2="74.9221" y2="25.8836" gradientUnits="userSpaceOnUse">
<stop stop-color="#FFC700"/>
<stop offset="1" stop-color="#E5A22F"/>
</linearGradient>
<linearGradient id="paint111_linear" x1="281.395" y1="36.4358" x2="75.093" y2="23.2158" gradientUnits="userSpaceOnUse">
<stop stop-color="#FFC700"/>
<stop offset="1" stop-color="#E5A22F"/>
</linearGradient>
<linearGradient id="paint112_linear" x1="281.537" y1="33.7662" x2="75.2351" y2="20.5463" gradientUnits="userSpaceOnUse">
<stop stop-color="#FFC700"/>
<stop offset="1" stop-color="#E5A22F"/>
</linearGradient>
<linearGradient id="paint113_linear" x1="281.737" y1="31.1005" x2="75.4353" y2="17.8805" gradientUnits="userSpaceOnUse">
<stop stop-color="#FFC700"/>
<stop offset="1" stop-color="#E5A22F"/>
</linearGradient>
<linearGradient id="paint114_linear" x1="281.906" y1="28.462" x2="75.6043" y2="15.2421" gradientUnits="userSpaceOnUse">
<stop stop-color="#FFC700"/>
<stop offset="1" stop-color="#E5A22F"/>
</linearGradient>
<linearGradient id="paint115_linear" x1="283.522" y1="47.2866" x2="77.2201" y2="34.0667" gradientUnits="userSpaceOnUse">
<stop stop-color="#FFC700"/>
<stop offset="1" stop-color="#E5A22F"/>
</linearGradient>
<linearGradient id="paint116_linear" x1="283.693" y1="44.619" x2="77.391" y2="31.3991" gradientUnits="userSpaceOnUse">
<stop stop-color="#FFC700"/>
<stop offset="1" stop-color="#E5A22F"/>
</linearGradient>
<linearGradient id="paint117_linear" x1="283.864" y1="41.9513" x2="77.5623" y2="28.7313" gradientUnits="userSpaceOnUse">
<stop stop-color="#FFC700"/>
<stop offset="1" stop-color="#E5A22F"/>
</linearGradient>
<linearGradient id="paint118_linear" x1="284.035" y1="39.2835" x2="77.7332" y2="26.0636" gradientUnits="userSpaceOnUse">
<stop stop-color="#FFC700"/>
<stop offset="1" stop-color="#E5A22F"/>
</linearGradient>
<linearGradient id="paint119_linear" x1="284.206" y1="36.6159" x2="77.9041" y2="23.396" gradientUnits="userSpaceOnUse">
<stop stop-color="#FFC700"/>
<stop offset="1" stop-color="#E5A22F"/>
</linearGradient>
<linearGradient id="paint120_linear" x1="284.376" y1="33.9482" x2="78.0746" y2="20.7283" gradientUnits="userSpaceOnUse">
<stop stop-color="#FFC700"/>
<stop offset="1" stop-color="#E5A22F"/>
</linearGradient>
<linearGradient id="paint121_linear" x1="284.548" y1="31.2806" x2="78.2464" y2="18.0607" gradientUnits="userSpaceOnUse">
<stop stop-color="#FFC700"/>
<stop offset="1" stop-color="#E5A22F"/>
</linearGradient>
<linearGradient id="paint122_linear" x1="162.933" y1="34.1429" x2="108.643" y2="30.664" gradientUnits="userSpaceOnUse">
<stop stop-color="#FFC700"/>
<stop offset="1" stop-color="#E5A22F"/>
</linearGradient>
<linearGradient id="paint123_linear" x1="185.203" y1="32.9504" x2="103.768" y2="27.7319" gradientUnits="userSpaceOnUse">
<stop stop-color="#FFC700"/>
<stop offset="1" stop-color="#E5A22F"/>
</linearGradient>
<linearGradient id="paint124_linear" x1="163.964" y1="28.9696" x2="108.849" y2="25.4377" gradientUnits="userSpaceOnUse">
<stop stop-color="#FFC700"/>
<stop offset="1" stop-color="#E5A22F"/>
</linearGradient>
<clipPath id="clip0">
<rect width="85" height="85" fill="white"/>
</clipPath>
</defs>
</svg>
