<svg width="123" height="89" viewBox="0 0 123 89" fill="none" xmlns="http://www.w3.org/2000/svg">
<circle cx="89" cy="49" r="30" fill="#D81A12"/>
<path d="M44.7409 20.4471C40.512 20.4471 36.8989 22.2669 35.3128 25.1948C34.9692 25.8277 35.2048 26.6187 35.8376 26.9616C36.4705 27.3052 37.2615 27.0696 37.6044 26.4367C38.718 24.382 41.519 23.0539 44.7409 23.0539C47.9635 23.0539 50.7645 24.382 51.878 26.4367C52.1143 26.8727 52.5625 27.1198 53.0249 27.1198C53.2347 27.1198 53.4479 27.0689 53.6448 26.9623C54.2777 26.6194 54.5126 25.8284 54.1697 25.1948C52.5835 22.2669 48.9705 20.4471 44.7409 20.4471Z" fill="#425C5A"/>
<path d="M58.0424 22.0714C58.2787 22.5066 58.7268 22.7538 59.1893 22.7538C59.3991 22.7538 59.6123 22.7029 59.8092 22.5963C60.442 22.2534 60.677 21.4623 60.3341 20.8295C57.7355 16.0336 51.7608 13.0554 44.7411 13.0554C37.7221 13.0554 31.7475 16.0343 29.1489 20.8295C28.806 21.4623 29.0409 22.2534 29.6738 22.5963C30.3066 22.9392 31.0977 22.7042 31.4406 22.0714C33.5829 18.1182 38.6796 15.6622 44.7411 15.6622C50.8034 15.6622 55.9001 18.1175 58.0424 22.0714Z" fill="#425C5A"/>
<path d="M23.1394 19.1761C23.7729 19.5197 24.5633 19.2847 24.9069 18.6519C28.1227 12.7221 35.723 9.03839 44.7417 9.03839C53.7597 9.03839 61.3599 12.7221 64.5764 18.6519C64.812 19.0872 65.2602 19.3343 65.7233 19.3343C65.9331 19.3343 66.1456 19.2834 66.3432 19.1761C66.9761 18.8332 67.211 18.0421 66.8674 17.4093C63.1953 10.6381 54.7171 6.43164 44.7417 6.43164C34.7662 6.43164 26.288 10.6381 22.6152 17.4093C22.2723 18.0421 22.5073 18.8332 23.1394 19.1761Z" fill="#425C5A"/>
<path d="M69.7718 46.1881C71.6397 46.1881 73.1594 44.6664 73.1594 42.7957C73.1594 40.925 71.6397 39.4033 69.7718 39.4033C67.9017 39.4033 66.3794 40.925 66.3794 42.7957C66.3794 44.6664 67.9017 46.1881 69.7718 46.1881ZM69.7718 42.0101C70.2029 42.0101 70.5526 42.3625 70.5526 42.7957C70.5526 43.2221 70.1955 43.582 69.7718 43.582C69.3385 43.582 68.9861 43.2289 68.9861 42.7957C68.9861 42.3625 69.3392 42.0101 69.7718 42.0101Z" fill="#425C5A"/>
<path d="M69.7718 50.125C67.9017 50.125 66.3794 51.6474 66.3794 53.518C66.3794 55.3887 67.9017 56.9104 69.7718 56.9104C71.6397 56.9104 73.1594 55.3887 73.1594 53.518C73.1594 51.6474 71.6397 50.125 69.7718 50.125ZM69.7718 54.3037C69.3385 54.3037 68.9861 53.9513 68.9861 53.518C68.9861 53.0848 69.3385 52.7317 69.7718 52.7317C70.1955 52.7317 70.5526 53.0916 70.5526 53.518C70.5533 53.9513 70.2029 54.3037 69.7718 54.3037Z" fill="#425C5A"/>
<path d="M67.7984 48.1565C67.7984 46.2865 66.2767 44.7642 64.406 44.7642C62.5353 44.7642 61.0137 46.2858 61.0137 48.1565C61.0137 50.0272 62.5353 51.5496 64.406 51.5496C66.2767 51.5496 67.7984 50.0272 67.7984 48.1565ZM64.406 48.9428C63.9728 48.9428 63.6204 48.5904 63.6204 48.1565C63.6204 47.7233 63.9728 47.3709 64.406 47.3709C64.8393 47.3709 65.1923 47.7233 65.1923 48.1565C65.1923 48.5904 64.8393 48.9428 64.406 48.9428Z" fill="#425C5A"/>
<path d="M75.1333 44.7642C73.2626 44.7642 71.7402 46.2858 71.7402 48.1565C71.7402 50.0272 73.2626 51.5496 75.1333 51.5496C77.004 51.5496 78.5257 50.0272 78.5257 48.1565C78.5257 46.2865 77.004 44.7642 75.1333 44.7642ZM75.1333 48.9428C74.7001 48.9428 74.347 48.5904 74.347 48.1565C74.347 47.7233 74.7001 47.3709 75.1333 47.3709C75.5665 47.3709 75.9189 47.7233 75.9189 48.1565C75.9189 48.5904 75.5665 48.9428 75.1333 48.9428Z" fill="#425C5A"/>
<path d="M32.3443 53.1459C28.939 53.1459 26.168 55.9163 26.168 59.3222C26.168 62.7282 28.939 65.4986 32.3443 65.4986C35.7502 65.4986 38.5206 62.7275 38.5206 59.3222C38.5206 55.9163 35.7502 53.1459 32.3443 53.1459ZM32.3443 62.8925C30.3758 62.8925 28.7747 61.2907 28.7747 59.3222C28.7747 57.3537 30.3758 55.7526 32.3443 55.7526C34.3128 55.7526 35.9146 57.3537 35.9146 59.3222C35.9146 61.2907 34.3128 62.8925 32.3443 62.8925Z" fill="#425C5A"/>
<path d="M88.4024 68.1611L82.1249 42.2471C81.2218 38.5199 79.4285 35.6789 76.7946 33.8028C76.2514 33.4158 75.6749 33.0742 75.0713 32.7795V32.2458C75.0713 29.5332 72.8665 27.3264 70.1566 27.3264H67.2348C64.5214 27.3264 62.3146 29.5332 62.3146 32.2458V32.9989C61.2628 33.572 60.4324 34.2707 59.934 35.0427H47.3627C46.6429 35.0427 46.0589 35.626 46.0589 36.3457C46.0589 37.0655 46.6429 37.6495 47.3627 37.6495H59.4566V40.3126C59.4566 41.784 58.2615 42.9811 56.7935 42.9811H32.2063C30.7356 42.9811 29.5385 41.784 29.5385 40.3126V37.6495H41.3418C42.0616 37.6495 42.6448 37.0655 42.6448 36.3457C42.6448 35.626 42.0616 35.0427 41.3418 35.0427H29.0611C28.5641 34.272 27.7357 33.574 26.6852 33.0009V32.2458C26.6852 29.5332 24.4784 27.3257 21.7651 27.3257H18.8487C16.1354 27.3257 13.9286 29.5332 13.9286 32.2458V32.7789C13.3263 33.0736 12.7518 33.4144 12.2093 33.8001C9.57334 35.6755 7.7787 38.5179 6.87493 42.2471L0.597417 68.1604C-0.326725 71.9731 -0.17802 75.1984 1.03878 77.7474C2.12724 80.0262 4.01491 81.6348 6.49807 82.398C11.8195 84.0344 18.0502 81.3034 19.8319 76.5537L22.8474 68.5216C23.2352 67.4881 23.5427 67.3571 23.5461 67.3557C23.5815 67.3476 23.8177 67.3781 24.2659 67.7054C28.4887 71.5398 35.4045 71.3742 39.9587 67.4006H49.0405C51.1475 69.24 53.8249 70.3292 56.6373 70.4806C59.7079 70.6456 62.5787 69.6603 64.7333 67.7054C65.2384 67.336 65.4496 67.3537 65.4517 67.3557C65.4544 67.3571 65.7613 67.4875 66.1517 68.5209L69.1625 76.5537C70.5938 80.3643 74.8873 82.8753 79.2764 82.8747C80.3601 82.8747 81.45 82.7219 82.5038 82.3973C84.9863 81.6334 86.8733 80.0248 87.9611 77.7454C89.1779 75.197 89.3266 71.9724 88.4024 68.1611ZM67.2341 29.9324H70.1559C71.2878 29.9324 72.2303 30.7534 72.4258 31.8323C71.3442 31.5695 70.2082 31.431 69.0341 31.4269C69.0158 31.4269 68.9982 31.4269 68.9805 31.4269C67.5688 31.4269 66.1911 31.6211 64.9397 31.9634C65.0802 30.8213 66.0546 29.9324 67.2341 29.9324ZM18.8487 29.9324H21.7651C22.9452 29.9324 23.9196 30.8213 24.0595 31.964C22.8087 31.6218 21.4303 31.4269 20.0187 31.4269C20.0037 31.4269 19.9888 31.4269 19.9738 31.4269C18.7971 31.4303 17.6584 31.5689 16.574 31.8323C16.7702 30.7534 17.7141 29.9324 18.8487 29.9324ZM81.7372 79.906C78.1282 81.0169 73.0268 79.4273 71.6035 75.6377L68.5914 67.6029C68.0061 66.0534 67.2164 65.1544 66.1775 64.8529C65.2255 64.5758 64.1968 64.8475 63.1199 65.6575C63.086 65.6833 63.0527 65.7112 63.0215 65.7397C59.6678 68.8238 54.0252 68.561 50.444 65.1537C50.2016 64.9228 49.8798 64.7945 49.5457 64.7945H39.4541C39.1201 64.7945 38.7982 64.9228 38.5558 65.1537C34.972 68.563 29.33 68.8265 25.9791 65.7404C25.9471 65.7112 25.9139 65.6833 25.8792 65.6575C24.801 64.8461 23.7709 64.5758 22.8169 64.8536C21.7766 65.1564 20.9883 66.0568 20.407 67.6056L17.3915 75.6377C15.9704 79.4273 10.8723 81.0169 7.264 79.9074C3.22317 78.6641 1.71644 74.607 3.13015 68.7749L9.40766 42.8616C10.5416 38.1825 13.0594 35.9315 15.5657 34.8845C15.6709 34.8567 15.7714 34.8166 15.8644 34.7643C17.3596 34.1953 18.8311 34.0371 19.9813 34.0337C21.9274 34.031 23.6059 34.4486 24.8315 34.9836C24.8526 34.9931 24.8736 35.0033 24.896 35.0121C26.0103 35.5085 26.7362 36.0999 26.931 36.5515V40.3126C26.931 43.2208 29.2974 45.5872 32.2056 45.5872H56.7928C59.6983 45.5872 62.0627 43.2208 62.0627 40.3126V36.5522C62.2555 36.106 62.9658 35.5228 64.0549 35.0298C64.1187 35.0067 64.1805 34.9809 64.2389 34.949C65.4496 34.4323 67.084 34.0337 68.9771 34.0337H69.024C70.1729 34.0378 71.6429 34.1967 73.1361 34.7657C73.2278 34.8166 73.3269 34.856 73.4308 34.8838C75.9377 35.9302 78.4569 38.1811 79.5908 42.8609L85.8683 68.7749C87.2827 74.6056 85.7767 78.6627 81.7372 79.906Z" fill="#425C5A"/>
<path d="M57.6758 53.1459C54.2699 53.1459 51.4995 55.9163 51.4995 59.3222C51.4995 62.7282 54.2699 65.4986 57.6758 65.4986C61.0811 65.4986 63.8522 62.7275 63.8522 59.3222C63.8522 55.9163 61.0811 53.1459 57.6758 53.1459ZM57.6758 62.8925C55.7074 62.8925 54.1063 61.2907 54.1063 59.3222C54.1063 57.3537 55.7074 55.7526 57.6758 55.7526C59.6443 55.7526 61.2454 57.3537 61.2454 59.3222C61.2454 61.2907 59.6443 62.8925 57.6758 62.8925Z" fill="#425C5A"/>
<path d="M23.3374 44.7594H22.9409V44.3629C22.9409 42.1581 21.1469 40.3641 18.9422 40.3641C16.7374 40.3641 14.9434 42.1581 14.9434 44.3629V44.7594H14.5469C12.3421 44.7594 10.5488 46.5534 10.5488 48.7581C10.5488 50.9629 12.3421 52.7569 14.5469 52.7569H14.9434V53.1534C14.9434 55.3582 16.7374 57.1521 18.9422 57.1521C21.1469 57.1521 22.9409 55.3582 22.9409 53.1534V52.7569H23.3374C25.5422 52.7569 27.3362 50.9629 27.3362 48.7581C27.3362 46.5534 25.5422 44.7594 23.3374 44.7594ZM23.3374 50.1501H21.6378C20.9181 50.1501 20.3341 50.7334 20.3341 51.4532V53.1534C20.3341 53.9207 19.7101 54.5454 18.9422 54.5454C18.1749 54.5454 17.5508 53.9207 17.5508 53.1534V51.4532C17.5508 50.7334 16.9669 50.1501 16.2471 50.1501H14.5476C13.7803 50.1501 13.1556 49.5254 13.1556 48.7581C13.1556 47.9908 13.7803 47.3662 14.5476 47.3662H16.2471C16.9669 47.3662 17.5508 46.7822 17.5508 46.0624V44.3629C17.5508 43.5949 18.1749 42.9709 18.9422 42.9709C19.7101 42.9709 20.3341 43.5949 20.3341 44.3629V46.0624C20.3341 46.7822 20.9181 47.3662 21.6378 47.3662H23.3374C24.1047 47.3662 24.7294 47.9908 24.7294 48.7581C24.7294 49.5254 24.1054 50.1501 23.3374 50.1501Z" fill="#425C5A"/>
<path d="M41.0807 49.5831H39.1883C38.4685 49.5831 37.8853 50.1671 37.8853 50.8868C37.8853 51.6066 38.4685 52.1899 39.1883 52.1899H41.0807C41.8005 52.1899 42.3837 51.6066 42.3837 50.8868C42.3837 50.1671 41.8005 49.5831 41.0807 49.5831Z" fill="#425C5A"/>
<path d="M49.8122 49.5831H47.915C47.1953 49.5831 46.6113 50.1671 46.6113 50.8868C46.6113 51.6066 47.1953 52.1899 47.915 52.1899H49.8122C50.532 52.1899 51.1153 51.6066 51.1153 50.8868C51.1153 50.1671 50.532 49.5831 49.8122 49.5831Z" fill="#425C5A"/>
<path d="M45.9484 56.4127H44.0566C43.3369 56.4127 42.7529 56.996 42.7529 57.7158C42.7529 58.4355 43.3369 59.0195 44.0566 59.0195H45.9484C46.6688 59.0195 47.2521 58.4355 47.2521 57.7158C47.2521 56.996 46.6688 56.4127 45.9484 56.4127Z" fill="#425C5A"/>
<path d="M87.5251 29.741C87.5356 30.0361 87.5754 30.333 87.6151 30.6299C87.7086 30.5475 87.7766 30.4047 87.786 30.2581C87.7991 30.0529 87.6951 29.8402 87.5251 29.741Z" fill="url(#paint0_linear)"/>
<path d="M87.9568 27.5904C87.9737 27.3266 87.8131 27.0808 87.5533 27.0053C87.542 27.1812 87.5308 27.3571 87.5176 27.5623C87.5064 27.7382 87.4951 27.9141 87.4819 28.1193C87.7492 28.0775 87.9399 27.8543 87.9568 27.5904Z" fill="url(#paint1_linear)"/>
<path d="M88.1275 24.9227C88.1368 24.7762 88.0877 24.6258 88.0055 24.5323C87.9281 24.8217 87.8801 25.1129 87.8027 25.4023C87.984 25.3257 88.1124 25.1573 88.1275 24.9227Z" fill="url(#paint2_linear)"/>
<path d="M89.1421 35.7023C89.1215 36.0248 89.3699 36.2762 89.6627 36.2949C89.9848 36.3156 90.2359 36.0667 90.2547 35.7736C90.2754 35.4511 90.0269 35.1997 89.7341 35.1809C89.4413 35.1622 89.1628 35.3798 89.1421 35.7023Z" fill="url(#paint3_linear)"/>
<path d="M89.3125 33.0346C89.2919 33.357 89.5404 33.6084 89.8331 33.6272C90.1552 33.6478 90.4063 33.399 90.4251 33.1059C90.4458 32.7834 90.1973 32.532 89.9045 32.5132C89.6117 32.4945 89.3332 32.7121 89.3125 33.0346Z" fill="url(#paint4_linear)"/>
<path d="M89.4839 30.3668C89.4633 30.6893 89.7117 30.9407 90.0045 30.9595C90.3266 30.9801 90.5777 30.7313 90.5965 30.4381C90.6172 30.1157 90.3687 29.8643 90.0759 29.8455C89.7831 29.8267 89.5046 30.0444 89.4839 30.3668Z" fill="url(#paint5_linear)"/>
<path d="M89.6548 27.6992C89.6342 28.0217 89.8826 28.2731 90.1754 28.2919C90.4975 28.3125 90.7486 28.0637 90.7674 27.7705C90.7862 27.4774 90.5396 27.1967 90.2468 27.1779C89.954 27.1591 89.6755 27.3768 89.6548 27.6992Z" fill="url(#paint6_linear)"/>
<path d="M89.8257 25.0316C89.8051 25.3541 90.0535 25.6055 90.3463 25.6243C90.6684 25.6449 90.9195 25.3961 90.9383 25.1029C90.959 24.7805 90.7105 24.5291 90.4177 24.5103C90.1249 24.4915 89.8445 24.7385 89.8257 25.0316Z" fill="url(#paint7_linear)"/>
<path d="M89.9971 22.3639C89.9765 22.6864 90.2249 22.9378 90.5177 22.9565C90.8398 22.9772 91.0909 22.7284 91.1097 22.4352C91.1304 22.1127 90.8819 21.8613 90.5891 21.8426C90.2963 21.8238 90.0159 22.0708 89.9971 22.3639Z" fill="url(#paint8_linear)"/>
<path d="M90.1675 19.6962C90.1469 20.0187 90.3953 20.2701 90.6881 20.2888C91.0102 20.3095 91.2613 20.0606 91.2801 19.7675C91.3008 19.445 91.0523 19.1936 90.7595 19.1748C90.4667 19.1561 90.1863 19.403 90.1675 19.6962Z" fill="url(#paint9_linear)"/>
<path d="M92.9529 38.6251C92.9727 38.3175 92.7396 38.0522 92.4324 38.0325C92.1251 38.0128 91.8601 38.2462 91.8404 38.5539C91.8207 38.8615 92.0537 39.1268 92.361 39.1465C92.6682 39.1662 92.9332 38.9328 92.9529 38.6251Z" fill="url(#paint10_linear)"/>
<path d="M91.9825 35.8843C91.9618 36.2068 92.2103 36.4582 92.5031 36.4769C92.7958 36.4957 93.0763 36.2487 93.095 35.9556C93.1157 35.6331 92.8672 35.3817 92.5744 35.363C92.2817 35.3442 92.0031 35.5618 91.9825 35.8843Z" fill="url(#paint11_linear)"/>
<path d="M92.1529 33.2166C92.1322 33.539 92.3807 33.7904 92.6735 33.8092C92.9663 33.828 93.2467 33.581 93.2654 33.2879C93.2861 32.9654 93.0376 32.714 92.7449 32.6952C92.4521 32.6765 92.1735 32.8941 92.1529 33.2166Z" fill="url(#paint12_linear)"/>
<path d="M92.3238 30.549C92.3031 30.8714 92.5516 31.1228 92.8444 31.1416C93.1372 31.1604 93.4176 30.9134 93.4363 30.6203C93.457 30.2978 93.2085 30.0464 92.9158 30.0276C92.623 30.0089 92.3444 30.2265 92.3238 30.549Z" fill="url(#paint13_linear)"/>
<path d="M93.6365 27.9544C93.6563 27.6468 93.4232 27.3814 93.1159 27.3617C92.8087 27.342 92.5437 27.5755 92.524 27.8831C92.5043 28.1907 92.7373 28.456 93.0446 28.4757C93.3518 28.4954 93.6168 28.262 93.6365 27.9544Z" fill="url(#paint14_linear)"/>
<path d="M93.8074 25.2866C93.8272 24.979 93.5941 24.7137 93.2868 24.694C92.9796 24.6743 92.7146 24.9077 92.6949 25.2154C92.6752 25.523 92.9082 25.7883 93.2155 25.808C93.5227 25.8277 93.7877 25.5943 93.8074 25.2866Z" fill="url(#paint15_linear)"/>
<path d="M92.8365 22.5458C92.8158 22.8683 93.0643 23.1197 93.3571 23.1384C93.6498 23.1572 93.9303 22.9102 93.949 22.6171C93.9697 22.2946 93.7212 22.0432 93.4284 22.0245C93.1357 22.0057 92.8553 22.2526 92.8365 22.5458Z" fill="url(#paint16_linear)"/>
<path d="M94.1497 19.9513C94.1694 19.6437 93.9364 19.3784 93.6291 19.3587C93.3219 19.339 93.0569 19.5724 93.0372 19.88C93.0174 20.1876 93.2505 20.453 93.5577 20.4727C93.865 20.4923 94.13 20.2589 94.1497 19.9513Z" fill="url(#paint17_linear)"/>
<path d="M94.3187 17.313C94.3384 17.0054 94.1053 16.7401 93.7981 16.7204C93.4909 16.7007 93.2258 16.9341 93.2061 17.2417C93.1864 17.5493 93.4195 17.8147 93.7267 17.8344C94.0339 17.854 94.299 17.6206 94.3187 17.313Z" fill="url(#paint18_linear)"/>
<path d="M94.4805 41.4015C94.4599 41.724 94.7083 41.9754 95.0011 41.9941C95.3232 42.0148 95.5743 41.766 95.5931 41.4728C95.6119 41.1797 95.3653 40.8989 95.0725 40.8802C94.7816 40.8321 94.5012 41.079 94.4805 41.4015Z" fill="url(#paint19_linear)"/>
<path d="M94.6509 38.7339C94.6303 39.0564 94.8787 39.3078 95.1715 39.3265C95.4936 39.3472 95.7447 39.0984 95.7635 38.8052C95.7842 38.4827 95.5357 38.2313 95.2429 38.2126C94.952 38.1645 94.6716 38.4114 94.6509 38.7339Z" fill="url(#paint20_linear)"/>
<path d="M94.8218 36.0662C94.8012 36.3886 95.0496 36.6401 95.3424 36.6588C95.6645 36.6795 95.9156 36.4306 95.9344 36.1375C95.9551 35.815 95.7066 35.5636 95.4138 35.5448C95.121 35.5261 94.8425 35.7437 94.8218 36.0662Z" fill="url(#paint21_linear)"/>
<path d="M94.9932 33.3986C94.9725 33.721 95.221 33.9725 95.5138 33.9912C95.8359 34.0119 96.087 33.763 96.1058 33.4699C96.1264 33.1474 95.878 32.896 95.5852 32.8772C95.2924 32.8585 95.0139 33.0761 94.9932 33.3986Z" fill="url(#paint22_linear)"/>
<path d="M95.1641 30.7309C95.1434 31.0533 95.3919 31.3047 95.6847 31.3235C96.0068 31.3441 96.2579 31.0953 96.2767 30.8021C96.2973 30.4797 96.0489 30.2283 95.7561 30.2095C95.4633 30.1908 95.1848 30.4084 95.1641 30.7309Z" fill="url(#paint23_linear)"/>
<path d="M95.335 28.0633C95.3143 28.3857 95.5628 28.6371 95.8556 28.6559C96.1777 28.6765 96.4288 28.4277 96.4476 28.1345C96.4664 27.8414 96.2198 27.5607 95.927 27.5419C95.6342 27.5231 95.3557 27.7408 95.335 28.0633Z" fill="url(#paint24_linear)"/>
<path d="M95.5054 25.3955C95.4848 25.718 95.7332 25.9694 96.026 25.9882C96.3481 26.0088 96.5992 25.76 96.618 25.4668C96.6387 25.1444 96.3902 24.8929 96.0974 24.8742C95.8046 24.8554 95.5242 25.1024 95.5054 25.3955Z" fill="url(#paint25_linear)"/>
<path d="M95.6768 22.7279C95.6561 23.0504 95.9046 23.3018 96.1974 23.3206C96.5195 23.3412 96.7706 23.0924 96.7894 22.7992C96.81 22.4768 96.5616 22.2253 96.2688 22.2066C95.976 22.1878 95.6956 22.4348 95.6768 22.7279Z" fill="url(#paint26_linear)"/>
<path d="M95.8477 20.0602C95.827 20.3827 96.0755 20.6341 96.3683 20.6528C96.6904 20.6735 96.9415 20.4246 96.9603 20.1315C96.9809 19.809 96.7325 19.5576 96.4397 19.5389C96.1469 19.5201 95.8665 19.767 95.8477 20.0602Z" fill="url(#paint27_linear)"/>
<path d="M96.0166 17.4218C95.996 17.7442 96.2445 17.9956 96.5372 18.0144C96.8593 18.035 97.1104 17.7862 97.1292 17.4931C97.148 17.1999 96.9014 16.9192 96.6086 16.9004C96.3177 16.8524 96.0373 17.0993 96.0166 17.4218Z" fill="url(#paint28_linear)"/>
<path d="M96.188 14.7542C96.1674 15.0766 96.4158 15.328 96.7086 15.3468C97.0307 15.3674 97.2818 15.1186 97.3006 14.8255C97.3213 14.503 97.0728 14.2516 96.78 14.2328C96.4891 14.1848 96.2087 14.4317 96.188 14.7542Z" fill="url(#paint29_linear)"/>
<path d="M97.7718 43.7024C97.5376 43.6874 97.3232 43.8208 97.2241 43.9911C97.5661 44.1602 97.9099 44.3 98.2537 44.4397C98.2575 44.3811 98.2886 44.3537 98.2924 44.295C98.3112 44.0019 98.0646 43.7212 97.7718 43.7024Z" fill="url(#paint30_linear)"/>
<path d="M97.3204 41.5836C97.2997 41.9061 97.5482 42.1575 97.841 42.1763C98.163 42.1969 98.4141 41.9481 98.4329 41.6549C98.4517 41.3618 98.2051 41.0811 97.9123 41.0623C97.6214 41.0142 97.341 41.2612 97.3204 41.5836Z" fill="url(#paint31_linear)"/>
<path d="M97.4908 38.9159C97.4701 39.2384 97.7186 39.4898 98.0114 39.5085C98.3334 39.5292 98.5846 39.2804 98.6033 38.9872C98.624 38.6647 98.3755 38.4133 98.0827 38.3946C97.7918 38.3465 97.5114 38.5934 97.4908 38.9159Z" fill="url(#paint32_linear)"/>
<path d="M97.6617 36.2482C97.641 36.5707 97.8895 36.8221 98.1823 36.8408C98.5043 36.8615 98.7555 36.6126 98.7742 36.3195C98.7949 35.997 98.5464 35.7456 98.2536 35.7268C97.9609 35.7081 97.6823 35.9257 97.6617 36.2482Z" fill="url(#paint33_linear)"/>
<path d="M97.8331 33.5806C97.8124 33.9031 98.0609 34.1545 98.3536 34.1732C98.6757 34.1939 98.9268 33.945 98.9456 33.6519C98.9663 33.3294 98.7178 33.078 98.425 33.0592C98.1322 33.0405 97.8537 33.2581 97.8331 33.5806Z" fill="url(#paint34_linear)"/>
<path d="M98.004 30.913C97.9833 31.2354 98.2318 31.4869 98.5245 31.5056C98.8466 31.5263 99.0977 31.2774 99.1165 30.9843C99.1372 30.6618 98.8887 30.4104 98.5959 30.3916C98.3031 30.3729 98.0246 30.5905 98.004 30.913Z" fill="url(#paint35_linear)"/>
<path d="M98.1744 28.2451C98.1537 28.5676 98.4022 28.819 98.695 28.8378C99.017 28.8584 99.2681 28.6096 99.2869 28.3164C99.3057 28.0233 99.0591 27.7426 98.7663 27.7238C98.4736 27.705 98.195 27.9227 98.1744 28.2451Z" fill="url(#paint36_linear)"/>
<path d="M98.3453 25.5775C98.3246 25.9 98.5731 26.1514 98.8659 26.1702C99.1879 26.1908 99.439 25.942 99.4578 25.6488C99.4785 25.3264 99.23 25.075 98.9372 25.0562C98.6445 25.0374 98.364 25.2844 98.3453 25.5775Z" fill="url(#paint37_linear)"/>
<path d="M98.5166 22.9098C98.496 23.2323 98.7445 23.4837 99.0372 23.5024C99.3593 23.5231 99.6104 23.2743 99.6292 22.9811C99.6499 22.6586 99.4014 22.4072 99.1086 22.3885C98.8158 22.3697 98.5354 22.6167 98.5166 22.9098Z" fill="url(#paint38_linear)"/>
<path d="M98.6875 20.2421C98.6669 20.5646 98.9154 20.816 99.2081 20.8347C99.5302 20.8554 99.7813 20.6065 99.8001 20.3134C99.8208 19.9909 99.5723 19.7395 99.2795 19.7207C98.9867 19.702 98.7063 19.9489 98.6875 20.2421Z" fill="url(#paint39_linear)"/>
<path d="M98.8565 17.6038C98.8358 17.9262 99.0843 18.1777 99.3771 18.1964C99.6991 18.2171 99.9503 17.9682 99.9691 17.6751C99.9878 17.3819 99.7413 17.1012 99.4485 17.0824C99.1576 17.0344 98.8772 17.2813 98.8565 17.6038Z" fill="url(#paint40_linear)"/>
<path d="M99.0274 14.9361C99.0067 15.2585 99.2552 15.5099 99.548 15.5287C99.87 15.5493 100.121 15.3005 100.14 15.0073C100.161 14.6849 99.9121 14.4335 99.6194 14.4147C99.3285 14.3666 99.0481 14.6136 99.0274 14.9361Z" fill="url(#paint41_linear)"/>
<path d="M99.7482 12.8629C100.07 12.8835 100.321 12.6347 100.34 12.3415C100.344 12.2829 100.346 12.2536 100.32 12.1931C99.9614 12.2878 99.6026 12.3826 99.2419 12.5066C99.3184 12.6882 99.514 12.8479 99.7482 12.8629Z" fill="url(#paint42_linear)"/>
<path d="M99.9888 44.4332C99.97 44.7264 100.217 45.0071 100.539 45.0278C100.861 45.0484 101.112 44.7996 101.131 44.5064C101.151 44.184 100.903 43.9325 100.61 43.9138C100.317 43.895 100.009 44.1108 99.9888 44.4332Z" fill="url(#paint43_linear)"/>
<path d="M101.302 41.8386C101.322 41.531 101.089 41.2657 100.781 41.246C100.474 41.2263 100.209 41.4597 100.19 41.7674C100.17 42.075 100.403 42.3403 100.71 42.36C101.017 42.3797 101.282 42.1463 101.302 41.8386Z" fill="url(#paint44_linear)"/>
<path d="M101.473 39.171C101.493 38.8634 101.26 38.5981 100.952 38.5784C100.645 38.5587 100.38 38.7921 100.36 39.0998C100.341 39.4074 100.574 39.6727 100.881 39.6924C101.188 39.7121 101.453 39.4787 101.473 39.171Z" fill="url(#paint45_linear)"/>
<path d="M100.502 36.4302C100.481 36.7527 100.73 37.0041 101.023 37.0228C101.315 37.0416 101.596 36.7946 101.615 36.5015C101.635 36.179 101.387 35.9276 101.094 35.9089C100.801 35.8901 100.523 36.1077 100.502 36.4302Z" fill="url(#paint46_linear)"/>
<path d="M100.673 33.7625C100.652 34.0849 100.901 34.3363 101.193 34.3551C101.486 34.3739 101.767 34.1269 101.785 33.8338C101.806 33.5113 101.558 33.2599 101.265 33.2411C100.972 33.2224 100.694 33.44 100.673 33.7625Z" fill="url(#paint47_linear)"/>
<path d="M100.844 31.0949C100.823 31.4173 101.072 31.6687 101.364 31.6875C101.657 31.7063 101.938 31.4593 101.956 31.1662C101.977 30.8437 101.729 30.5923 101.436 30.5735C101.143 30.5548 100.864 30.7724 100.844 31.0949Z" fill="url(#paint48_linear)"/>
<path d="M102.157 28.5004C102.176 28.1928 101.943 27.9274 101.636 27.9078C101.329 27.8881 101.064 28.1215 101.044 28.4291C101.024 28.7367 101.257 29.002 101.565 29.0217C101.872 29.0414 102.137 28.808 102.157 28.5004Z" fill="url(#paint49_linear)"/>
<path d="M102.328 25.8327C102.348 25.5251 102.115 25.2597 101.807 25.24C101.5 25.2203 101.235 25.4538 101.215 25.7614C101.196 26.069 101.429 26.3343 101.736 26.354C102.043 26.3737 102.308 26.1403 102.328 25.8327Z" fill="url(#paint50_linear)"/>
<path d="M101.356 23.0918C101.336 23.4143 101.584 23.6657 101.877 23.6845C102.17 23.7032 102.45 23.4563 102.469 23.1631C102.49 22.8406 102.241 22.5892 101.948 22.5705C101.656 22.5517 101.375 22.7987 101.356 23.0918Z" fill="url(#paint51_linear)"/>
<path d="M102.669 20.4973C102.689 20.1897 102.456 19.9244 102.149 19.9047C101.841 19.885 101.576 20.1184 101.557 20.426C101.537 20.7337 101.77 20.999 102.077 21.0187C102.385 21.0384 102.65 20.805 102.669 20.4973Z" fill="url(#paint52_linear)"/>
<path d="M102.839 17.859C102.858 17.5514 102.625 17.2861 102.318 17.2664C102.011 17.2467 101.746 17.4801 101.726 17.7877C101.706 18.0954 101.939 18.3607 102.247 18.3804C102.554 18.4001 102.819 18.1666 102.839 17.859Z" fill="url(#paint53_linear)"/>
<path d="M103.009 15.1913C103.029 14.8837 102.796 14.6184 102.489 14.5987C102.181 14.579 101.916 14.8124 101.897 15.12C101.877 15.4276 102.11 15.693 102.417 15.7126C102.724 15.7323 102.989 15.4989 103.009 15.1913Z" fill="url(#paint54_linear)"/>
<path d="M102.039 12.4505C102.018 12.7729 102.266 13.0243 102.559 13.0431C102.852 13.0619 103.162 12.8168 103.18 12.5236C103.201 12.2012 102.953 11.9498 102.66 11.931C102.367 11.9122 102.059 12.128 102.039 12.4505Z" fill="url(#paint55_linear)"/>
<path d="M102.829 44.6153C102.808 44.9377 103.056 45.1891 103.349 45.2079C103.671 45.2285 103.922 44.9797 103.941 44.6865C103.962 44.3641 103.713 44.1127 103.421 44.0939C103.13 44.0458 102.849 44.2928 102.829 44.6153Z" fill="url(#paint56_linear)"/>
<path d="M103 41.9475C102.979 42.27 103.228 42.5214 103.521 42.5402C103.843 42.5608 104.094 42.312 104.113 42.0188C104.131 41.7257 103.885 41.4449 103.592 41.4262C103.301 41.3781 103.021 41.6251 103 41.9475Z" fill="url(#paint57_linear)"/>
<path d="M103.171 39.2799C103.15 39.6024 103.399 39.8538 103.692 39.8726C104.014 39.8932 104.265 39.6444 104.284 39.3512C104.304 39.0288 104.056 38.7773 103.763 38.7586C103.472 38.7105 103.192 38.9575 103.171 39.2799Z" fill="url(#paint58_linear)"/>
<path d="M103.342 36.6122C103.321 36.9347 103.57 37.1861 103.862 37.2048C104.184 37.2255 104.436 36.9766 104.454 36.6835C104.475 36.361 104.227 36.1096 103.934 36.0909C103.641 36.0721 103.363 36.2897 103.342 36.6122Z" fill="url(#paint59_linear)"/>
<path d="M103.512 33.9446C103.492 34.2671 103.74 34.5185 104.033 34.5372C104.355 34.5579 104.606 34.309 104.625 34.0159C104.645 33.6934 104.397 33.442 104.104 33.4233C103.811 33.4045 103.533 33.6221 103.512 33.9446Z" fill="url(#paint60_linear)"/>
<path d="M103.684 31.2769C103.663 31.5993 103.912 31.8507 104.205 31.8695C104.527 31.8901 104.778 31.6413 104.797 31.3482C104.817 31.0257 104.569 30.7743 104.276 30.7555C103.983 30.7368 103.705 30.9544 103.684 31.2769Z" fill="url(#paint61_linear)"/>
<path d="M103.855 28.6093C103.834 28.9317 104.082 29.1831 104.375 29.2019C104.697 29.2225 104.948 28.9737 104.967 28.6806C104.986 28.3874 104.739 28.1067 104.447 28.0879C104.154 28.0692 103.875 28.2868 103.855 28.6093Z" fill="url(#paint62_linear)"/>
<path d="M104.025 25.9414C104.005 26.2639 104.253 26.5153 104.546 26.5341C104.868 26.5547 105.119 26.3059 105.138 26.0127C105.159 25.6903 104.91 25.4388 104.617 25.4201C104.325 25.4013 104.044 25.6483 104.025 25.9414Z" fill="url(#paint63_linear)"/>
<path d="M104.197 23.2737C104.176 23.5962 104.425 23.8476 104.717 23.8663C105.039 23.887 105.291 23.6381 105.309 23.345C105.33 23.0225 105.082 22.7711 104.789 22.7524C104.496 22.7336 104.216 22.9806 104.197 23.2737Z" fill="url(#paint64_linear)"/>
<path d="M104.368 20.6061C104.347 20.9286 104.596 21.18 104.888 21.1987C105.21 21.2194 105.462 20.9705 105.48 20.6774C105.501 20.3549 105.252 20.1035 104.96 20.0848C104.667 20.066 104.387 20.3129 104.368 20.6061Z" fill="url(#paint65_linear)"/>
<path d="M104.537 17.9679C104.516 18.2904 104.764 18.5418 105.057 18.5605C105.379 18.5812 105.63 18.3324 105.649 18.0392C105.668 17.7461 105.421 17.4653 105.129 17.4466C104.838 17.3985 104.557 17.6454 104.537 17.9679Z" fill="url(#paint66_linear)"/>
<path d="M104.708 15.3001C104.687 15.6225 104.935 15.8739 105.228 15.8927C105.55 15.9133 105.801 15.6645 105.82 15.3714C105.841 15.0489 105.592 14.7975 105.3 14.7787C105.009 14.7307 104.728 14.9776 104.708 15.3001Z" fill="url(#paint67_linear)"/>
<path d="M104.878 12.6323C104.857 12.9548 105.106 13.2062 105.399 13.225C105.721 13.2456 105.972 12.9968 105.991 12.7036C106.011 12.3812 105.763 12.1298 105.47 12.111C105.179 12.0629 104.899 12.3099 104.878 12.6323Z" fill="url(#paint68_linear)"/>
<path d="M105.669 44.7973C105.649 45.1197 105.897 45.3711 106.19 45.3899C106.483 45.4087 106.763 45.1617 106.782 44.8686C106.803 44.5461 106.554 44.2947 106.261 44.2759C105.969 44.2572 105.69 44.4748 105.669 44.7973Z" fill="url(#paint69_linear)"/>
<path d="M106.982 42.2027C107.001 41.895 106.768 41.6297 106.461 41.61C106.154 41.5903 105.889 41.8238 105.869 42.1314C105.849 42.439 106.083 42.7043 106.39 42.724C106.697 42.7437 106.962 42.5103 106.982 42.2027Z" fill="url(#paint70_linear)"/>
<path d="M107.153 39.5351C107.172 39.2274 106.939 38.9621 106.632 38.9424C106.325 38.9227 106.06 39.1561 106.04 39.4638C106.02 39.7714 106.253 40.0367 106.561 40.0564C106.868 40.0761 107.133 39.8427 107.153 39.5351Z" fill="url(#paint71_linear)"/>
<path d="M106.182 36.7941C106.162 37.1166 106.41 37.368 106.703 37.3867C106.996 37.4055 107.276 37.1585 107.295 36.8654C107.315 36.5429 107.067 36.2915 106.774 36.2727C106.481 36.254 106.203 36.4716 106.182 36.7941Z" fill="url(#paint72_linear)"/>
<path d="M106.353 34.1265C106.332 34.449 106.581 34.7004 106.874 34.7191C107.166 34.7379 107.447 34.4909 107.466 34.1978C107.486 33.8753 107.238 33.6239 106.945 33.6051C106.652 33.5864 106.374 33.804 106.353 34.1265Z" fill="url(#paint73_linear)"/>
<path d="M106.523 31.4589C106.503 31.7813 106.751 32.0328 107.044 32.0515C107.337 32.0703 107.617 31.8233 107.636 31.5302C107.657 31.2077 107.408 30.9563 107.115 30.9375C106.823 30.9188 106.544 31.1364 106.523 31.4589Z" fill="url(#paint74_linear)"/>
<path d="M107.837 28.8644C107.856 28.5568 107.623 28.2915 107.316 28.2718C107.009 28.2521 106.744 28.4855 106.724 28.7931C106.704 29.1007 106.938 29.3661 107.245 29.3857C107.552 29.4054 107.817 29.172 107.837 28.8644Z" fill="url(#paint75_linear)"/>
<path d="M108.007 26.1967C108.027 25.8891 107.794 25.6237 107.487 25.604C107.179 25.5844 106.914 25.8178 106.895 26.1254C106.875 26.433 107.108 26.6983 107.415 26.718C107.722 26.7377 107.987 26.5043 108.007 26.1967Z" fill="url(#paint76_linear)"/>
<path d="M107.037 23.4558C107.016 23.7783 107.264 24.0297 107.557 24.0485C107.85 24.0672 108.13 23.8203 108.149 23.5271C108.17 23.2047 107.921 22.9533 107.629 22.9345C107.336 22.9157 107.055 23.1627 107.037 23.4558Z" fill="url(#paint77_linear)"/>
<path d="M108.349 20.8614C108.369 20.5537 108.136 20.2884 107.829 20.2687C107.522 20.249 107.257 20.4824 107.237 20.7901C107.217 21.0977 107.45 21.363 107.757 21.3827C108.065 21.4024 108.33 21.169 108.349 20.8614Z" fill="url(#paint78_linear)"/>
<path d="M108.519 18.2229C108.539 17.9153 108.306 17.65 107.998 17.6303C107.691 17.6106 107.426 17.844 107.406 18.1516C107.387 18.4592 107.62 18.7246 107.927 18.7443C108.234 18.764 108.499 18.5305 108.519 18.2229Z" fill="url(#paint79_linear)"/>
<path d="M108.689 15.5552C108.709 15.2476 108.476 14.9823 108.169 14.9626C107.861 14.9429 107.596 15.1763 107.577 15.4839C107.557 15.7915 107.79 16.0569 108.097 16.0765C108.405 16.0962 108.67 15.8628 108.689 15.5552Z" fill="url(#paint80_linear)"/>
<path d="M107.719 12.8145C107.698 13.1369 107.947 13.3883 108.239 13.4071C108.532 13.4259 108.813 13.1789 108.831 12.8858C108.852 12.5633 108.604 12.3119 108.311 12.2931C108.018 12.2744 107.739 12.492 107.719 12.8145Z" fill="url(#paint81_linear)"/>
<path d="M109.132 44.4305C108.81 44.4098 108.559 44.6587 108.54 44.9518C108.536 45.0104 108.535 45.0398 108.56 45.1003C108.919 45.0055 109.278 44.9108 109.638 44.7867C109.533 44.6033 109.337 44.4436 109.132 44.4305Z" fill="url(#paint82_linear)"/>
<path d="M109.822 42.3847C109.841 42.0771 109.608 41.8117 109.301 41.792C108.994 41.7723 108.729 42.0058 108.709 42.3134C108.689 42.621 108.922 42.8863 109.23 42.906C109.537 42.9257 109.802 42.6923 109.822 42.3847Z" fill="url(#paint83_linear)"/>
<path d="M109.992 39.7171C110.012 39.4094 109.779 39.1441 109.472 39.1244C109.165 39.1047 108.9 39.3382 108.88 39.6458C108.86 39.9534 109.093 40.2187 109.401 40.2384C109.708 40.2581 109.973 40.0247 109.992 39.7171Z" fill="url(#paint84_linear)"/>
<path d="M109.022 36.9762C109.001 37.2987 109.249 37.5501 109.542 37.5689C109.835 37.5876 110.115 37.3407 110.134 37.0475C110.155 36.725 109.906 36.4736 109.614 36.4549C109.321 36.4361 109.042 36.6537 109.022 36.9762Z" fill="url(#paint85_linear)"/>
<path d="M109.192 34.3085C109.172 34.631 109.42 34.8824 109.713 34.9011C110.006 34.9199 110.286 34.6729 110.305 34.3798C110.326 34.0573 110.077 33.8059 109.784 33.7871C109.492 33.7684 109.213 33.986 109.192 34.3085Z" fill="url(#paint86_linear)"/>
<path d="M109.363 31.6409C109.343 31.9634 109.591 32.2148 109.884 32.2335C110.177 32.2523 110.457 32.0053 110.476 31.7122C110.497 31.3897 110.248 31.1383 109.955 31.1195C109.663 31.1008 109.384 31.3184 109.363 31.6409Z" fill="url(#paint87_linear)"/>
<path d="M110.676 29.0463C110.696 28.7387 110.463 28.4733 110.155 28.4537C109.848 28.434 109.583 28.6674 109.564 28.975C109.544 29.2826 109.777 29.5479 110.084 29.5676C110.391 29.5873 110.656 29.3539 110.676 29.0463Z" fill="url(#paint88_linear)"/>
<path d="M110.848 26.3786C110.868 26.0709 110.635 25.8056 110.327 25.7859C110.02 25.7662 109.755 25.9997 109.735 26.3073C109.716 26.6149 109.949 26.8802 110.256 26.8999C110.563 26.9196 110.828 26.6862 110.848 26.3786Z" fill="url(#paint89_linear)"/>
<path d="M109.877 23.6377C109.856 23.9602 110.104 24.2116 110.397 24.2303C110.69 24.2491 110.97 24.0022 110.989 23.709C111.01 23.3865 110.761 23.1351 110.468 23.1164C110.176 23.0976 109.895 23.3446 109.877 23.6377Z" fill="url(#paint90_linear)"/>
<path d="M111.189 21.0432C111.209 20.7356 110.976 20.4703 110.669 20.4506C110.361 20.4309 110.096 20.6643 110.077 20.9719C110.057 21.2796 110.29 21.5449 110.597 21.5646C110.905 21.5843 111.17 21.3509 111.189 21.0432Z" fill="url(#paint91_linear)"/>
<path d="M111.358 18.4048C111.378 18.0972 111.145 17.8319 110.838 17.8122C110.53 17.7925 110.265 18.0259 110.246 18.3335C110.226 18.6411 110.459 18.9065 110.766 18.9261C111.073 18.9458 111.339 18.7124 111.358 18.4048Z" fill="url(#paint92_linear)"/>
<path d="M111.53 15.7372C111.549 15.4296 111.316 15.1643 111.009 15.1446C110.702 15.1249 110.437 15.3583 110.417 15.6659C110.397 15.9735 110.63 16.2389 110.938 16.2585C111.245 16.2782 111.51 16.0448 111.53 15.7372Z" fill="url(#paint93_linear)"/>
<path d="M111.108 13.5908C111.343 13.6059 111.557 13.4724 111.656 13.3021C111.314 13.1331 110.97 12.9933 110.626 12.8535C110.623 12.9121 110.591 12.9396 110.588 12.9982C110.54 13.2895 110.786 13.5702 111.108 13.5908Z" fill="url(#paint94_linear)"/>
<path d="M111.52 42.4934C111.499 42.8159 111.748 43.0673 112.041 43.0861C112.363 43.1067 112.614 42.8579 112.633 42.5647C112.651 42.2716 112.405 41.9908 112.112 41.9721C111.821 41.924 111.541 42.171 111.52 42.4934Z" fill="url(#paint95_linear)"/>
<path d="M111.691 39.8258C111.67 40.1483 111.919 40.3997 112.212 40.4185C112.534 40.4391 112.785 40.1903 112.804 39.8971C112.824 39.5747 112.576 39.3232 112.283 39.3045C111.992 39.2564 111.712 39.5034 111.691 39.8258Z" fill="url(#paint96_linear)"/>
<path d="M111.861 37.1581C111.841 37.4806 112.089 37.732 112.382 37.7507C112.704 37.7714 112.955 37.5225 112.974 37.2294C112.995 36.9069 112.746 36.6555 112.453 36.6368C112.161 36.618 111.882 36.8356 111.861 37.1581Z" fill="url(#paint97_linear)"/>
<path d="M112.033 34.4905C112.012 34.813 112.261 35.0644 112.553 35.0831C112.875 35.1038 113.127 34.8549 113.145 34.5618C113.166 34.2393 112.918 33.9879 112.625 33.9692C112.332 33.9504 112.053 34.168 112.033 34.4905Z" fill="url(#paint98_linear)"/>
<path d="M112.204 31.8228C112.183 32.1452 112.431 32.3966 112.724 32.4154C113.046 32.436 113.297 32.1872 113.316 31.8941C113.337 31.5716 113.088 31.3202 112.796 31.3014C112.503 31.2827 112.224 31.5003 112.204 31.8228Z" fill="url(#paint99_linear)"/>
<path d="M112.375 29.1552C112.354 29.4776 112.602 29.729 112.895 29.7478C113.217 29.7684 113.468 29.5196 113.487 29.2265C113.506 28.9333 113.259 28.6526 112.967 28.6338C112.674 28.6151 112.395 28.8327 112.375 29.1552Z" fill="url(#paint100_linear)"/>
<path d="M112.545 26.4874C112.524 26.8099 112.773 27.0613 113.066 27.0801C113.388 27.1007 113.639 26.8519 113.658 26.5587C113.678 26.2363 113.43 25.9849 113.137 25.9661C112.844 25.9473 112.564 26.1943 112.545 26.4874Z" fill="url(#paint101_linear)"/>
<path d="M112.717 23.8198C112.696 24.1423 112.945 24.3937 113.237 24.4125C113.559 24.4331 113.811 24.1843 113.829 23.8911C113.85 23.5687 113.602 23.3173 113.309 23.2985C113.016 23.2797 112.736 23.5267 112.717 23.8198Z" fill="url(#paint102_linear)"/>
<path d="M112.887 21.1521C112.867 21.4746 113.115 21.726 113.408 21.7448C113.73 21.7654 113.981 21.5166 114 21.2234C114.02 20.9009 113.772 20.6495 113.479 20.6308C113.186 20.612 112.906 20.859 112.887 21.1521Z" fill="url(#paint103_linear)"/>
<path d="M113.057 18.5137C113.036 18.8362 113.284 19.0876 113.577 19.1063C113.899 19.127 114.15 18.8781 114.169 18.585C114.188 18.2918 113.941 18.0111 113.649 17.9924C113.358 17.9443 113.077 18.1912 113.057 18.5137Z" fill="url(#paint104_linear)"/>
<path d="M113.228 15.8461C113.207 16.1686 113.455 16.42 113.748 16.4387C114.07 16.4594 114.321 16.2105 114.34 15.9174C114.361 15.5949 114.112 15.3435 113.82 15.3247C113.529 15.2767 113.248 15.5236 113.228 15.8461Z" fill="url(#paint105_linear)"/>
<path d="M115.673 40.0811C115.692 39.7735 115.459 39.5081 115.152 39.4884C114.845 39.4688 114.58 39.7022 114.56 40.0098C114.54 40.3174 114.773 40.5827 115.081 40.6024C115.388 40.6221 115.653 40.3887 115.673 40.0811Z" fill="url(#paint106_linear)"/>
<path d="M114.702 37.3401C114.681 37.6626 114.93 37.914 115.222 37.9327C115.544 37.9534 115.795 37.7046 115.814 37.4114C115.835 37.0889 115.586 36.8375 115.294 36.8188C115.001 36.8 114.722 37.0176 114.702 37.3401Z" fill="url(#paint107_linear)"/>
<path d="M114.873 34.6725C114.852 34.995 115.1 35.2464 115.393 35.2651C115.715 35.2858 115.966 35.037 115.985 34.7438C116.006 34.4213 115.757 34.1699 115.465 34.1512C115.172 34.1324 114.893 34.35 114.873 34.6725Z" fill="url(#paint108_linear)"/>
<path d="M115.044 32.0047C115.023 32.3271 115.271 32.5785 115.564 32.5973C115.886 32.6179 116.137 32.3691 116.156 32.076C116.177 31.7535 115.928 31.5021 115.635 31.4833C115.343 31.4646 115.064 31.6822 115.044 32.0047Z" fill="url(#paint109_linear)"/>
<path d="M116.356 29.4103C116.376 29.1027 116.143 28.8374 115.836 28.8177C115.528 28.798 115.263 29.0314 115.244 29.339C115.224 29.6466 115.457 29.912 115.764 29.9316C116.072 29.9513 116.337 29.7179 116.356 29.4103Z" fill="url(#paint110_linear)"/>
<path d="M116.527 26.7426C116.547 26.435 116.314 26.1696 116.007 26.1499C115.699 26.1303 115.434 26.3637 115.415 26.6713C115.395 26.9789 115.628 27.2442 115.935 27.2639C116.242 27.2836 116.507 27.0502 116.527 26.7426Z" fill="url(#paint111_linear)"/>
<path d="M115.557 24.0017C115.536 24.3242 115.784 24.5756 116.077 24.5944C116.399 24.615 116.65 24.3662 116.669 24.073C116.69 23.7506 116.441 23.4992 116.149 23.4804C115.856 23.4616 115.575 23.7086 115.557 24.0017Z" fill="url(#paint112_linear)"/>
<path d="M116.869 21.4072C116.889 21.0996 116.656 20.8343 116.349 20.8146C116.042 20.7949 115.777 21.0283 115.757 21.336C115.737 21.6436 115.97 21.9089 116.277 21.9286C116.585 21.9483 116.85 21.7149 116.869 21.4072Z" fill="url(#paint113_linear)"/>
<path d="M117.038 18.7688C117.058 18.4612 116.825 18.1959 116.518 18.1762C116.211 18.1565 115.946 18.3899 115.926 18.6975C115.906 19.0051 116.139 19.2705 116.446 19.2902C116.754 19.3099 117.019 19.0764 117.038 18.7688Z" fill="url(#paint114_linear)"/>
<path d="M117.542 37.5221C117.521 37.8446 117.769 38.096 118.062 38.1147C118.384 38.1354 118.635 37.8866 118.654 37.5934C118.675 37.2709 118.426 37.0195 118.134 37.0008C117.841 36.982 117.562 37.1996 117.542 37.5221Z" fill="url(#paint115_linear)"/>
<path d="M117.712 34.8545C117.692 35.177 117.94 35.4284 118.233 35.4471C118.555 35.4678 118.806 35.219 118.825 34.9258C118.846 34.6033 118.597 34.3519 118.304 34.3332C118.012 34.3144 117.733 34.532 117.712 34.8545Z" fill="url(#paint116_linear)"/>
<path d="M117.884 32.1868C117.863 32.5093 118.112 32.7607 118.404 32.7794C118.726 32.8001 118.978 32.5512 118.996 32.2581C119.017 31.9356 118.769 31.6842 118.476 31.6654C118.183 31.6467 117.905 31.8643 117.884 32.1868Z" fill="url(#paint117_linear)"/>
<path d="M118.055 29.5191C118.034 29.8415 118.283 30.0929 118.575 30.1117C118.897 30.1323 119.149 29.8835 119.167 29.5904C119.186 29.2972 118.939 29.0165 118.647 28.9977C118.354 28.979 118.075 29.1966 118.055 29.5191Z" fill="url(#paint118_linear)"/>
<path d="M118.226 26.8515C118.205 27.1739 118.453 27.4253 118.746 27.4441C119.068 27.4647 119.319 27.2159 119.338 26.9228C119.359 26.6003 119.11 26.3489 118.818 26.3301C118.525 26.3114 118.244 26.5583 118.226 26.8515Z" fill="url(#paint119_linear)"/>
<path d="M118.396 24.1837C118.375 24.5062 118.624 24.7576 118.917 24.7764C119.239 24.797 119.49 24.5482 119.509 24.255C119.529 23.9326 119.281 23.6812 118.988 23.6624C118.695 23.6436 118.415 23.8906 118.396 24.1837Z" fill="url(#paint120_linear)"/>
<path d="M118.568 21.5161C118.547 21.8386 118.796 22.09 119.089 22.1088C119.411 22.1294 119.662 21.8806 119.68 21.5874C119.701 21.265 119.453 21.0136 119.16 20.9948C118.867 20.976 118.587 21.223 118.568 21.5161Z" fill="url(#paint121_linear)"/>
<path d="M120.724 32.3687C120.714 32.5152 120.763 32.6656 120.846 32.7591C120.923 32.4697 120.971 32.1785 121.048 31.8891C120.867 31.9658 120.737 32.1635 120.724 32.3687Z" fill="url(#paint122_linear)"/>
<path d="M120.895 29.7011C120.878 29.9649 121.038 30.2107 121.298 30.2862C121.309 30.1103 121.321 29.9344 121.334 29.7292C121.345 29.5533 121.356 29.3774 121.369 29.1722C121.13 29.2452 120.911 29.4372 120.895 29.7011Z" fill="url(#paint123_linear)"/>
<path d="M121.356 27.5524C121.345 27.2573 121.306 26.9604 121.266 26.6635C121.172 26.7459 121.104 26.8887 121.095 27.0353C121.051 27.2679 121.157 27.4513 121.356 27.5524Z" fill="url(#paint124_linear)"/>
<defs>
<linearGradient id="paint0_linear" x1="131.702" y1="33.0136" x2="77.4123" y2="29.5347" gradientUnits="userSpaceOnUse">
<stop stop-color="#FFC700"/>
<stop offset="1" stop-color="#E5A22F"/>
</linearGradient>
<linearGradient id="paint1_linear" x1="153.826" y1="31.8116" x2="72.3907" y2="26.5932" gradientUnits="userSpaceOnUse">
<stop stop-color="#FFC700"/>
<stop offset="1" stop-color="#E5A22F"/>
</linearGradient>
<linearGradient id="paint2_linear" x1="132.036" y1="27.7955" x2="77.7463" y2="24.3166" gradientUnits="userSpaceOnUse">
<stop stop-color="#FFC700"/>
<stop offset="1" stop-color="#E5A22F"/>
</linearGradient>
<linearGradient id="paint3_linear" x1="257.123" y1="46.4668" x2="50.8206" y2="33.2468" gradientUnits="userSpaceOnUse">
<stop stop-color="#FFC700"/>
<stop offset="1" stop-color="#E5A22F"/>
</linearGradient>
<linearGradient id="paint4_linear" x1="257.293" y1="43.7991" x2="50.991" y2="30.5791" gradientUnits="userSpaceOnUse">
<stop stop-color="#FFC700"/>
<stop offset="1" stop-color="#E5A22F"/>
</linearGradient>
<linearGradient id="paint5_linear" x1="257.464" y1="41.1313" x2="51.1624" y2="27.9114" gradientUnits="userSpaceOnUse">
<stop stop-color="#FFC700"/>
<stop offset="1" stop-color="#E5A22F"/>
</linearGradient>
<linearGradient id="paint6_linear" x1="257.635" y1="38.4637" x2="51.3333" y2="25.2438" gradientUnits="userSpaceOnUse">
<stop stop-color="#FFC700"/>
<stop offset="1" stop-color="#E5A22F"/>
</linearGradient>
<linearGradient id="paint7_linear" x1="257.806" y1="35.7961" x2="51.5042" y2="22.5762" gradientUnits="userSpaceOnUse">
<stop stop-color="#FFC700"/>
<stop offset="1" stop-color="#E5A22F"/>
</linearGradient>
<linearGradient id="paint8_linear" x1="257.978" y1="33.1284" x2="51.6756" y2="19.9085" gradientUnits="userSpaceOnUse">
<stop stop-color="#FFC700"/>
<stop offset="1" stop-color="#E5A22F"/>
</linearGradient>
<linearGradient id="paint9_linear" x1="258.148" y1="30.4607" x2="51.846" y2="17.2407" gradientUnits="userSpaceOnUse">
<stop stop-color="#FFC700"/>
<stop offset="1" stop-color="#E5A22F"/>
</linearGradient>
<linearGradient id="paint10_linear" x1="259.821" y1="49.3183" x2="53.5189" y2="36.0984" gradientUnits="userSpaceOnUse">
<stop stop-color="#FFC700"/>
<stop offset="1" stop-color="#E5A22F"/>
</linearGradient>
<linearGradient id="paint11_linear" x1="259.963" y1="46.6488" x2="53.6609" y2="33.4289" gradientUnits="userSpaceOnUse">
<stop stop-color="#FFC700"/>
<stop offset="1" stop-color="#E5A22F"/>
</linearGradient>
<linearGradient id="paint12_linear" x1="260.133" y1="43.9811" x2="53.8313" y2="30.7611" gradientUnits="userSpaceOnUse">
<stop stop-color="#FFC700"/>
<stop offset="1" stop-color="#E5A22F"/>
</linearGradient>
<linearGradient id="paint13_linear" x1="260.304" y1="41.3135" x2="54.0022" y2="28.0935" gradientUnits="userSpaceOnUse">
<stop stop-color="#FFC700"/>
<stop offset="1" stop-color="#E5A22F"/>
</linearGradient>
<linearGradient id="paint14_linear" x1="260.504" y1="38.6476" x2="54.2024" y2="25.4276" gradientUnits="userSpaceOnUse">
<stop stop-color="#FFC700"/>
<stop offset="1" stop-color="#E5A22F"/>
</linearGradient>
<linearGradient id="paint15_linear" x1="260.675" y1="35.9798" x2="54.3733" y2="22.7599" gradientUnits="userSpaceOnUse">
<stop stop-color="#FFC700"/>
<stop offset="1" stop-color="#E5A22F"/>
</linearGradient>
<linearGradient id="paint16_linear" x1="260.817" y1="33.3103" x2="54.5149" y2="20.0904" gradientUnits="userSpaceOnUse">
<stop stop-color="#FFC700"/>
<stop offset="1" stop-color="#E5A22F"/>
</linearGradient>
<linearGradient id="paint17_linear" x1="261.017" y1="30.6445" x2="54.7156" y2="17.4246" gradientUnits="userSpaceOnUse">
<stop stop-color="#FFC700"/>
<stop offset="1" stop-color="#E5A22F"/>
</linearGradient>
<linearGradient id="paint18_linear" x1="261.186" y1="28.0062" x2="54.8846" y2="14.7863" gradientUnits="userSpaceOnUse">
<stop stop-color="#FFC700"/>
<stop offset="1" stop-color="#E5A22F"/>
</linearGradient>
<linearGradient id="paint19_linear" x1="262.461" y1="52.1649" x2="56.159" y2="38.945" gradientUnits="userSpaceOnUse">
<stop stop-color="#FFC700"/>
<stop offset="1" stop-color="#E5A22F"/>
</linearGradient>
<linearGradient id="paint20_linear" x1="262.631" y1="49.4973" x2="56.3295" y2="36.2774" gradientUnits="userSpaceOnUse">
<stop stop-color="#FFC700"/>
<stop offset="1" stop-color="#E5A22F"/>
</linearGradient>
<linearGradient id="paint21_linear" x1="262.802" y1="46.8307" x2="56.5003" y2="33.6107" gradientUnits="userSpaceOnUse">
<stop stop-color="#FFC700"/>
<stop offset="1" stop-color="#E5A22F"/>
</linearGradient>
<linearGradient id="paint22_linear" x1="262.974" y1="44.1631" x2="56.6717" y2="30.9431" gradientUnits="userSpaceOnUse">
<stop stop-color="#FFC700"/>
<stop offset="1" stop-color="#E5A22F"/>
</linearGradient>
<linearGradient id="paint23_linear" x1="263.144" y1="41.4953" x2="56.8426" y2="28.2754" gradientUnits="userSpaceOnUse">
<stop stop-color="#FFC700"/>
<stop offset="1" stop-color="#E5A22F"/>
</linearGradient>
<linearGradient id="paint24_linear" x1="263.315" y1="38.8277" x2="57.0135" y2="25.6078" gradientUnits="userSpaceOnUse">
<stop stop-color="#FFC700"/>
<stop offset="1" stop-color="#E5A22F"/>
</linearGradient>
<linearGradient id="paint25_linear" x1="263.486" y1="36.16" x2="57.1839" y2="22.9401" gradientUnits="userSpaceOnUse">
<stop stop-color="#FFC700"/>
<stop offset="1" stop-color="#E5A22F"/>
</linearGradient>
<linearGradient id="paint26_linear" x1="263.657" y1="33.4924" x2="57.3553" y2="20.2725" gradientUnits="userSpaceOnUse">
<stop stop-color="#FFC700"/>
<stop offset="1" stop-color="#E5A22F"/>
</linearGradient>
<linearGradient id="paint27_linear" x1="263.828" y1="30.8247" x2="57.5262" y2="17.6048" gradientUnits="userSpaceOnUse">
<stop stop-color="#FFC700"/>
<stop offset="1" stop-color="#E5A22F"/>
</linearGradient>
<linearGradient id="paint28_linear" x1="263.997" y1="28.1852" x2="57.6952" y2="14.9652" gradientUnits="userSpaceOnUse">
<stop stop-color="#FFC700"/>
<stop offset="1" stop-color="#E5A22F"/>
</linearGradient>
<linearGradient id="paint29_linear" x1="264.168" y1="25.5175" x2="57.8666" y2="12.2976" gradientUnits="userSpaceOnUse">
<stop stop-color="#FFC700"/>
<stop offset="1" stop-color="#E5A22F"/>
</linearGradient>
<linearGradient id="paint30_linear" x1="260.782" y1="54.5016" x2="59.9091" y2="41.6295" gradientUnits="userSpaceOnUse">
<stop stop-color="#FFC700"/>
<stop offset="1" stop-color="#E5A22F"/>
</linearGradient>
<linearGradient id="paint31_linear" x1="265.301" y1="52.347" x2="58.9989" y2="39.1271" gradientUnits="userSpaceOnUse">
<stop stop-color="#FFC700"/>
<stop offset="1" stop-color="#E5A22F"/>
</linearGradient>
<linearGradient id="paint32_linear" x1="265.471" y1="49.6793" x2="59.1693" y2="36.4594" gradientUnits="userSpaceOnUse">
<stop stop-color="#FFC700"/>
<stop offset="1" stop-color="#E5A22F"/>
</linearGradient>
<linearGradient id="paint33_linear" x1="265.642" y1="47.0127" x2="59.3401" y2="33.7927" gradientUnits="userSpaceOnUse">
<stop stop-color="#FFC700"/>
<stop offset="1" stop-color="#E5A22F"/>
</linearGradient>
<linearGradient id="paint34_linear" x1="265.813" y1="44.3451" x2="59.5115" y2="31.1251" gradientUnits="userSpaceOnUse">
<stop stop-color="#FFC700"/>
<stop offset="1" stop-color="#E5A22F"/>
</linearGradient>
<linearGradient id="paint35_linear" x1="265.984" y1="41.6775" x2="59.6824" y2="28.4575" gradientUnits="userSpaceOnUse">
<stop stop-color="#FFC700"/>
<stop offset="1" stop-color="#E5A22F"/>
</linearGradient>
<linearGradient id="paint36_linear" x1="266.155" y1="39.0096" x2="59.8528" y2="25.7897" gradientUnits="userSpaceOnUse">
<stop stop-color="#FFC700"/>
<stop offset="1" stop-color="#E5A22F"/>
</linearGradient>
<linearGradient id="paint37_linear" x1="266.326" y1="36.342" x2="60.0237" y2="23.1221" gradientUnits="userSpaceOnUse">
<stop stop-color="#FFC700"/>
<stop offset="1" stop-color="#E5A22F"/>
</linearGradient>
<linearGradient id="paint38_linear" x1="266.497" y1="33.6743" x2="60.1951" y2="20.4544" gradientUnits="userSpaceOnUse">
<stop stop-color="#FFC700"/>
<stop offset="1" stop-color="#E5A22F"/>
</linearGradient>
<linearGradient id="paint39_linear" x1="266.668" y1="31.0066" x2="60.366" y2="17.7866" gradientUnits="userSpaceOnUse">
<stop stop-color="#FFC700"/>
<stop offset="1" stop-color="#E5A22F"/>
</linearGradient>
<linearGradient id="paint40_linear" x1="266.837" y1="28.3672" x2="60.535" y2="15.1472" gradientUnits="userSpaceOnUse">
<stop stop-color="#FFC700"/>
<stop offset="1" stop-color="#E5A22F"/>
</linearGradient>
<linearGradient id="paint41_linear" x1="267.008" y1="25.6994" x2="60.7059" y2="12.4795" gradientUnits="userSpaceOnUse">
<stop stop-color="#FFC700"/>
<stop offset="1" stop-color="#E5A22F"/>
</linearGradient>
<linearGradient id="paint42_linear" x1="262.804" y1="22.9585" x2="61.9306" y2="10.0864" gradientUnits="userSpaceOnUse">
<stop stop-color="#FFC700"/>
<stop offset="1" stop-color="#E5A22F"/>
</linearGradient>
<linearGradient id="paint43_linear" x1="272.39" y1="55.481" x2="60.6588" y2="41.9132" gradientUnits="userSpaceOnUse">
<stop stop-color="#FFC700"/>
<stop offset="1" stop-color="#E5A22F"/>
</linearGradient>
<linearGradient id="paint44_linear" x1="268.17" y1="52.5318" x2="61.868" y2="39.3119" gradientUnits="userSpaceOnUse">
<stop stop-color="#FFC700"/>
<stop offset="1" stop-color="#E5A22F"/>
</linearGradient>
<linearGradient id="paint45_linear" x1="268.341" y1="49.8642" x2="62.0389" y2="36.6443" gradientUnits="userSpaceOnUse">
<stop stop-color="#FFC700"/>
<stop offset="1" stop-color="#E5A22F"/>
</linearGradient>
<linearGradient id="paint46_linear" x1="268.483" y1="47.1947" x2="62.1804" y2="33.9747" gradientUnits="userSpaceOnUse">
<stop stop-color="#FFC700"/>
<stop offset="1" stop-color="#E5A22F"/>
</linearGradient>
<linearGradient id="paint47_linear" x1="268.654" y1="44.527" x2="62.3513" y2="31.307" gradientUnits="userSpaceOnUse">
<stop stop-color="#FFC700"/>
<stop offset="1" stop-color="#E5A22F"/>
</linearGradient>
<linearGradient id="paint48_linear" x1="268.824" y1="41.8594" x2="62.5222" y2="28.6394" gradientUnits="userSpaceOnUse">
<stop stop-color="#FFC700"/>
<stop offset="1" stop-color="#E5A22F"/>
</linearGradient>
<linearGradient id="paint49_linear" x1="269.024" y1="39.1936" x2="62.7225" y2="25.9737" gradientUnits="userSpaceOnUse">
<stop stop-color="#FFC700"/>
<stop offset="1" stop-color="#E5A22F"/>
</linearGradient>
<linearGradient id="paint50_linear" x1="269.196" y1="36.5258" x2="62.8939" y2="23.3059" gradientUnits="userSpaceOnUse">
<stop stop-color="#FFC700"/>
<stop offset="1" stop-color="#E5A22F"/>
</linearGradient>
<linearGradient id="paint51_linear" x1="269.337" y1="33.8563" x2="63.0349" y2="20.6364" gradientUnits="userSpaceOnUse">
<stop stop-color="#FFC700"/>
<stop offset="1" stop-color="#E5A22F"/>
</linearGradient>
<linearGradient id="paint52_linear" x1="269.537" y1="31.1905" x2="63.2352" y2="17.9706" gradientUnits="userSpaceOnUse">
<stop stop-color="#FFC700"/>
<stop offset="1" stop-color="#E5A22F"/>
</linearGradient>
<linearGradient id="paint53_linear" x1="269.706" y1="28.5522" x2="63.4046" y2="15.3323" gradientUnits="userSpaceOnUse">
<stop stop-color="#FFC700"/>
<stop offset="1" stop-color="#E5A22F"/>
</linearGradient>
<linearGradient id="paint54_linear" x1="269.877" y1="25.8845" x2="63.575" y2="12.6646" gradientUnits="userSpaceOnUse">
<stop stop-color="#FFC700"/>
<stop offset="1" stop-color="#E5A22F"/>
</linearGradient>
<linearGradient id="paint55_linear" x1="274.44" y1="23.4982" x2="62.7086" y2="9.93039" gradientUnits="userSpaceOnUse">
<stop stop-color="#FFC700"/>
<stop offset="1" stop-color="#E5A22F"/>
</linearGradient>
<linearGradient id="paint56_linear" x1="270.809" y1="55.3786" x2="64.5072" y2="42.1587" gradientUnits="userSpaceOnUse">
<stop stop-color="#FFC700"/>
<stop offset="1" stop-color="#E5A22F"/>
</linearGradient>
<linearGradient id="paint57_linear" x1="270.981" y1="52.7109" x2="64.6786" y2="39.491" gradientUnits="userSpaceOnUse">
<stop stop-color="#FFC700"/>
<stop offset="1" stop-color="#E5A22F"/>
</linearGradient>
<linearGradient id="paint58_linear" x1="271.151" y1="50.0433" x2="64.8495" y2="36.8234" gradientUnits="userSpaceOnUse">
<stop stop-color="#FFC700"/>
<stop offset="1" stop-color="#E5A22F"/>
</linearGradient>
<linearGradient id="paint59_linear" x1="271.322" y1="47.3767" x2="65.0203" y2="34.1568" gradientUnits="userSpaceOnUse">
<stop stop-color="#FFC700"/>
<stop offset="1" stop-color="#E5A22F"/>
</linearGradient>
<linearGradient id="paint60_linear" x1="271.493" y1="44.7091" x2="65.1907" y2="31.4892" gradientUnits="userSpaceOnUse">
<stop stop-color="#FFC700"/>
<stop offset="1" stop-color="#E5A22F"/>
</linearGradient>
<linearGradient id="paint61_linear" x1="271.665" y1="42.0414" x2="65.3626" y2="28.8214" gradientUnits="userSpaceOnUse">
<stop stop-color="#FFC700"/>
<stop offset="1" stop-color="#E5A22F"/>
</linearGradient>
<linearGradient id="paint62_linear" x1="271.835" y1="39.3738" x2="65.533" y2="26.1538" gradientUnits="userSpaceOnUse">
<stop stop-color="#FFC700"/>
<stop offset="1" stop-color="#E5A22F"/>
</linearGradient>
<linearGradient id="paint63_linear" x1="272.006" y1="36.7059" x2="65.7039" y2="23.486" gradientUnits="userSpaceOnUse">
<stop stop-color="#FFC700"/>
<stop offset="1" stop-color="#E5A22F"/>
</linearGradient>
<linearGradient id="paint64_linear" x1="272.177" y1="34.0382" x2="65.8753" y2="20.8183" gradientUnits="userSpaceOnUse">
<stop stop-color="#FFC700"/>
<stop offset="1" stop-color="#E5A22F"/>
</linearGradient>
<linearGradient id="paint65_linear" x1="272.348" y1="31.3706" x2="66.0462" y2="18.1507" gradientUnits="userSpaceOnUse">
<stop stop-color="#FFC700"/>
<stop offset="1" stop-color="#E5A22F"/>
</linearGradient>
<linearGradient id="paint66_linear" x1="272.517" y1="28.7313" x2="66.2152" y2="15.5114" gradientUnits="userSpaceOnUse">
<stop stop-color="#FFC700"/>
<stop offset="1" stop-color="#E5A22F"/>
</linearGradient>
<linearGradient id="paint67_linear" x1="272.688" y1="26.0635" x2="66.3861" y2="12.8435" gradientUnits="userSpaceOnUse">
<stop stop-color="#FFC700"/>
<stop offset="1" stop-color="#E5A22F"/>
</linearGradient>
<linearGradient id="paint68_linear" x1="272.858" y1="23.3957" x2="66.5565" y2="10.1758" gradientUnits="userSpaceOnUse">
<stop stop-color="#FFC700"/>
<stop offset="1" stop-color="#E5A22F"/>
</linearGradient>
<linearGradient id="paint69_linear" x1="273.65" y1="55.5618" x2="67.3479" y2="42.3418" gradientUnits="userSpaceOnUse">
<stop stop-color="#FFC700"/>
<stop offset="1" stop-color="#E5A22F"/>
</linearGradient>
<linearGradient id="paint70_linear" x1="273.85" y1="52.8959" x2="67.5476" y2="39.6759" gradientUnits="userSpaceOnUse">
<stop stop-color="#FFC700"/>
<stop offset="1" stop-color="#E5A22F"/>
</linearGradient>
<linearGradient id="paint71_linear" x1="274.021" y1="50.2283" x2="67.7185" y2="37.0083" gradientUnits="userSpaceOnUse">
<stop stop-color="#FFC700"/>
<stop offset="1" stop-color="#E5A22F"/>
</linearGradient>
<linearGradient id="paint72_linear" x1="274.163" y1="47.5586" x2="67.8606" y2="34.3386" gradientUnits="userSpaceOnUse">
<stop stop-color="#FFC700"/>
<stop offset="1" stop-color="#E5A22F"/>
</linearGradient>
<linearGradient id="paint73_linear" x1="274.334" y1="44.891" x2="68.0315" y2="31.671" gradientUnits="userSpaceOnUse">
<stop stop-color="#FFC700"/>
<stop offset="1" stop-color="#E5A22F"/>
</linearGradient>
<linearGradient id="paint74_linear" x1="274.504" y1="42.2234" x2="68.2019" y2="29.0034" gradientUnits="userSpaceOnUse">
<stop stop-color="#FFC700"/>
<stop offset="1" stop-color="#E5A22F"/>
</linearGradient>
<linearGradient id="paint75_linear" x1="274.705" y1="39.5576" x2="68.4026" y2="26.3377" gradientUnits="userSpaceOnUse">
<stop stop-color="#FFC700"/>
<stop offset="1" stop-color="#E5A22F"/>
</linearGradient>
<linearGradient id="paint76_linear" x1="274.875" y1="36.8899" x2="68.573" y2="23.6699" gradientUnits="userSpaceOnUse">
<stop stop-color="#FFC700"/>
<stop offset="1" stop-color="#E5A22F"/>
</linearGradient>
<linearGradient id="paint77_linear" x1="275.017" y1="34.2203" x2="68.7151" y2="21.0004" gradientUnits="userSpaceOnUse">
<stop stop-color="#FFC700"/>
<stop offset="1" stop-color="#E5A22F"/>
</linearGradient>
<linearGradient id="paint78_linear" x1="275.217" y1="31.5546" x2="68.9153" y2="18.3346" gradientUnits="userSpaceOnUse">
<stop stop-color="#FFC700"/>
<stop offset="1" stop-color="#E5A22F"/>
</linearGradient>
<linearGradient id="paint79_linear" x1="275.387" y1="28.9161" x2="69.0847" y2="15.6962" gradientUnits="userSpaceOnUse">
<stop stop-color="#FFC700"/>
<stop offset="1" stop-color="#E5A22F"/>
</linearGradient>
<linearGradient id="paint80_linear" x1="275.557" y1="26.2484" x2="69.2551" y2="13.0285" gradientUnits="userSpaceOnUse">
<stop stop-color="#FFC700"/>
<stop offset="1" stop-color="#E5A22F"/>
</linearGradient>
<linearGradient id="paint81_linear" x1="275.699" y1="23.579" x2="69.3972" y2="10.359" gradientUnits="userSpaceOnUse">
<stop stop-color="#FFC700"/>
<stop offset="1" stop-color="#E5A22F"/>
</linearGradient>
<linearGradient id="paint82_linear" x1="272.113" y1="55.2277" x2="71.2402" y2="42.3557" gradientUnits="userSpaceOnUse">
<stop stop-color="#FFC700"/>
<stop offset="1" stop-color="#E5A22F"/>
</linearGradient>
<linearGradient id="paint83_linear" x1="276.689" y1="53.0779" x2="70.3875" y2="39.8579" gradientUnits="userSpaceOnUse">
<stop stop-color="#FFC700"/>
<stop offset="1" stop-color="#E5A22F"/>
</linearGradient>
<linearGradient id="paint84_linear" x1="276.86" y1="50.4103" x2="70.5584" y2="37.1903" gradientUnits="userSpaceOnUse">
<stop stop-color="#FFC700"/>
<stop offset="1" stop-color="#E5A22F"/>
</linearGradient>
<linearGradient id="paint85_linear" x1="277.002" y1="47.7407" x2="70.6999" y2="34.5208" gradientUnits="userSpaceOnUse">
<stop stop-color="#FFC700"/>
<stop offset="1" stop-color="#E5A22F"/>
</linearGradient>
<linearGradient id="paint86_linear" x1="277.173" y1="45.073" x2="70.8708" y2="31.853" gradientUnits="userSpaceOnUse">
<stop stop-color="#FFC700"/>
<stop offset="1" stop-color="#E5A22F"/>
</linearGradient>
<linearGradient id="paint87_linear" x1="277.344" y1="42.4054" x2="71.0417" y2="29.1854" gradientUnits="userSpaceOnUse">
<stop stop-color="#FFC700"/>
<stop offset="1" stop-color="#E5A22F"/>
</linearGradient>
<linearGradient id="paint88_linear" x1="277.544" y1="39.7395" x2="71.242" y2="26.5196" gradientUnits="userSpaceOnUse">
<stop stop-color="#FFC700"/>
<stop offset="1" stop-color="#E5A22F"/>
</linearGradient>
<linearGradient id="paint89_linear" x1="277.716" y1="37.0718" x2="71.4138" y2="23.8518" gradientUnits="userSpaceOnUse">
<stop stop-color="#FFC700"/>
<stop offset="1" stop-color="#E5A22F"/>
</linearGradient>
<linearGradient id="paint90_linear" x1="277.857" y1="34.4022" x2="71.5549" y2="21.1823" gradientUnits="userSpaceOnUse">
<stop stop-color="#FFC700"/>
<stop offset="1" stop-color="#E5A22F"/>
</linearGradient>
<linearGradient id="paint91_linear" x1="278.057" y1="31.7364" x2="71.7551" y2="18.5165" gradientUnits="userSpaceOnUse">
<stop stop-color="#FFC700"/>
<stop offset="1" stop-color="#E5A22F"/>
</linearGradient>
<linearGradient id="paint92_linear" x1="278.226" y1="29.098" x2="71.9241" y2="15.8781" gradientUnits="userSpaceOnUse">
<stop stop-color="#FFC700"/>
<stop offset="1" stop-color="#E5A22F"/>
</linearGradient>
<linearGradient id="paint93_linear" x1="278.397" y1="26.4304" x2="72.0955" y2="13.2105" gradientUnits="userSpaceOnUse">
<stop stop-color="#FFC700"/>
<stop offset="1" stop-color="#E5A22F"/>
</linearGradient>
<linearGradient id="paint94_linear" x1="274.468" y1="23.7059" x2="73.1827" y2="10.8075" gradientUnits="userSpaceOnUse">
<stop stop-color="#FFC700"/>
<stop offset="1" stop-color="#E5A22F"/>
</linearGradient>
<linearGradient id="paint95_linear" x1="279.5" y1="53.2568" x2="73.1987" y2="40.0369" gradientUnits="userSpaceOnUse">
<stop stop-color="#FFC700"/>
<stop offset="1" stop-color="#E5A22F"/>
</linearGradient>
<linearGradient id="paint96_linear" x1="279.671" y1="50.5892" x2="73.3696" y2="37.3693" gradientUnits="userSpaceOnUse">
<stop stop-color="#FFC700"/>
<stop offset="1" stop-color="#E5A22F"/>
</linearGradient>
<linearGradient id="paint97_linear" x1="279.841" y1="47.9226" x2="73.54" y2="34.7027" gradientUnits="userSpaceOnUse">
<stop stop-color="#FFC700"/>
<stop offset="1" stop-color="#E5A22F"/>
</linearGradient>
<linearGradient id="paint98_linear" x1="280.013" y1="45.255" x2="73.7113" y2="32.0351" gradientUnits="userSpaceOnUse">
<stop stop-color="#FFC700"/>
<stop offset="1" stop-color="#E5A22F"/>
</linearGradient>
<linearGradient id="paint99_linear" x1="280.183" y1="42.5872" x2="73.8822" y2="29.3673" gradientUnits="userSpaceOnUse">
<stop stop-color="#FFC700"/>
<stop offset="1" stop-color="#E5A22F"/>
</linearGradient>
<linearGradient id="paint100_linear" x1="280.354" y1="39.9196" x2="74.0531" y2="26.6997" gradientUnits="userSpaceOnUse">
<stop stop-color="#FFC700"/>
<stop offset="1" stop-color="#E5A22F"/>
</linearGradient>
<linearGradient id="paint101_linear" x1="280.525" y1="37.2519" x2="74.2236" y2="24.032" gradientUnits="userSpaceOnUse">
<stop stop-color="#FFC700"/>
<stop offset="1" stop-color="#E5A22F"/>
</linearGradient>
<linearGradient id="paint102_linear" x1="280.697" y1="34.5843" x2="74.3954" y2="21.3644" gradientUnits="userSpaceOnUse">
<stop stop-color="#FFC700"/>
<stop offset="1" stop-color="#E5A22F"/>
</linearGradient>
<linearGradient id="paint103_linear" x1="280.867" y1="31.9166" x2="74.5658" y2="18.6967" gradientUnits="userSpaceOnUse">
<stop stop-color="#FFC700"/>
<stop offset="1" stop-color="#E5A22F"/>
</linearGradient>
<linearGradient id="paint104_linear" x1="281.037" y1="29.277" x2="74.7353" y2="16.0571" gradientUnits="userSpaceOnUse">
<stop stop-color="#FFC700"/>
<stop offset="1" stop-color="#E5A22F"/>
</linearGradient>
<linearGradient id="paint105_linear" x1="281.207" y1="26.6094" x2="74.9062" y2="13.3895" gradientUnits="userSpaceOnUse">
<stop stop-color="#FFC700"/>
<stop offset="1" stop-color="#E5A22F"/>
</linearGradient>
<linearGradient id="paint106_linear" x1="282.541" y1="50.7743" x2="76.2385" y2="37.5543" gradientUnits="userSpaceOnUse">
<stop stop-color="#FFC700"/>
<stop offset="1" stop-color="#E5A22F"/>
</linearGradient>
<linearGradient id="paint107_linear" x1="282.682" y1="48.1046" x2="76.3801" y2="34.8847" gradientUnits="userSpaceOnUse">
<stop stop-color="#FFC700"/>
<stop offset="1" stop-color="#E5A22F"/>
</linearGradient>
<linearGradient id="paint108_linear" x1="282.853" y1="45.437" x2="76.551" y2="32.2171" gradientUnits="userSpaceOnUse">
<stop stop-color="#FFC700"/>
<stop offset="1" stop-color="#E5A22F"/>
</linearGradient>
<linearGradient id="paint109_linear" x1="283.024" y1="42.7692" x2="76.7219" y2="29.5492" gradientUnits="userSpaceOnUse">
<stop stop-color="#FFC700"/>
<stop offset="1" stop-color="#E5A22F"/>
</linearGradient>
<linearGradient id="paint110_linear" x1="283.224" y1="40.1035" x2="76.9221" y2="26.8836" gradientUnits="userSpaceOnUse">
<stop stop-color="#FFC700"/>
<stop offset="1" stop-color="#E5A22F"/>
</linearGradient>
<linearGradient id="paint111_linear" x1="283.395" y1="37.4358" x2="77.093" y2="24.2158" gradientUnits="userSpaceOnUse">
<stop stop-color="#FFC700"/>
<stop offset="1" stop-color="#E5A22F"/>
</linearGradient>
<linearGradient id="paint112_linear" x1="283.537" y1="34.7662" x2="77.2351" y2="21.5463" gradientUnits="userSpaceOnUse">
<stop stop-color="#FFC700"/>
<stop offset="1" stop-color="#E5A22F"/>
</linearGradient>
<linearGradient id="paint113_linear" x1="283.737" y1="32.1005" x2="77.4353" y2="18.8805" gradientUnits="userSpaceOnUse">
<stop stop-color="#FFC700"/>
<stop offset="1" stop-color="#E5A22F"/>
</linearGradient>
<linearGradient id="paint114_linear" x1="283.906" y1="29.462" x2="77.6043" y2="16.2421" gradientUnits="userSpaceOnUse">
<stop stop-color="#FFC700"/>
<stop offset="1" stop-color="#E5A22F"/>
</linearGradient>
<linearGradient id="paint115_linear" x1="285.522" y1="48.2866" x2="79.2201" y2="35.0667" gradientUnits="userSpaceOnUse">
<stop stop-color="#FFC700"/>
<stop offset="1" stop-color="#E5A22F"/>
</linearGradient>
<linearGradient id="paint116_linear" x1="285.693" y1="45.619" x2="79.391" y2="32.3991" gradientUnits="userSpaceOnUse">
<stop stop-color="#FFC700"/>
<stop offset="1" stop-color="#E5A22F"/>
</linearGradient>
<linearGradient id="paint117_linear" x1="285.864" y1="42.9513" x2="79.5623" y2="29.7313" gradientUnits="userSpaceOnUse">
<stop stop-color="#FFC700"/>
<stop offset="1" stop-color="#E5A22F"/>
</linearGradient>
<linearGradient id="paint118_linear" x1="286.035" y1="40.2835" x2="79.7332" y2="27.0636" gradientUnits="userSpaceOnUse">
<stop stop-color="#FFC700"/>
<stop offset="1" stop-color="#E5A22F"/>
</linearGradient>
<linearGradient id="paint119_linear" x1="286.206" y1="37.6159" x2="79.9041" y2="24.396" gradientUnits="userSpaceOnUse">
<stop stop-color="#FFC700"/>
<stop offset="1" stop-color="#E5A22F"/>
</linearGradient>
<linearGradient id="paint120_linear" x1="286.376" y1="34.9482" x2="80.0746" y2="21.7283" gradientUnits="userSpaceOnUse">
<stop stop-color="#FFC700"/>
<stop offset="1" stop-color="#E5A22F"/>
</linearGradient>
<linearGradient id="paint121_linear" x1="286.548" y1="32.2806" x2="80.2464" y2="19.0607" gradientUnits="userSpaceOnUse">
<stop stop-color="#FFC700"/>
<stop offset="1" stop-color="#E5A22F"/>
</linearGradient>
<linearGradient id="paint122_linear" x1="164.933" y1="35.1429" x2="110.643" y2="31.664" gradientUnits="userSpaceOnUse">
<stop stop-color="#FFC700"/>
<stop offset="1" stop-color="#E5A22F"/>
</linearGradient>
<linearGradient id="paint123_linear" x1="187.203" y1="33.9504" x2="105.768" y2="28.7319" gradientUnits="userSpaceOnUse">
<stop stop-color="#FFC700"/>
<stop offset="1" stop-color="#E5A22F"/>
</linearGradient>
<linearGradient id="paint124_linear" x1="165.964" y1="29.9696" x2="110.849" y2="26.4377" gradientUnits="userSpaceOnUse">
<stop stop-color="#FFC700"/>
<stop offset="1" stop-color="#E5A22F"/>
</linearGradient>
</defs>
</svg>
