<svg width="38" height="39" viewBox="0 0 38 39" fill="none" xmlns="http://www.w3.org/2000/svg">
<g clip-path="url(#clip0)">
<path d="M19 0.269775C8.52369 0.269775 0 8.79274 0 19.2698C0 29.7468 8.52369 38.2698 19 38.2698C29.4763 38.2698 38 29.7468 38 19.2698C38 8.79274 29.4763 0.269775 19 0.269775ZM28.1346 20.7313H20.4615V28.7698C20.4615 29.5765 19.8068 30.2313 19 30.2313C18.1932 30.2313 17.5385 29.5765 17.5385 28.7698V20.7313H9.86538C9.05862 20.7313 8.40385 20.0765 8.40385 19.2698C8.40385 18.463 9.05862 17.8082 9.86538 17.8082H17.5385V10.5005C17.5385 9.69378 18.1932 9.03901 19 9.03901C19.8068 9.03901 20.4615 9.69378 20.4615 10.5005V17.8082H28.1346C28.9414 17.8082 29.5962 18.463 29.5962 19.2698C29.5962 20.0765 28.9414 20.7313 28.1346 20.7313Z" fill="#425C5A"/>
</g>
<defs>
<clipPath id="clip0">
<rect y="0.269775" width="38" height="38" fill="white"/>
</clipPath>
</defs>
</svg>
