<svg width="113" height="113" viewBox="0 0 113 113" fill="none" xmlns="http://www.w3.org/2000/svg">
<circle cx="56.0761" cy="56.0761" r="56.0761" fill="#425C5A"/>
<g clip-path="url(#clip0)">
<path d="M84.692 54.0988C84.692 50.5062 81.9831 47.5361 78.501 47.119V29.0873C78.501 27.9833 77.7848 27.0484 76.7187 26.7611C75.653 26.4741 74.564 26.9222 74.0093 27.8765C70.2003 34.4296 64.2011 38.9088 56.1781 41.1899C50.1113 42.9147 45.1051 42.6648 45.0567 42.6618C44.9833 42.6576 44.9102 42.6611 44.8379 42.6684H32.0099C25.5656 42.6684 20.3228 47.9113 20.3228 54.3555C20.3228 60.4253 24.9744 65.4274 30.8998 65.9884L34.769 81.8989C35.2813 84.0056 37.1533 85.4769 39.3214 85.4769H42.0068C43.4536 85.4769 44.7961 84.8245 45.6902 83.687C46.5843 82.5495 46.901 81.0907 46.5592 79.6849L43.2416 66.0425H44.8355C44.9081 66.0499 44.9815 66.0534 45.0555 66.0492C45.1052 66.0464 50.1113 65.7961 56.1781 67.5211C64.2009 69.8022 70.2002 74.2814 74.0093 80.8344C74.4522 81.5965 75.2355 82.0358 76.0757 82.0358C76.288 82.0358 76.5038 82.0077 76.7187 81.9499C77.7848 81.6626 78.501 80.7279 78.501 79.6238V61.5919C81.9831 61.1749 84.692 58.2048 84.692 54.6122V54.0988ZM43.4037 78.5304L43.8449 80.3449C43.983 80.9126 43.8552 81.5017 43.4941 81.9611C43.1332 82.4204 42.591 82.6838 42.0068 82.6838H39.3214C38.4459 82.6838 37.69 82.0897 37.4832 81.239L33.7876 66.0426H40.3669L41.3533 70.0991H40.6858C39.9144 70.0991 39.2891 70.7243 39.2891 71.4957C39.2891 72.267 39.9144 72.8923 40.6858 72.8923H42.0325L42.7244 75.7372H42.2867C41.5153 75.7372 40.8901 76.3625 40.8901 77.1338C40.8901 77.9052 41.5153 78.5304 42.2867 78.5304H43.4037ZM43.5809 57.3227H34.9016C34.1302 57.3227 33.5049 57.948 33.5049 58.7194C33.5049 59.4907 34.1302 60.116 34.9016 60.116H43.5809V63.2494H41.5406C41.5151 63.248 41.4896 63.2462 41.4637 63.2462H32.0099C31.9966 63.2462 31.9835 63.2481 31.9702 63.2484C27.0844 63.2268 23.116 59.2463 23.116 54.3555C23.116 49.4514 27.1058 45.4616 32.0099 45.4616H43.5809V57.3227ZM75.7075 48.4636V60.2474V78.2593C71.5221 71.7503 65.0299 67.1126 56.8476 64.8077C52.3172 63.5315 48.404 63.2766 46.3742 63.2435V58.7194V45.4675C48.4043 45.4344 52.3176 45.1794 56.8476 43.9033C65.0298 41.5983 71.5221 36.9607 75.7075 30.4517V48.4636ZM81.8985 54.6122C81.8985 56.6616 80.4367 58.3759 78.5007 58.767V49.944C80.4365 50.3351 81.8985 52.0494 81.8985 54.0988V54.6122Z" fill="white"/>
<path d="M85.1099 46.2073C85.4455 46.2073 85.7822 46.087 86.0498 45.8433L90.0781 42.1747C90.6483 41.6553 90.6896 40.7721 90.1702 40.2017C89.6508 39.6315 88.7676 39.5903 88.1972 40.1095L84.1691 43.778C83.5989 44.2974 83.5575 45.1806 84.0769 45.751C84.3526 46.0537 84.7306 46.2073 85.1099 46.2073Z" fill="white"/>
<path d="M86.0499 62.8678C85.4796 62.3485 84.5963 62.3897 84.0769 62.96C83.5575 63.5302 83.5989 64.4136 84.1691 64.933L88.1972 68.6014C88.4651 68.8453 88.8017 68.9655 89.1373 68.9655C89.5166 68.9655 89.8947 68.8119 90.1702 68.5093C90.6896 67.939 90.6483 67.0557 90.0781 66.5363L86.0499 62.8678Z" fill="white"/>
<path d="M90.4326 52.9589H87.3395C86.5681 52.9589 85.9429 53.5841 85.9429 54.3555C85.9429 55.1268 86.5681 55.7521 87.3395 55.7521H90.4326C91.2039 55.7521 91.8292 55.1268 91.8292 54.3555C91.8292 53.5841 91.2039 52.9589 90.4326 52.9589Z" fill="white"/>
<path d="M30.4371 58.1856C30.4022 58.1004 30.3589 58.0194 30.3086 57.944C30.2569 57.8672 30.1997 57.7959 30.1354 57.7317C30.0698 57.6674 29.9985 57.6088 29.9217 57.5585C29.8463 57.5082 29.7653 57.4649 29.6815 57.43C29.5963 57.3951 29.5083 57.3686 29.4203 57.3504C29.2402 57.3141 29.0544 57.3141 28.8743 57.3504C28.7849 57.3686 28.6969 57.3951 28.6131 57.43C28.5293 57.4649 28.4469 57.5082 28.3715 57.5585C28.2947 57.6088 28.2235 57.6674 28.1592 57.7317C28.095 57.7959 28.0363 57.8672 27.986 57.944C27.9357 58.0194 27.8925 58.1004 27.8575 58.1856C27.8226 58.2694 27.7961 58.3574 27.7779 58.4468C27.7598 58.5361 27.75 58.6283 27.75 58.7191C27.75 58.8099 27.7598 58.9021 27.7779 58.9928C27.7961 59.0808 27.8226 59.1688 27.8575 59.254C27.8925 59.3378 27.9357 59.4188 27.986 59.4942C28.0363 59.571 28.095 59.6423 28.1592 59.7065C28.2235 59.7707 28.2947 59.8294 28.3715 59.8811C28.4469 59.9314 28.5293 59.9746 28.6131 60.0096C28.6969 60.0445 28.7849 60.071 28.8743 60.0892C28.9651 60.1073 29.0558 60.1157 29.1466 60.1157C29.2388 60.1157 29.3296 60.1073 29.4203 60.0892C29.5097 60.071 29.5963 60.0445 29.6815 60.0096C29.7653 59.9746 29.8463 59.9314 29.9217 59.8811C29.9985 59.8294 30.0698 59.7707 30.1354 59.7065C30.1997 59.6423 30.2569 59.571 30.3086 59.4942C30.3589 59.4188 30.4022 59.3378 30.4371 59.254C30.472 59.1688 30.4985 59.0808 30.5167 58.9928C30.5348 58.9021 30.5432 58.8099 30.5432 58.7191C30.5432 58.6283 30.5348 58.5361 30.5167 58.4468C30.4985 58.3574 30.472 58.2694 30.4371 58.1856Z" fill="white"/>
</g>
<defs>
<clipPath id="clip0">
<rect x="20.3228" y="20.3229" width="71.5065" height="71.5065" fill="white"/>
</clipPath>
</defs>
</svg>
