<svg width="113" height="113" viewBox="0 0 113 113" fill="none" xmlns="http://www.w3.org/2000/svg">
<circle cx="56.8769" cy="56.0761" r="56.0761" fill="#425C5A"/>
<g clip-path="url(#clip0)">
<path d="M84.9558 58.1131C84.5326 58.183 84.1035 58.3354 83.6658 58.5697C83.7842 57.7334 83.8606 56.8755 83.8941 56.0012C84.4462 55.6465 85.0272 55.0894 85.6353 54.328C86.6735 53.027 87.6532 51.2959 88.2552 49.6966C88.8667 48.0729 89.0176 46.7774 88.7169 45.7357C88.4311 44.7455 87.7321 44.0156 86.6954 43.6254C85.6592 43.2352 84.652 43.3226 83.7842 43.8782C83.2801 44.2009 82.829 44.6736 82.4228 45.3046C82.2174 44.6236 82.0206 44.0435 81.8547 43.5854C82.9833 41.7219 82.3009 37.5481 81.507 35.2494C80.9409 33.6092 80.23 32.516 79.3332 31.9065C78.4808 31.327 77.4766 31.2116 76.4299 31.5733C75.3828 31.9345 74.6638 32.6449 74.3511 33.6272C74.0218 34.6599 74.1367 35.9594 74.7033 37.5991C75.5716 40.1131 77.9293 44.3123 80.147 44.5092C80.3159 44.9898 80.5098 45.5833 80.7081 46.2728C79.9287 45.4115 79.1558 44.8709 78.3644 44.6321C77.3777 44.3343 76.3855 44.5252 75.4947 45.1837C74.6039 45.8416 74.1307 46.7344 74.1262 47.7651C74.1207 48.8493 74.6199 50.0549 75.6511 51.4498C77.2758 53.6481 80.0381 56.0597 81.9526 56.4199C81.8797 57.6649 81.7118 58.8685 81.452 60.0096C81.0553 58.4313 80.4748 57.3357 79.6784 56.6672C78.8895 56.0042 77.9028 55.7874 76.8241 56.0412C75.746 56.2945 74.9586 56.928 74.5479 57.8733C74.1153 58.867 74.0978 60.1715 74.495 61.8601C74.9571 63.8261 76.0617 66.4511 77.3357 67.9874C75.9468 69.5067 74.2367 70.8336 72.2357 71.9453V69.6635C72.2357 68.43 71.2325 67.4268 69.9995 67.4268H59.5951V57.527C60.1946 57.0694 60.7047 56.4908 61.0884 55.8164L63.3452 57.0029C63.7184 57.1988 64.1211 57.2957 64.5227 57.2957C65.0438 57.2957 65.5619 57.1323 66.0041 56.8106C66.7875 56.2415 67.1722 55.2953 67.0088 54.341L65.6299 46.3008L66.5901 45.3645C66.9693 44.9948 66.9773 44.3878 66.6076 44.0081C66.2374 43.6289 65.6304 43.6209 65.2512 43.9906L63.9297 45.2791C63.7034 45.4994 63.6005 45.8167 63.6539 46.1279L65.1183 54.6658C65.1757 55.001 64.9684 55.1923 64.877 55.2588C64.785 55.3252 64.5392 55.4631 64.2385 55.3048L56.5709 51.2739C56.2912 51.127 55.9574 51.127 55.6781 51.2739L48.0106 55.3048C47.7099 55.4631 47.464 55.3252 47.3721 55.2588C47.2807 55.1918 47.0734 55.001 47.1308 54.6658L48.5952 46.1279C48.6486 45.8167 48.5457 45.4989 48.3194 45.2786L42.1167 39.2323C41.8729 38.995 41.9279 38.7187 41.9628 38.6108C41.9983 38.5029 42.1157 38.2471 42.4525 38.1981L51.0253 36.9526C51.3375 36.9071 51.6078 36.7108 51.7472 36.4275L55.5812 28.6596C55.7316 28.3548 56.0114 28.3218 56.1248 28.3218C56.2382 28.3218 56.518 28.3548 56.6684 28.6596L60.5019 36.4275C60.6418 36.7108 60.9121 36.9071 61.2243 36.9526L69.7966 38.1981C70.1334 38.2471 70.2513 38.5029 70.2862 38.6108C70.3212 38.7187 70.3767 38.995 70.1329 39.2323L68.4911 40.8326C68.1119 41.2023 68.1039 41.8098 68.4737 42.189C68.8434 42.5682 69.4509 42.5757 69.8301 42.2065L71.4718 40.6062C72.1653 39.9303 72.4101 38.9385 72.1108 38.0178C71.8116 37.097 71.0307 36.4385 70.0724 36.2996L61.9992 35.1265L58.389 27.8107C57.9604 26.9424 57.093 26.4033 56.1248 26.4033C55.1565 26.4033 54.2887 26.9429 53.8606 27.8107L50.2499 35.1265L42.1767 36.2996C41.2189 36.4385 40.4375 37.097 40.1383 38.0178C39.8395 38.9385 40.0843 39.9303 40.7773 40.6062L46.6192 46.3003L45.2403 54.341C45.0769 55.2953 45.4616 56.2415 46.245 56.8106C47.0279 57.3796 48.0466 57.4531 48.9039 57.0029L51.1607 55.8164C51.5449 56.4893 52.055 57.0664 52.654 57.524V67.4268H49.1797C48.6496 67.4268 48.2205 67.8565 48.2205 68.386C48.2205 68.9156 48.6496 69.3453 49.1797 69.3453H69.9995C70.1753 69.3453 70.3177 69.4882 70.3177 69.6635V78.1609H41.9314V69.6635C41.9314 69.4877 42.0738 69.3453 42.2496 69.3453H44.6522C45.1818 69.3453 45.6115 68.9156 45.6115 68.386C45.6115 67.8565 45.1818 67.4268 44.6522 67.4268H42.2496C41.0161 67.4268 40.0129 68.43 40.0129 69.6635V71.9453C38.0119 70.8336 36.3023 69.5067 34.9128 67.9874C36.1873 66.4506 37.2925 63.8231 37.7536 61.8601C38.1508 60.1715 38.1333 58.867 37.7012 57.8728C37.29 56.928 36.5026 56.2945 35.4244 56.0407C34.3463 55.7874 33.3596 56.0037 32.5702 56.6667C31.7743 57.3357 31.1937 58.4308 30.7971 60.0086C30.5373 58.867 30.3689 57.6639 30.2959 56.4184C31.0793 56.273 32.0066 55.8004 33.0683 55.0035C34.3383 54.0502 35.6578 52.7218 36.598 51.4498C37.6292 50.0549 38.1278 48.8493 38.1228 47.7651C38.1178 46.7344 37.6447 45.8416 36.7539 45.1837C35.8636 44.5252 34.8714 44.3343 33.8841 44.6321C33.0933 44.8709 32.3204 45.4115 31.541 46.2723C31.7398 45.5818 31.9337 44.9873 32.102 44.5092C34.3188 44.3123 36.6775 40.1131 37.5458 37.5986C38.1118 35.9589 38.2273 34.6599 37.898 33.6267C37.5848 32.6449 36.8658 31.9345 35.8191 31.5733C34.772 31.2116 33.7682 31.3265 32.9159 31.906C32.0191 32.5155 31.3082 33.6092 30.7416 35.2489C29.9477 37.5481 29.2657 41.7219 30.3944 43.5854C30.2295 44.0406 30.0326 44.6191 29.8258 45.3041C29.4196 44.6731 28.9685 44.2009 28.4644 43.8782C27.5965 43.3226 26.5898 43.2347 25.5531 43.6254C24.5165 44.0156 23.8175 44.7455 23.5317 45.7357C23.231 46.7774 23.3818 48.0729 23.9934 49.6961C24.5954 51.2954 25.5751 53.027 26.6133 54.328C27.2218 55.0904 27.8039 55.6475 28.356 56.0022C28.3894 56.8765 28.4659 57.7344 28.5843 58.5702C28.1456 58.3354 27.7165 58.183 27.2928 58.1131C26.2761 57.9447 25.3163 58.2614 24.518 59.0294C23.7196 59.7973 23.3654 60.7435 23.4933 61.7662C23.6281 62.8419 24.2781 63.9725 25.4807 65.2235C26.6653 66.4551 28.2485 67.6596 29.7159 68.445C30.8385 69.046 31.7828 69.3468 32.5417 69.3468C32.8639 69.3468 33.1512 69.2903 33.4055 69.1819C35.1631 71.1314 37.3829 72.7881 40.0129 74.1151V78.1604H35.7732C34.5396 78.1604 33.5364 79.1641 33.5364 80.3972V83.6351C33.5364 84.8682 34.5396 85.8714 35.7732 85.8714H63.8368C64.3664 85.8714 64.796 85.4422 64.796 84.9121C64.796 84.3826 64.3664 83.9529 63.8368 83.9529H35.7732C35.5978 83.9529 35.4549 83.8105 35.4549 83.6351V80.3972C35.4549 80.2218 35.5978 80.0789 35.7732 80.0789H76.4754C76.6513 80.0789 76.7937 80.2218 76.7937 80.3972V83.6351C76.7937 83.8105 76.6513 83.9529 76.4754 83.9529H68.3637C67.8342 83.9529 67.4045 84.3826 67.4045 84.9121C67.4045 85.4422 67.8342 85.8714 68.3637 85.8714H76.4754C77.7089 85.8714 78.7122 84.8682 78.7122 83.6351V80.3972C78.7122 79.1641 77.7089 78.1604 76.4754 78.1604H72.2357V74.1151C74.8657 72.7881 77.0859 71.1314 78.8431 69.1819C79.0974 69.2903 79.3851 69.3468 79.7069 69.3468C80.4658 69.3468 81.4101 69.046 82.5327 68.445C84.0005 67.6596 85.5838 66.4551 86.7679 65.2235C87.9704 63.973 88.6204 62.8424 88.7553 61.7662C88.8837 60.7435 88.529 59.7973 87.7306 59.0294C86.9323 58.2619 85.9725 57.9452 84.9558 58.1131ZM56.1243 53.2064L59.3892 54.9231C58.7118 56.0652 57.4842 56.7771 56.1243 56.7771C54.7703 56.7771 53.5393 56.0632 52.8608 54.9221L56.1243 53.2064ZM54.572 58.4813C55.0691 58.6207 55.5902 58.6956 56.1243 58.6956C56.6594 58.6956 57.18 58.6217 57.6766 58.4828V67.4268H54.572V58.4813ZM32.6141 60.6521C33.3496 57.524 34.5381 57.8033 34.9853 57.9082C35.6163 58.0566 35.8276 58.3764 35.942 58.6382C36.1189 59.0458 36.2533 59.8592 35.8861 61.4215C35.5433 62.8803 34.8849 64.4831 34.1819 65.6782C34.0615 65.3379 33.9086 64.9757 33.7223 64.5925C33.3511 63.8286 32.8719 63.0302 32.3344 62.2678C32.4028 61.6998 32.4957 61.1562 32.6141 60.6521ZM32.3518 48.3112C33.3056 47.0212 34.013 46.5976 34.4382 46.4692C34.712 46.3862 35.0927 46.3413 35.6133 46.7265C36.1344 47.1112 36.2028 47.4889 36.2043 47.7741C36.2063 48.2188 36.0085 49.0192 35.0547 50.3092C34.0445 51.6761 32.832 52.7977 31.8093 53.5441C31.8327 53.1849 31.8347 52.7937 31.8153 52.3695C31.7758 51.5207 31.6499 50.5979 31.457 49.6851C31.7443 49.1895 32.0446 48.7269 32.3518 48.3112ZM32.5547 35.8754C33.0788 34.3591 33.6268 33.7426 33.9941 33.4928C34.2304 33.3324 34.5801 33.175 35.1921 33.3869C35.8046 33.5982 35.983 33.9374 36.0699 34.2097C36.2048 34.6334 36.2558 35.4563 35.7317 36.9726C34.6915 39.9847 32.7131 42.3913 32.0146 42.5887C31.5864 42.0021 31.5145 38.8876 32.5547 35.8754ZM25.789 49.0207C25.2234 47.5188 25.2519 46.695 25.3748 46.2678C25.4542 45.9935 25.6226 45.6493 26.2291 45.421C26.4544 45.336 26.6448 45.3031 26.8077 45.3031C27.083 45.3031 27.2788 45.3975 27.4297 45.4939C27.8044 45.7337 28.3689 46.3348 28.9345 47.8361C30.0531 50.8068 30.0711 53.9088 29.6644 54.5239C29.6479 54.5209 29.6315 54.5194 29.6155 54.5169C28.8746 54.2591 26.8891 51.9434 25.789 49.0207ZM32.5951 67.4298C31.8792 67.5452 29.0719 66.1908 26.8631 63.8941C25.7515 62.7375 25.4517 61.9691 25.3968 61.5279C25.3613 61.2446 25.3803 60.8619 25.8474 60.4128C26.2031 60.0705 26.5104 59.9866 26.7612 59.9866C26.8396 59.9866 26.9126 59.9946 26.9795 60.0061C27.4182 60.0785 28.1746 60.4078 29.2862 61.5639C31.495 63.8611 32.7375 66.7183 32.5951 67.4298ZM83.3141 47.8361C83.8796 46.3343 84.4442 45.7337 84.8189 45.4939C84.9698 45.3975 85.1656 45.3031 85.4409 45.3031C85.6038 45.3031 85.7941 45.336 86.0195 45.421C86.626 45.6493 86.7944 45.9935 86.8738 46.2678C86.9972 46.6945 87.0252 47.5188 86.4601 49.0202C85.337 52.0023 83.2926 54.3535 82.5891 54.5314C82.1775 53.9338 82.1914 50.8183 83.3141 47.8361ZM76.5164 36.9726C75.9928 35.4563 76.0437 34.6334 76.1786 34.2097C76.2656 33.9374 76.4434 33.5982 77.056 33.3869C77.2683 33.3134 77.4487 33.2844 77.604 33.2844C77.8968 33.2844 78.0996 33.3879 78.2545 33.4928C78.6217 33.7426 79.1698 34.3591 79.6934 35.8754C80.7336 38.8876 80.6621 42.0021 80.234 42.5882C79.5355 42.3913 77.5566 39.9847 76.5164 36.9726ZM77.1934 50.3092C76.2401 49.0192 76.0422 48.2188 76.0442 47.7741C76.0457 47.4889 76.1142 47.1112 76.6353 46.7265C77.1564 46.3413 77.5371 46.3862 77.8104 46.4692C78.2355 46.5976 78.943 47.0212 79.8967 48.3112C80.2045 48.7279 80.5043 49.1905 80.7915 49.6856C80.5982 50.5984 80.4728 51.5212 80.4333 52.3695C80.4138 52.7927 80.4158 53.1839 80.4388 53.5426C79.3692 52.7582 78.1411 51.5912 77.1934 50.3092ZM76.307 58.6382C76.421 58.3764 76.6323 58.0566 77.2633 57.9087C77.7104 57.8033 78.8995 57.524 79.6344 60.6521C79.7529 61.1557 79.8458 61.6993 79.9142 62.2678C79.3771 63.0302 78.8975 63.8286 78.5263 64.5925C78.34 64.9762 78.1871 65.3379 78.0662 65.6787C77.3637 64.4841 76.7057 62.8823 76.3625 61.4215C75.9953 59.8592 76.1297 59.0458 76.307 58.6382ZM86.8518 61.5279C86.7964 61.9691 86.4971 62.7375 85.3855 63.8941C83.1767 66.1908 80.3699 67.5457 79.6534 67.4298C79.511 66.7183 80.7536 63.8611 82.9623 61.5639C84.074 60.4073 84.8304 60.078 85.269 60.0056C85.5508 59.9591 85.934 59.9631 86.4012 60.4123C86.8683 60.8614 86.8873 61.2446 86.8518 61.5279Z" fill="white"/>
<path d="M61.3086 74.5907C61.8382 74.5907 62.2679 74.161 62.2679 73.6314C62.2679 73.1018 61.8382 72.6722 61.3086 72.6722H50.9397C50.4096 72.6722 49.9805 73.1018 49.9805 73.6314C49.9805 74.161 50.4096 74.5907 50.9397 74.5907H61.3086Z" fill="white"/>
</g>
<defs>
<clipPath id="clip0">
<rect x="23.3818" y="23.3337" width="65.4849" height="65.4849" fill="white"/>
</clipPath>
</defs>
</svg>
