<svg width="113" height="113" viewBox="0 0 113 113" fill="none" xmlns="http://www.w3.org/2000/svg">
<circle cx="56.0761" cy="56.0761" r="56.0761" fill="#425C5A"/>
<g clip-path="url(#clip0)">
<path d="M20.3943 57.8488C20.494 57.8488 20.5771 57.8321 20.6768 57.8155C21.3412 57.6657 21.7566 56.9833 21.607 56.3176C21.4908 55.8183 21.2416 54.7697 21.5904 54.3204C21.8396 54.0042 22.4875 53.8044 23.4178 53.7711C27.1223 53.638 28.252 51.9237 29.3484 50.276C29.9298 49.394 30.5445 48.4619 31.6575 47.6131C32.7539 46.7643 33.2191 46.7477 33.2855 46.7477C33.352 46.8142 33.8337 47.4467 33.6676 50.1928C33.5679 51.6408 33.8503 52.6893 34.5148 53.4383C35.4451 54.4702 36.8073 54.5201 37.9037 54.5534C38.4021 54.57 38.8506 54.5867 39.1995 54.6865C40.2627 54.9861 41.193 54.8862 41.9405 54.8197C42.4057 54.7697 42.8708 54.7198 42.9705 54.8363C43.4689 55.3855 44.0337 55.6518 44.6649 55.6352C45.8444 55.6019 46.6418 54.6366 47.8379 53.1553C47.9542 53.0222 48.0705 52.889 48.1868 52.7393C48.2532 52.656 48.303 52.6228 48.3197 52.5895C48.4858 52.6228 48.8679 52.8558 49.1337 53.0222C50.0473 53.5881 51.4428 54.4369 53.1871 53.6879C55.0975 52.8724 55.5959 52.2566 56.5261 50.9584C56.8584 50.4924 57.2903 49.9099 57.9216 49.1443C59.0512 47.7962 60.6792 47.3968 61.3603 47.713C61.46 47.7629 61.7923 47.9127 61.6427 48.8114C61.4268 50.093 61.676 51.0749 62.3737 51.6907C63.603 52.7725 65.5134 52.19 66.9088 51.7573C67.2245 51.6574 67.5899 51.5409 67.7561 51.5243C67.8724 51.5077 68.2378 51.6075 68.487 51.6574C69.6997 51.957 72.2082 52.5728 73.4541 49.0112C74.3013 46.5979 74.916 46.5147 76.7433 46.2484C76.9427 46.2151 77.142 46.1818 77.3414 46.1485C81.3948 45.4994 82.159 42.8365 82.7736 40.6895C82.9397 40.0903 83.1059 39.5078 83.3384 38.9752C83.7039 38.1098 84.4016 37.6771 85.2655 37.1278C86.3785 36.4122 87.7739 35.5134 88.3553 33.5329C88.6378 32.5842 89.4352 32.035 89.8671 31.8852C89.8505 32.1348 89.7674 32.5676 89.5016 33.2166C88.5713 35.5134 88.372 36.795 88.8205 37.7603C89.2192 38.6424 90.0332 38.9087 90.515 39.0751C90.6977 39.1417 90.8804 39.1916 90.9635 39.2582C90.9635 39.2582 90.9635 39.2582 90.9801 39.2748C91.4452 39.7908 92.226 39.8407 92.741 39.3747C93.256 38.9087 93.3058 38.1264 92.8407 37.6105C92.6912 37.4441 92.5417 37.3109 92.3921 37.1944C92.0101 36.9281 91.6114 36.795 91.2957 36.6951C91.2293 36.6785 91.1462 36.6452 91.0798 36.6285C91.0798 36.3789 91.1794 35.7131 91.8107 34.1653C92.5417 32.3678 92.5417 31.0197 91.8107 30.1376C91.2625 29.4885 90.4153 29.2223 89.4684 29.422C88.1394 29.6883 86.5114 30.9532 85.9632 32.8339C85.6475 33.9323 84.9166 34.3983 83.9199 35.0308C82.8899 35.6965 81.727 36.4455 81.0625 37.9933C80.7635 38.6757 80.5808 39.3414 80.3814 40.0071C79.8166 41.971 79.4511 43.2859 76.9593 43.6853C76.76 43.7186 76.5772 43.7519 76.3945 43.7685C74.3678 44.0681 72.4574 44.351 71.1118 48.179C70.6134 49.6103 70.2645 49.5271 69.0851 49.2275C68.5368 49.0944 67.9886 48.9612 67.3906 49.0444C67.0417 49.0944 66.643 49.2109 66.1779 49.3607C65.7128 49.5105 64.5167 49.8766 64.0681 49.7934C64.0515 49.6935 64.0515 49.5271 64.1014 49.2109C64.4004 47.4633 63.7691 46.0486 62.4069 45.4162C60.5297 44.5507 57.7222 45.4661 56.0112 47.5133C55.3134 48.3454 54.8649 48.9779 54.4994 49.4772C53.7353 50.5423 53.5525 50.792 52.2069 51.3745C51.7086 51.5909 51.2933 51.3912 50.4294 50.8752C49.5822 50.3593 47.7881 49.2775 46.2597 51.1249C46.1434 51.2746 46.0272 51.4078 45.9109 51.5576C45.4956 52.0735 44.9806 52.6893 44.6649 52.9889C43.7513 52.1235 42.605 52.24 41.6913 52.3232C41.0767 52.3898 40.4786 52.4397 39.864 52.2732C39.2493 52.1068 38.6014 52.0735 37.9868 52.0569C37.3389 52.0402 36.5914 52.007 36.3588 51.7573C36.2757 51.6574 36.0764 51.3412 36.1428 50.3593C36.2757 48.3121 36.2425 45.4994 34.4484 44.5341C32.7207 43.6187 30.7604 45.1333 30.1126 45.6326C28.6839 46.7477 27.8865 47.9293 27.2552 48.8947C26.2751 50.3759 25.7269 51.1914 23.3015 51.2746C21.5572 51.3412 20.3113 51.8572 19.5803 52.8058C18.5172 54.1872 18.9491 56.018 19.1484 56.8834C19.3312 57.466 19.8295 57.8488 20.3943 57.8488ZM96.1299 50.0264C95.7811 49.5937 95.4322 49.1942 95.1 48.8114C93.5882 47.0805 93.1397 46.4481 93.5716 45.3663C93.6713 45.1166 93.7544 44.867 93.8374 44.584C94.0201 43.9183 93.6215 43.2359 92.957 43.0528C92.2925 42.8698 91.6114 43.2692 91.4286 43.9349C91.3788 44.1014 91.329 44.2678 91.2625 44.4176C90.1993 47.014 91.7443 48.7615 93.2228 50.4591C93.5384 50.8253 93.8706 51.1914 94.1863 51.5909C95.2827 52.9556 96.0136 55.1692 96.1133 56.2344C93.5384 55.5686 92.0931 54.3703 91.8273 52.6727L91.7609 52.2233C91.4619 50.2261 91.1462 48.1623 89.3853 47.713C88.2889 47.43 86.8602 47.7962 85.93 48.5951C85.116 49.2941 84.7173 50.276 84.8169 51.3579C84.8502 51.6907 84.9 52.0402 84.9332 52.423C85.0993 53.7212 85.3485 55.6851 84.6342 56.1844C82.8401 57.416 82.6407 59.33 82.4414 61.3439C82.3915 61.7766 82.3583 62.2426 82.2919 62.7086C82.1091 64.0401 82.5909 64.7557 83.0228 65.1052C84.1192 66.004 85.6808 65.488 86.9267 65.072C87.2091 64.9721 87.4749 64.8889 87.6576 64.839C88.1062 64.7224 88.7541 65.5213 89.6511 67.3521C89.9169 67.8847 90.2159 68.3507 90.4817 68.7501C91.3456 70.0816 92.0267 71.1468 91.2625 74.7584C90.9303 76.3395 90.4485 76.8388 90.2824 76.922C90.1661 76.8388 89.9501 76.4893 90.083 76.0565C90.6312 74.2591 90.6312 72.861 90.0498 71.8957C89.6677 71.2799 89.0863 70.8805 88.3553 70.7473C87.6078 70.6142 87.1427 70.714 86.6277 71.1301C86.4948 71.23 86.1459 71.5129 84.4182 71.8125C82.458 72.1454 82.0925 71.8291 81.1788 71.0802C80.7635 70.7473 80.2485 70.3146 79.5342 69.8985C78.3215 69.1995 77.4411 69.3826 76.9095 69.6655C75.3645 70.4977 75.1486 72.861 74.9326 76.6391C74.8994 77.1716 74.7831 77.5378 74.617 77.6876C74.2183 78.0038 72.9557 77.8207 71.9424 77.6543C70.7463 77.4712 69.3675 77.2549 68.1215 77.5544C66.4271 77.9372 65.1978 77.5045 64.2176 77.1384C63.6362 76.922 63.1212 76.7389 62.5896 76.7389C61.2939 76.7389 60.9284 78.0038 60.7789 78.553C60.7291 78.7361 60.6294 79.0856 60.5463 79.1855C60.4799 79.2021 60.2639 79.2021 59.7655 79.0357C57.2405 78.1536 55.7454 79.1023 54.7486 79.7181C54.217 80.0509 53.8848 80.2507 53.5525 80.2507C52.4229 80.2507 49.7483 79.9677 49.034 77.3214C48.3197 74.6752 46.2597 74.4754 45.1467 74.3589C45.0304 74.3423 44.8809 74.3256 44.7646 74.309C44.3161 71.7126 41.6249 71.5795 38.236 71.4297C35.9933 71.3298 34.98 71.929 34.6809 73.5101C34.6643 73.56 34.6643 73.6266 34.6477 73.6766C34.5979 73.6932 34.5148 73.7265 34.3653 73.7764C32.7871 74.1758 31.1757 72.1787 30.9764 71.5795C30.6441 70.5476 29.4813 68.9332 25.4777 69.6489C23.2351 70.0483 23.1022 72.2452 23.0191 73.4103C23.0025 73.5767 22.9859 73.8097 22.9693 73.9928C21.4575 74.1259 20.7598 75.707 20.2781 76.8388C19.9458 75.6904 19.2813 74.1592 17.238 73.0275C16.7064 72.7279 16.0751 72.2619 16.0419 71.6294C16.0253 71.2799 16.1748 70.997 16.3077 70.8472C17.2214 70.8638 19.9458 70.7806 21.0755 69.0664C21.5572 68.3507 21.9061 67.1024 20.8927 65.255C20.3777 64.3397 20.2116 63.391 20.3777 62.3591C20.4774 61.6767 20.0123 61.0443 19.3312 60.9444C18.6501 60.8446 18.0188 61.3106 17.9191 61.9929C17.6865 63.5574 17.9523 65.072 18.7165 66.47C19.0321 67.0359 19.1318 67.5019 18.9989 67.7016C18.6501 68.2342 16.9888 68.4339 16.2579 68.3507C15.095 68.2342 14.0817 69.3659 13.7328 70.4977C13.5168 71.1801 13.0517 73.5601 16.0419 75.2244C17.5204 76.0399 17.7862 77.0718 18.0354 78.0704C18.2347 78.8693 18.5338 80.0676 19.8129 80.3172C21.4077 80.6335 22.0888 78.9858 22.5373 77.904C22.7201 77.4712 23.0357 76.7056 23.2683 76.4893C23.9328 76.5226 24.3979 76.2729 24.6471 76.0565C25.378 75.4407 25.4445 74.4588 25.4943 73.5767C25.5774 72.3617 25.6771 72.1454 25.9096 72.0954C27.7204 71.7792 28.5178 72.0622 28.6008 72.3284C29.149 74.0427 31.9067 76.9553 34.9634 76.1897C36.7907 75.7237 37.0067 74.5254 37.123 73.9595C37.2725 73.9262 37.5715 73.9096 38.1031 73.9262C39.6813 73.9928 41.0435 74.076 41.791 74.3256C42.2728 74.4754 42.2894 74.5919 42.306 74.8582C42.4887 76.6058 44.1167 76.7722 44.8975 76.8388C45.9275 76.9386 46.3594 77.0219 46.6252 77.9705C47.8213 82.3977 52.2236 82.7472 53.5525 82.7472C54.6323 82.7472 55.4297 82.2479 56.0776 81.8318C56.9747 81.2659 57.5561 80.8998 58.9515 81.3824C60.0646 81.7818 60.9782 81.7818 61.7258 81.3991C62.6395 80.9164 62.9717 80.0177 63.1545 79.3852C63.2375 79.4185 63.3206 79.4518 63.4036 79.4684C64.5499 79.8845 66.2942 80.517 68.703 79.9677C69.4838 79.7847 70.5636 79.9511 71.5935 80.1009C73.2547 80.3505 74.9658 80.6168 76.2117 79.6016C76.9593 79.0024 77.3746 78.0371 77.4577 76.7722C77.5407 75.3076 77.7069 72.6613 78.1056 71.929C78.1554 71.9456 78.2384 71.9789 78.3215 72.0455C78.8697 72.3617 79.2518 72.678 79.6339 72.9942C80.9463 74.076 82.0261 74.7417 84.8834 74.2424C86.744 73.9262 87.5081 73.5601 87.9899 73.2272C88.0729 73.4269 88.1228 74.0593 87.7573 75.291C87.3918 76.456 87.6909 77.7542 88.5215 78.603C89.2026 79.302 90.1329 79.5516 91.0133 79.302C91.927 79.0357 93.1397 78.1203 93.7544 75.241C94.7345 70.6308 93.6713 68.9665 92.6247 67.3687C92.3755 66.9859 92.143 66.6198 91.9436 66.2037C91.113 64.5227 89.7176 61.7267 87.1094 62.3757C86.827 62.4423 86.5114 62.5422 86.1957 62.6587C85.8469 62.7752 85.199 62.9915 84.8003 63.0415C84.8003 63.0248 84.8003 62.9915 84.8003 62.9749C84.8668 62.459 84.9166 61.9929 84.9664 61.5436C85.1492 59.6629 85.2821 58.7309 86.0795 58.1816C88.0563 56.8169 87.7075 54.0541 87.4583 52.0402C87.4084 51.6907 87.3752 51.3579 87.342 51.0749C87.3254 50.8086 87.3918 50.6089 87.5912 50.4425C87.9567 50.1429 88.5049 50.043 88.7541 50.0597C89.0032 50.3926 89.2026 51.6741 89.3189 52.5229L89.3853 52.9889C89.701 55.0028 91.1296 57.649 96.1631 58.7475C97.027 58.9306 97.8078 58.631 98.2563 57.9153C99.4025 56.1012 97.542 51.7739 96.1299 50.0264ZM57.8385 74.0261C57.988 74.1592 58.1708 74.2258 58.3535 74.2258C58.5362 74.2258 58.719 74.1592 58.8685 74.0261C65.2974 68.4339 69.2844 65.6212 69.2844 61.2274C69.2844 57.7489 66.8258 54.8696 63.387 54.8696C61.1278 54.8696 59.3835 56.1844 58.2704 58.1483C57.1574 56.1844 55.4297 54.8696 53.1538 54.8696C50.5125 54.8696 48.303 56.5839 47.5223 59.2302C47.406 59.6462 47.6386 60.0956 48.0539 60.2121C48.4692 60.3286 48.9177 60.0956 49.034 59.6795C49.6154 57.7156 51.2268 56.4507 53.1372 56.4507C55.3799 56.4507 56.9581 58.4479 57.4897 60.312C57.5893 60.6615 57.8884 60.8945 58.2538 60.8945C58.6027 60.8945 58.9183 60.6615 59.018 60.312C59.0346 60.2787 60.131 56.4507 63.3704 56.4507C65.8457 56.4507 67.7062 58.4978 67.7062 61.2274C67.7062 64.7391 64.2841 67.2689 58.3535 72.395C54.7486 69.2827 51.8747 67.1024 50.2467 64.9721C49.9809 64.6226 49.4825 64.556 49.1337 64.8223C48.7848 65.0886 48.7184 65.5879 48.9841 65.9374C50.8281 68.334 53.9346 70.6308 57.8385 74.0261ZM48.2034 61.8265C47.7715 61.8265 47.4226 62.176 47.4226 62.6087C47.4226 63.0415 47.7715 63.391 48.2034 63.391C48.6353 63.391 48.9841 63.0415 48.9841 62.6087C48.9841 62.176 48.6353 61.8265 48.2034 61.8265Z" fill="white"/>
</g>
<defs>
<clipPath id="clip0">
<rect x="13.5483" y="29.3553" width="85.0551" height="53.4417" fill="white"/>
</clipPath>
</defs>
</svg>
