<svg width="32" height="33" viewBox="0 0 32 33" fill="none" xmlns="http://www.w3.org/2000/svg">
<g clip-path="url(#clip0)">
<path d="M16 0.269836C7.16374 0.269836 0 7.43325 0 16.2698C0 25.1064 7.16374 32.2698 16 32.2698C24.8363 32.2698 32 25.1064 32 16.2698C32 7.43325 24.8363 0.269836 16 0.269836ZM24.1161 18.0003C24.8618 18.7287 25.6507 19.4142 26.3202 20.2179C26.6168 20.5734 26.8964 20.941 27.1092 21.3545C27.413 21.9441 27.1386 22.5906 26.6109 22.6256L23.333 22.625C22.4864 22.695 21.8127 22.3536 21.2447 21.7748C20.7913 21.3136 20.3707 20.8209 19.934 20.3439C19.7555 20.1481 19.5676 19.9638 19.3437 19.8188C18.8969 19.5281 18.5086 19.6172 18.2526 20.084C17.9917 20.559 17.9321 21.0854 17.9072 21.6141C17.8715 22.387 17.6385 22.589 16.8629 22.6253C15.2058 22.7029 13.6335 22.4515 12.1721 21.616C10.8829 20.8791 9.88514 19.8391 9.01565 18.6616C7.32252 16.3661 6.02582 13.8467 4.86073 11.2549C4.59851 10.6712 4.79034 10.3589 5.43427 10.3468C6.5041 10.3262 7.57393 10.3288 8.64376 10.3458C9.07916 10.3527 9.36724 10.6018 9.53453 11.0127C10.1127 12.4351 10.8214 13.7884 11.7095 15.0435C11.9462 15.3778 12.1878 15.711 12.5319 15.9471C12.9116 16.2076 13.201 16.1215 13.3801 15.6976C13.4947 15.4282 13.5441 15.1401 13.569 14.8514C13.6541 13.8624 13.6642 12.8737 13.5169 11.8887C13.4253 11.2723 13.0786 10.8742 12.4641 10.7577C12.1512 10.6984 12.197 10.5825 12.3492 10.4038C12.6134 10.0947 12.8609 9.90355 13.3555 9.90355L17.059 9.9029C17.6427 10.0175 17.7737 10.2794 17.8529 10.8673L17.8562 14.983C17.8493 15.2105 17.9704 15.8849 18.379 16.0338C18.7063 16.1418 18.9224 15.8793 19.1182 15.6721C20.0063 14.7296 20.6391 13.6172 21.2058 12.4658C21.4559 11.9581 21.6716 11.4327 21.8811 10.9063C22.0369 10.517 22.2792 10.3255 22.7185 10.3321L26.2848 10.3363C26.3899 10.3363 26.4967 10.3373 26.6008 10.3553C27.2018 10.4581 27.3665 10.7167 27.1805 11.303C26.8879 12.2243 26.3192 12.9916 25.7634 13.7609C25.1675 14.5846 24.5321 15.3794 23.9422 16.2067C23.4001 16.9629 23.443 17.3436 24.1161 18.0003Z" fill="#425C5A"/>
</g>
<defs>
<clipPath id="clip0">
<rect y="0.269836" width="32" height="32" fill="white"/>
</clipPath>
</defs>
</svg>
