<?xml version="1.0" encoding="utf-8"?>
<!-- Generator: Adobe Illustrator 22.1.0, SVG Export Plug-In . SVG Version: 6.00 Build 0)  -->
<svg version="1.1" id="Layer_1" xmlns="http://www.w3.org/2000/svg" xmlns:xlink="http://www.w3.org/1999/xlink" x="0px" y="0px"
	 viewBox="0 0 383.9 105" style="enable-background:new 0 0 383.9 105;" xml:space="preserve">
<style type="text/css">
	.st0{fill:#EB587D;}
	.st1{fill:#BB1736;}
	.st2{fill-rule:evenodd;clip-rule:evenodd;fill:#E62346;}
	.st3{fill:#4D4C4B;}
	.st4{fill:#878787;}
	.st5{fill-rule:evenodd;clip-rule:evenodd;fill:#2A2523;}
	.st6{fill:#3676AB;}
	.st7{fill:#4485C6;}
	.st8{fill-rule:evenodd;clip-rule:evenodd;fill:#1D5DA7;}
	.st9{fill:#1D5DA7;}
</style>
<g>
	<g>
		<polygon class="st0" points="69.5,32.1 9.9,24.6 9.9,19.4 12,19.1 67.9,25.9 69.7,26.5 70.2,27.5 70,31.2 		"/>
		<polygon class="st1" points="79.1,25 79.2,19.6 80.1,18.3 94.3,7.9 95.4,7.7 95.1,13.1 		"/>
		<polygon class="st1" points="69.5,32.1 69.7,26.6 70.5,25.4 75.5,22 76.5,21.7 76.2,27.1 		"/>
		<path class="st2" d="M40.2,2.6C48.9,3.4,57.7,4.2,66.8,5c9.3,0.9,18.8,1.8,28.6,2.7c-2.5,1.9-5.1,3.8-7.8,5.7
			c-2.7,2-5.5,4.1-8.4,6.2c-2.4-0.3-4.8-0.5-7.2-0.8c-3.9-0.4-7.9-0.9-11.7-1.3c-1-0.1-1.9-0.2-2.9-0.3c-3.7-0.4-7.4-0.8-11-1.2
			c-3.6-0.4-7.2-0.8-10.7-1.2c6.1-0.8,12.1-1.7,18.2-2.5c-2.8-0.3-5.6-0.6-8.3-0.9c-6.1,0.8-12.2,1.6-18.4,2.4
			c-1.1,0.6-2.1,1.2-3.2,1.8c3.5,0.4,7.1,0.8,10.7,1.2c3.2,0.4,6.5,0.7,9.8,1.1c3.3,0.4,6.7,0.8,10,1.1l0,0c2.7,0.3,5.5,0.6,8.3,0.9
			c4.5,0.5,9.1,1,13.7,1.6c-2.2,1.6-4.5,3.3-6.8,4.9c-10.7-1.3-21-2.6-31.1-3.8c-9.8-1.2-19.3-2.3-28.6-3.5c3.7-2,7.2-4,10.7-6
			c3.4-1.9,6.8-3.7,10-5.5c4.6,0.5,9.3,0.9,14,1.4c4.8,0.5,9.6,1,14.5,1.5c3.3,0.3,6.6,0.7,9.9,1c0,0,0,0,0,0
			c0.7,0.1,1.5,0.1,2.2,0.2c-6,0.8-12.1,1.7-18.2,2.5c2.9,0.3,5.7,0.6,8.6,0.9c6.2-0.8,12.4-1.7,18.6-2.5c0.8-0.6,1.7-1.2,2.5-1.8
			c-3.8-0.4-7.5-0.7-11.2-1.1c-3.3-0.3-6.6-0.7-9.9-1c-4-0.4-8-0.8-11.9-1.2c-1.6-0.2-3.1-0.3-4.6-0.5c-4-0.4-7.9-0.8-11.7-1.2
			C35.8,5,38,3.8,40.2,2.6"/>
	</g>
	<g>
		<polygon class="st3" points="61.8,42.1 59.7,42.3 1.5,35 1.4,34.6 7.8,30.4 67.1,37.6 67,38.2 62.2,42.1 		"/>
		<polygon class="st4" points="67.1,77.9 61.8,82 61.8,42 67.1,37.7 		"/>
		<polygon class="st4" points="67.1,98.3 61.8,102.5 61.8,88.1 67.1,84 		"/>
		<path class="st5" d="M1.4,34.6c10.1,1.2,20.1,2.5,30.2,3.7c10.1,1.2,20.2,2.5,30.2,3.7c0,6.7,0,13.3,0,20c0,6.7,0,13.3,0,20
			c-2.3-0.3-4.6-0.6-7-0.9c-3.9-0.5-7.8-1-11.6-1.4c-1-0.1-2-0.2-2.9-0.4c-3.8-0.5-7.6-0.9-11.4-1.4c-3.8-0.5-7.6-0.9-11.4-1.4
			c4.3-3.7,8.6-7.5,12.8-11.2c-3-0.4-5.9-0.7-8.9-1.1c-4.4,3.7-8.8,7.5-13.2,11.2c0,2,0,4.1,0,6.1c3.8,0.5,7.7,0.9,11.5,1.4
			c3.4,0.4,6.8,0.8,10.2,1.3c3.4,0.4,6.8,0.8,10.2,1.3l0,0c2.8,0.3,5.5,0.7,8.3,1c4.4,0.5,8.8,1.1,13.3,1.6c0,4.8,0,9.6,0,14.4
			c-10.1-1.2-20.2-2.5-30.2-3.7C21.5,97.5,11.4,96.3,1.4,95c0-6.6,0-13.3,0-20c0-6.7,0-13.3,0-20c5.2,0.7,10.5,1.3,15.8,1.9
			c5.2,0.6,10.5,1.3,15.8,1.9c3.5,0.4,7,0.9,10.4,1.3c0,0,0,0,0,0c0.8,0.1,1.5,0.2,2.3,0.2C41.3,64.3,37,68,32.7,71.8
			c3,0.4,6,0.7,8.9,1.1c4.4-3.7,8.8-7.5,13.2-11.2c0-2,0-4.1,0-6.1c-3.8-0.5-7.7-1-11.5-1.4c-3.5-0.4-7-0.9-10.4-1.3
			c-4.3-0.5-8.6-1.1-13-1.6c-1.7-0.2-3.4-0.4-5.2-0.6c-4.5-0.6-8.9-1.1-13.4-1.7C1.4,44.2,1.4,39.4,1.4,34.6"/>
	</g>
	<g>
		<polygon class="st6" points="78.4,37.8 77.3,38 73.6,37.4 73.1,36.9 98.3,17.6 103.5,18.1 103.1,19.1 79.1,38 		"/>
		<polygon class="st7" points="78.4,52.1 73.1,51.2 73.1,36.9 78.5,37.8 		"/>
		<polygon class="st7" points="78.4,97.6 73.1,96.8 73.1,57.3 78.4,58.1 		"/>
		<path class="st8" d="M78.4,37.8c4.6-3.6,9-7.1,13.3-10.4c4.1-3.2,8-6.3,11.8-9.3c0,5.9,0,11.8,0,17.6c0,5.9,0,11.7,0,17.6
			c-0.9,0.8-1.7,1.7-2.6,2.5c-1.5,1.4-3,2.9-4.5,4.3c-0.4,0.4-0.8,0.7-1.2,1.1c-1.5,1.5-3.1,3-4.6,4.5c-1.6,1.5-3.2,3.1-4.8,4.6
			c1.9-5.8,3.7-11.6,5.5-17.2c-1.2,1.1-2.5,2.3-3.8,3.4c-1.9,5.8-3.8,11.7-5.8,17.8c0,2,0,4,0,6c1.7-1.7,3.4-3.4,5.1-5
			c1.5-1.4,2.9-2.9,4.3-4.3c1.4-1.4,2.8-2.8,4.2-4.1l0,0c1.1-1.1,2.2-2.1,3.3-3.2c1.7-1.7,3.4-3.3,5-4.9c0,4.2,0,8.5,0,12.7
			c-3.8,4-7.7,8.1-11.8,12.4c-4.2,4.4-8.7,9.1-13.3,13.9c0-6.6,0-13.2,0-19.8c0-6.6,0-13.2,0-19.8c2.4-2.1,4.8-4.2,7.1-6.2
			c2.3-2,4.5-3.9,6.7-5.9c1.4-1.2,2.8-2.5,4.2-3.7c0,0,0,0,0,0c0.3-0.3,0.6-0.5,0.9-0.8c-1.7,5.4-3.4,10.9-5.2,16.5
			c1.2-1.1,2.4-2.3,3.6-3.4c1.7-5.5,3.4-10.9,5.1-16.2c0-1.8,0-3.6,0-5.5c-1.5,1.2-3,2.5-4.5,3.8c-1.4,1.2-2.8,2.4-4.2,3.6
			c-1.8,1.5-3.6,3.1-5.5,4.6c-0.7,0.6-1.5,1.3-2.3,1.9c-2,1.7-4,3.4-6.1,5.2C78.4,47.3,78.4,42.6,78.4,37.8"/>
	</g>
</g>
<g>
	<g>
		<polygon class="st9" points="138.3,63.8 157.4,45.1 148.9,45.1 129.8,63.6 129.8,69.5 179.1,69.5 179.1,63.6 150.2,63.6 		"/>
		<polygon class="st9" points="170.7,39 151.6,57.7 160,57.7 179.1,39.3 179.1,33.3 129.8,33.3 129.8,39.3 158.7,39.3 		"/>
	</g>
	<g>
		<polygon class="st9" points="208.9,53.9 232,53.9 232,48 208.9,48 208.9,39.3 234.5,39.3 234.5,33.3 202.3,33.3 202.3,69.4 
			235.5,69.4 235.5,63.3 208.9,63.3 		"/>
		<polygon class="st9" points="288.2,60.1 264.3,33.3 257.6,33.3 257.6,69.4 264.2,69.4 264.2,42.4 288.1,69.4 294.8,69.4 
			294.8,33.3 288.2,33.3 		"/>
		<polygon class="st9" points="345.3,33.3 345.3,39.3 360.6,39.3 360.6,69.4 367.2,69.4 367.2,39.3 382.5,39.3 382.5,33.3 		"/>
		<rect x="317.5" y="33.3" class="st9" width="6.6" height="36"/>
	</g>
</g>
</svg>
